<?xml version="1.0" standalone="no"?>
<!DOCTYPE svg PUBLIC "-//W3C//DTD SVG 1.1//EN" "http://www.w3.org/Graphics/SVG/1.1/DTD/svg11.dtd" >
<svg xmlns="http://www.w3.org/2000/svg" xmlns:xlink="http://www.w3.org/1999/xlink" version="1.1">
<metadata>
Created by FontForge 20170924 at Mon Apr  9 18:20:41 2001
 By www-data
Johan Holmdahl/www.free-typewriter-fonts.com
</metadata>
<defs>
<font id="Splendid66" horiz-adv-x="501" >
  <font-face 
    font-family="Splendid 66"
    font-weight="400"
    font-stretch="normal"
    units-per-em="1000"
    panose-1="0 0 0 0 0 0 0 0 0 0"
    ascent="800"
    descent="-200"
    x-height="292"
    cap-height="461"
    bbox="0 -175 485 757"
    underline-thickness="50"
    underline-position="-125"
    unicode-range="U+0020-E005"
  />
<missing-glyph horiz-adv-x="500" 
d="M63 0v757h375v-757h-375zM125 63h250v632h-250v-632z" />
    <glyph glyph-name=".notdef" horiz-adv-x="500" 
d="M63 0v757h375v-757h-375zM125 63h250v632h-250v-632z" />
    <glyph glyph-name="space" unicode=" " horiz-adv-x="500" 
 />
    <glyph glyph-name="exclam" unicode="!" 
d="M194 61q3 3 6 4v33q17 12 50 24h21q9 0 22.5 -7t17.5 -13l4 -12l4 -4v-41q-23 -22 -29 -26q-12 -6 -38 -6h-2q-8 3 -16 4q-2 4 -24 12q-2 5 -8 12q-2 8 -8 12v8zM224 231l-8 4v52l-8 4v101q-7 5 -10 16q-2 3 -4 4v16q2 3 4 4q5 17 16 20l4 4q10 5 26 5h30q17 0 29 -9
l4 -8q2 -1 4 -4q2 -12 8 -16l-4 -4q-1 -7 -4 -20l-4 -4v-12l4 -6v-2l-4 -4q3 -2 4 -4v-8q-3 -3 -6 -4v-41l-8 -4v-84l-8 -4v-41q-4 -4 -10 -8l-16 -4h-21q-14 9 -18 16v45zM287 412l-3 2l-1 -2l1 -2z" />
    <glyph glyph-name="quotedbl" unicode="&#x22;" 
d="M138 511l4 4v37l-6 4v72l-8 4v44l-6 4v53q6 5 8 12q6 3 8 12h44q13 -6 15.5 -16t5.5 -20l4 -4v-12l-6 -4v-33l-8 -4v-48l-9 -4v-73h-3l-3 -4v-16l4 -4q1 -2 1 -10t-1 -10q-7 -10 -16 -12h-12q-9 2 -16 12v16zM340 491q-1 9 -4 28l-4 4l-1 4l1 4l4 4v29l-6 4v56l-9 4v56
l-6 5v44q6 5 9.5 11t15.5 13h20q9 -4 24 -12q2 -4 8 -12v-65l-4 -4q-1 -5 -4 -16q-3 -3 -6 -4v-32q-3 -1 -6 -4v-2q0 -4 4 -6v-8q-5 -8 -5 -10l1 -6l4 -4l-6 -4v-73q-4 -4 -10 -8h-12q-4 0 -8 4zM352 640l-3 2l-1 -2l1 -2z" />
    <glyph glyph-name="percent" unicode="%" 
d="M65 0q4 3 20 20q2 7 4 20q6 5 8 13l4 4q3 6 4 12q5 4 13 12q1 6 4 12l4 4q2 7 8 12q2 8 8 12q2 9 8 12q0 9 9 16q13 10 15 12l4 16q1 2 12 12q1 7 4 21q2 1 4 4l4 12q7 6 16 24q6 3 8 12q5 3 8 12q6 3 12 4q1 8 4 24q4 6 13 16q2 12 8 17q3 8 8 12q3 8 8 12q1 6 4 12
q2 1 3.5 5.5t4.5 10.5q2 1 3.5 5.5t4.5 10.5l8 8q7 3 14 4v32q8 2 10 12q3 4 18 15q4 3 6 26q2 1 8 20l18 17q5 7 6 23q2 3 5 4q1 6 4 12l4 4q2 11 7 16t10 5t12 -2l3 -3v-28q-6 -5 -8 -12l-4 -4q-3 -6 -4 -12q-6 -5 -8 -12q-7 -6 -16 -24q-2 -3 -5 -4q-2 -12 -16 -24
q-1 -7 -4 -13l-4 -4q-1 -6 -4 -12l-4 -4q-1 -6 -4 -12l-4 -4q-2 -7 -16 -20q-2 -7 -8 -12q-1 -8 -8 -20l-4 -12q-2 -3 -4 -4q-2 -5 -8 -12q-2 -5 -6.5 -11.5t-5.5 -13.5q-6 -3 -8 -16q-7 -6 -16 -24l-4 -4q-3 -6 -4 -12q-4 -6 -13 -16q-2 -7 -8 -12q-1 -6 -4 -12l-4 -4
q-1 -5 -24 -28q-1 -5 -3.5 -7.5t-8.5 -25.5q-11 -10 -12 -12l-4 -16q-6 -3 -8 -12q-5 -3 -6.5 -12.5t-5.5 -11.5q-2 -5 -6.5 -11.5t-6 -11t-3.5 -5.5q-3 -6 -4 -12q-6 -5 -8 -13l-4 -4q-3 -6 -4 -12q-7 -6 -8 -12l-4 -4l-5 -12l-4 -3q-5 -20 -22 -20h-2q-7 2 -16 12v11z
M291 69q-3 4 -4 8q-7 6 -8 12l-4 4q-3 6 -4 12l-4 4v32l4 4q-2 2 -5 6v8q1 2 5 6q1 8 8 20q1 16 4 25l4 4q5 13 32 39q32 29 52 29h20q12 0 41 -16q1 -2 16 -12q2 -9 8 -12q1 -6 4 -12l4 -4v-28l-6 -4v-53l-6 -4q-4 -7 -4 -12q-6 -5 -8 -12q-6 -5 -8 -12q-10 -8 -24 -28
q-8 -6 -13 -8q-14 -14 -46 -14q-33 0 -58 18zM290 125q0 -5 5 -8q2 -13 20.5 -26.5t23.5 -21.5q3 -3 10 -5q4 0 6 13q19 6 53 40q2 7 8 12q2 9 8 12q1 11 4 20q2 3 4 4q1 19 4 29q2 1 4 4v12q-6 3 -8 16l-4 4q-3 6 -4 12q-8 9 -16 12h-21q-28 0 -64 -36q-4 -11 -5 -13
t-11 -11q-3 -8 -4 -17q-6 -3 -8 -20q-4 -2 -4 -6q0 -3 4 -6l-4 -4q4 -2 4 -6q0 -2 -2.5 -4.5t-2.5 -5.5zM452 202v-4h4v4h-4zM41 343v56l4 4q1 8 4 24q2 3 4.5 5.5t3.5 6.5q8 8 17 16q5 7 7 21q6 4 8 12q6 3 16 12q7 3 33 16h45q-2 0 23 -8q2 -2 12 -16l18 -20q5 -5 6 -25
l4 -4l1 -4l-1 -4l-6 -4v-32q-3 -1 -6 -4q-1 -6 -4 -12l-4 -4q-1 -6 -5 -12t-11 -8l4 -4v-2q0 -4 -4 -6q-1 -7 -4 -12q-11 -9 -23 -17q-16 -12 -17 -20l-32 -16h-2q5 0 -35 4q-7 3 -20 12q-14 6 -16 20q-15 9 -16 21zM65 359q2 -3 4 -4q1 -7 4 -20l16 -17q48 -8 55 -8h6
q1 1 10 7.5t10 17.5l8 8q21 9 24 28q6 3 8 16q2 3 4 4v56q-2 3 -4 4q-2 11 -10.5 18.5t-17.5 14.5q-24 4 -18 4q7 0 -26 -4q-14 -10 -41 -33q-5 -3 -20 -40l-6 -4v-36q-3 -1 -6 -4v-8z" />
    <glyph glyph-name="ampersand" unicode="&#x26;" 
d="M310 59h-4q-7 -3 -14 -6.5t-8 -10.5q-7 -4 -16 -12q-7 -1 -23.5 -8.5t-25.5 -7.5h-60q-10 0 -24 8q-3 4 -4 8q-4 5 -21 16q-1 6 -8 12q-2 10 -16 17q-1 13 -4 28q-2 1 -4 4q-1 7 -4 20l-12 4q-1 1 -1 2l1 2l12 8l1 4l-1 4l-4 4l20 20q1 8 8 20q3 7 4 13q5 4 11 7
q3 3 5 13q10 7 29 24l1 14l-1 14q-16 16 -16 24q-1 2 -13 12q-1 12 -4 21q-2 1 -4 4l-1 23q7 0 13 -3l17 -16q1 -6 4 -12l4 -4q1 -9 4 -17l4 -4q2 -6 16 -20q1 -4 4 -8h2q1 0 7.5 3.5t10.5 4.5q30 19 56 32l5 13l4 4q5 13 28 28l5 1l-1 -21q-2 -3 -4 -4q-3 -4 -4 -8
q-13 -11 -33 -37q-5 -4 -12 -8q-4 -7 -48 -28v-2q0 -4 4 -6q3 -6 22 -24q14 -15 14 -24q6 -5 8 -13l12 -8q2 -4 9 -12q4 -6 13 -19q5 -3 21 -20q13 -13 20 -13h2q3 4 4 8q2 1 4 4q1 8 4 24q2 3 4 5.5t6 9.5l2 1q0 -3 -4 4v8l12 4q1 6 4 17l24 12h2q10 0 30 -4t29 -4l8 -8v-2
q0 -1 -3 -7.5t-13 -21.5h-53q-5 -9 -16 -22q-1 -6 -4 -12l-4 -4q-1 -6 -4 -12l-4 -4l-1 -16l1 -16q15 -20 43 -32q25 -11 50 -21v-20l-3 -2q-3 -2 -19 -2q-35 0 -55 12q-1 2 -16 12q-1 8 -13 18.5t-21 10.5zM110 107q5 -3 8 -20q5 -7 13 -12q0 -12 25 -23q21 -10 35 -10h29
q-2 0 23 8q6 6 25 16q4 5 12 13q6 1 12 4v12q-3 4 -8 8q-6 1 -10.5 4t-5.5 8q-15 8 -26 28q-7 4 -9.5 9l-5.5 11l-4 4q0 2 -12 20t-16 29q-5 6 -24 20h-4q-24 -12 -28 -24q-5 -4 -8.5 -11t-12.5 -18q-3 -8 -8 -12v-64zM409 240h4v-4h-4v4zM94 345h4v-12h-4v12zM86 361h4v-4
h-4v4zM118 421q4 6 13 16q2 12 36 29h68q20 0 49 -29q1 -6 4 -12q2 -1 4 -4v-20q-6 -3 -8 -16q-6 -4 -10 -4h-2q0 9 -4 28l-21 20q-1 5 -4 8q-19 13 -33 13q-24 0 -59 -21q-3 -9 -8 -12q-3 -9 -4 -20q-6 -4 -8 -16q-7 -4 -13 -5v45z" />
    <glyph glyph-name="parenleft" unicode="(" 
d="M182 202v36l-6 4v129l4 4q1 9 4 28l3 3l3 1v33q8 3 10 12q6 3 8 16q6 3 8 20q6 3 8 12l4 4q3 6 4 12l4 4q3 6 4 12q9 8 25 32l4 4q1 6 16 20q2 11 18 20t28 9h2l8 -4v-29q-14 -7 -19 -11q-12 -9 -13 -17l-12 -4q-3 -3 -4 -8q-6 -5 -9 -10.5t-10 -9.5q-5 -7 -14 -24l-4 -4
q-2 -7 -8 -12q-2 -7 -8 -12q-1 -11 -4 -20l-4 -4q-1 -8 -8 -17q-2 -9 -4 -28l-6 -4v-32l-8 -4v-64l-6 -4v-2q0 -4 4 -6q1 -7 4 -20l6 -5v-32l6 -4q2 -9 4 -24q2 -1 4 -4q3 -9 4 -20l4 -4q3 -6 4 -12l4 -4q3 -6 4 -12l4 -4q3 -6 4 -12l4 -4q3 -7 17 -24q1 -6 32 -37
q3 -8 12 -16q15 -3 20 -12l1 -12l-1 -12q-4 -3 -8 -4h-20q-17 11 -20 16q-13 8 -16 16q-11 7 -21 16q-1 6 -4 12l-4 4q-1 6 -8 12q-1 8 -8 13q-3 8 -8 12q-1 4 -4 8q-2 1 -3.5 5.5t-4.5 10.5q-2 1 -3.5 5.5t-4.5 10.5q-1 1 -8 20q-2 1 -4 4q-1 8 -4 24l-2 3z" />
    <glyph glyph-name="parenright" unicode=")" 
d="M150 36q56 37 56 57q7 6 16 24q5 5 17 24l4 4q1 6 4 12l4 4q2 7 8 12q1 14 4 24l4 4q1 11 4 20l6 4v61l6 4v56l-6 4v52l-6 4q-3 9 -4 20l-4 4q-3 6 -4 12q-6 5 -8 21l-4 4q-3 9 -4 20q-6 8 -21 24q-2 7 -16 20q-2 7 -16 20q-1 5 -4 8q-13 7 -36 24q-2 10 -2 12t2 12
q7 5 18 5t35.5 -20t26.5 -29l4 -4q5 -12 6 -13q6 -3 11 -7q1 -6 4 -12l4 -4q1 -6 4 -12l4 -4q2 -7 8 -12q1 -6 4 -12l4 -4q2 -8 8 -12q2 -17 8 -25q1 -6 4 -12q1 0 8 -20l3 -2l3 -2v-56l6 -4v-72l-4 -4l4 -5l-6 -4v-32l-3 -1l-3 -3q-1 -8 -4 -24q-2 -1 -4 -4q-1 -8 -4 -24
q-2 -3 -4 -4q-3 -6 -4.5 -10.5t-3.5 -5.5q-3 -9 -4 -20q-2 -3 -4 -4q-3 -4 -4 -8l-4 -4q-3 -6 -4 -12q-5 -4 -8 -12q-7 -5 -8 -13q-7 -9 -21 -24q-5 -14 -32 -32q-4 -16 -20 -20h-20l-5 2l-3 2v28z" />
    <glyph glyph-name="plus" unicode="+" 
d="M201 216q-4 0 -13 -2t-13 -2t-56 4l-8 4v32h135v133q4 4 10 8l6 1q13 0 22 -17v-48q-3 -2 -4 -4v-25q2 -1 4 -4v-16l-4 -4l4 -4l-4 -4v-12q4 -4 8 -4q27 0 67 -2q55 -2 66 -2v-28l-8 -4q-50 -4 -63 -4q-5 0 -15.5 2t-15.5 2q-14 0 -39 -4v-24l4 -4q-3 -2 -4 -4v-8
q2 -3 4 -4v-21q-4 -2 -4 -6v-2l4 -4v-52l-3 -4l-5 -4l-10 -1l-10 1q-7 3 -10 8v125q-23 8 -45 8z" />
    <glyph glyph-name="ch44" unicode="," 
d="M220 -72q21 12 24 25q4 6 13 16q1 9 4 16l4 4q1 17 4 27l4 4h-6q-4 0 -10 -2t-9 -2h-20q-2 4 -24 12q-6 11 -16 20v57q20 20 25 23q12 9 31 9h13q5 0 16 -4q1 -2 4 -4l12 -4q12 -10 24 -24v-20q-2 -3 -4 -4v-9l4 -4v-56l-4 -4v-4l4 -3l-4 -4q-1 -7 -4 -20q-2 -3 -4 -4
q-1 -8 -4 -25q-6 -3 -8 -20q-6 -4 -8 -12q-6 -5 -8 -12q-6 -5 -8 -12q-4 -3 -8 -4h-21q-10 4 -16 12v32z" />
    <glyph glyph-name="period" unicode="." horiz-adv-x="504" 
d="M177 65v57q15 12 16 20q6 3 8 12l32 16h6q2 0 47 -4q14 -6 40 -24l4 -12l4 -4v-53l-4 -4q-3 -6 -4 -12q-6 -3 -8 -12q-28 -29 -63 -29q-18 0 -46 13q-9 7 -24 20l-4 12z" />
    <glyph glyph-name="slash" unicode="/" 
d="M52 -21q2 3 4 4l4 12q2 3 4 5.5t8 9.5q3 4 4 9q2 1 8 20q7 6 16 20l4 4q3 6 4 12q6 4 8 12l5 4q1 6 4 12l4 4q1 6 4 12l4 4q1 6 8 12q1 6 8 12q1 5 4 9q1 1 8 20q1 1 8 12q2 1 3.5 5.5t4.5 10.5q3 2 10 14t10 14q4 11 5 13t11 11q3 9 4 20q2 3 4.5 5.5t3.5 7.5l4 4
q3 5 4 12q7 6 8 12q7 6 8 12q3 1 5 4q2 7 8 12q2 7 8 12q1 6 4 12l4 4q2 7 8 12q2 8 8 12q2 13 8 16q1 4 8 13q1 6 4 12q2 1 8 20q6 3 8 12q6 3 8 12q6 3 8 12q6 5 8 12l4 4q3 6 4 12q5 4 8 12q5 4 8 12l4 4q3 6 4 13q3 1 5 4q3 8 8 12q1 6 4 12l4 4q3 8 8 12l4 8l8 4h20
l8 -8v-12q-2 -3 -4 -4q-1 -8 -8 -20q-2 -5 -6.5 -12t-5.5 -13q-7 -6 -16 -24l-4 -4q-3 -6 -4 -12q-6 -5 -8 -12q-6 -4 -8 -12q-2 -3 -5 -4q-1 -6 -4 -12l-4 -4q-1 -6 -4 -12l-4 -4q-1 -6 -8 -12q-1 -8 -8 -17q-1 -6 -4 -12q-2 -1 -4 -4q-1 -6 -4 -11t-8 -13q-8 -10 -20 -24
q-1 -8 -8 -20q-2 -5 -6.5 -10.5t-5.5 -9.5q-5 -4 -8 -12l-4 -4q-3 -8 -4 -17q-7 -6 -8 -12l-4 -4q-3 -6 -4 -12q-6 -5 -8 -12q-3 -1 -5 -4q-2 -7 -8 -12q-1 -6 -4 -12l-4 -4q-1 -6 -4 -12l-4 -4q-2 -7 -8 -12q-2 -8 -8 -12q-2 -13 -8 -16q-1 -5 -3 -7.5t-9 -13.5
q-2 -1 -4 -4l-4 -12q-6 -3 -8 -16q-6 -3 -8 -12q-6 -5 -8 -12q-6 -4 -8 -12l-4 -4l4 -4q-5 -3 -8 -12l-4 -4q-3 -6 -4 -12l-4 -4q-3 -6 -4 -12l-6.5 -6.5l-6.5 -6.5q-1 -6 -4 -11l-4 -4q-1 -9 -4 -16l-4 -4q-2 -7 -8 -12q-1 -4 -4 -8h-20q-9 2 -16 12v20z" />
    <glyph glyph-name="zero" unicode="0" 
d="M76 175v105q3 2 4 4q1 10 4 29q6 4 8 12q6 3 8 12l12 12v2l-1 2h-11l4 4q3 9 4 20q2 3 4.5 5.5t3.5 6.5l4 4q3 6 5.5 11.5t23.5 25.5q13 2 39 20q22 16 60 16q18 0 58 -12l24 -24l4 -8q6 -2 13 -3l-5 -5v-5l37 -20q2 -7 8 -12q-2 -28 16 -44q2 -9 10 -12v-33l6 -4v-125
l-4 -4q-1 -5 -4 -16q-6 -3 -8 -20q-2 -3 -4 -4q-3 -6 -4.5 -10.5t-3.5 -5.5q-3 -6 -4 -12q-7 -5 -24 -27.5t-37 -33.5q-1 -2 -4 -4q-6 -1 -12 -4q-8 -15 -63 -13l-26 1l-4 4l-26 6q-19 4 -22 10q-19 10 -37 28q-1 8 -8 13q-3 8 -8 12q-3 8 -8 12q-1 4 -4 8q-2 1 -3.5 5.5
t-4.5 10.5q-2 1 -4 4q-1 8 -4 24q-2 3 -4 4q-1 8 -4 24zM108 192q3 -2 4 -4q2 -10 4 -29q2 -1 4 -4q3 -9 4 -20q5 -4 13 -12q1 -11 4 -20l4 -4q0 -13 16 -20q2 -9 44 -33q6 -1 22.5 -4.5t23.5 -3.5q21 0 54.5 16.5t36.5 32.5q7 6 8 12l4 4q3 6 4 12l4 4q1 7 9 20q1 6 4 12
l6 4v33l3 1l3 3q1 8 4 24q2 1 12 26q0 4 -4 6q-1 9 -4 28q-2 3 -4 4q-3 11 -4 29q-6 3 -8 16q-5 5 -17 24l-4 4q-2 15 -16 28q-4 22 -76 49h-10q-5 0 -16.5 -2.5t-18.5 -1.5q-8 -3 -16 -4q-1 -1 -20 -13l-6 1q-8 0 -16.5 -6.5t-9.5 -14.5q-7 -6 -8 -12l-4 -4q-3 -6 -4 -12
q-3 -1 -5 -4q-1 -6 -4 -12l-4 -4q-1 -15 -4 -24q-2 -3 -4 -4q-2 -19 -4 -29q-1 -2 -4 -4v-72q5 -3 5 -8l-1 -4z" />
    <glyph glyph-name="one" unicode="1" horiz-adv-x="504" 
d="M96 36l8 8h93q4 0 12 -4h2q6 0 19 2t22 1q1 15 1 13v5q-1 2 -4 4l4 4l-4 4v24l4 4l-4 4v77q5 5 5 6q0 2 -5 6v189l4 4l1 12l-1 13q-12 8 -67 8q-9 0 -28 -2.5t-28 -2.5q-35 0 -35 19l1 6l16 16h5q5 0 15 -2t15 -2q2 0 7 2t7 2h52q32 0 56 -8q5 -4 9 -8v-20q-4 -3 -13 -8
v-9q5 -4 13 -12q2 -12 4 -20q2 -1 4 -4v-16l-4 -4q-1 -3 -1 -12t1.5 -12t3.5 -4v-16q-2 -3 -4 -4l4 -4v-37q-5 -5 -5 -6q0 -3 5 -6v-40q-5 -3 -5 -8l1 -4l4 -4q-5 -3 -5 -8t5 -9v-4l-4 -4v-36l4 -4l-4 -4q2 -1 4 -4v-8q-2 -3 -4 -4l4 -4l-4 -4v-45l16 -8h133l5 -3l3 -5v-16
q-6 -3 -8 -12q-53 0 -160.5 -4t-161.5 -4q-7 0 -10 2l-3 2v32z" />
    <glyph glyph-name="two" unicode="2" 
d="M91 12q-2 7 -8 12v49l4 4q2 9 4 28q2 1 4 4l4 12l12 12q3 11 33 40q1 5 4 9q15 8 40 28q42 18 109 40q2 4 17 9.5t19 10.5q16 7 16 20q7 5 8 13l4 4q3 9 4 24q2 3 5 4l-5 4l5 4q-3 1 -5 4q-1 11 -4 20l-4 4q-1 6 -8 12q-1 6 -8 12q-1 7 -4 13q-9 4 -28 12l-4 4
q-5 1 -26 8q-14 4 -28 4q-48 0 -71 -18q-41 -34 -53 -39l-12 -1v30q64 64 107 64q48 0 75 -8l2 -2q1 -1 14.5 -6t56.5 -36q1 -6 8 -12q1 -7 4 -13l4 -4q2 -12 8 -16v-80q-6 -5 -8 -17q-7 -6 -8 -12q-7 -6 -8 -12q-6 -4 -13 -8q-2 -3 -105 -46q-99 -41 -108 -75l-5 -4
q-2 -7 -8 -12q-2 -14 -8 -20q-1 -8 -8 -20l2 -21h285q12 -5 16 -12l1 -8l-1 -8q-2 -2 -79.5 -7t-92.5 -5h-2l-4 4h-68q-7 0 -19.5 -2t-19.5 -2q-14 0 -42 4z" />
    <glyph glyph-name="three" unicode="3" 
d="M50 -38l1 10q5 4 28 4q12 0 58 13t51 19q8 1 61 28l20 20q5 3 12 4l48 48q1 7 4 13q10 9 17 28l4 4q1 9 4 16l4 4v60q-7 7 -17 25q-40 24 -66 24q-15 0 -42 -7q-30 -8 -41 -9q-3 -2 -4 -4h-38q0 7 2 20q2 1 12.5 13.5t11.5 14.5q7 2 20 8q3 6 4 12q6 5 32 34t29 31
q4 10 20 23t20 21q2 5 8 12q-15 5 -84 4q-6 3 -13 4q-1 1 -2 1l-14 -5h-109l-8 8v29h287q4 -2 8 -8l1 -12l-1 -9l-53 -52q-2 -10 -38.5 -42t-37.5 -35l-4 -4q-3 -6 -4 -12q-3 -2 -4 -4q35 -7 92 -8l4 -4q16 -11 45 -28q4 -11 5 -13t11 -11q1 -7 4 -21l4 -4v-48l-4 -4
q-1 -9 -4 -28q-2 -3 -4 -4q-3 -6 -4.5 -10.5t-3.5 -5.5q-3 -6 -4 -13q-6 -4 -8 -12q-7 -6 -16 -20q-22 -20 -65 -60q-17 -9 -48 -32q-17 -2 -62.5 -25t-66.5 -23h-45q-9 2 -16 12z" />
    <glyph glyph-name="four" unicode="4" 
d="M299 81l4 4v8q-4 2 -4 6l4 6v20l-4 4v8l4 4l-4 4v2q0 4 4 6v12l-3 3q-4 1 -7 1q-10 0 -31 -2t-31 -2h-150l-8 4q-2 10 -2 12q0 -2 2 17q5 7 11 13q2 10 5 19q6 3 8 16q2 1 4 4q3 8 4 20q2 3 4 4q3 6 4 12l4 4q2 8 4 20l4 4q3 10 4 25l4 4q2 9 5 28l4 4q-5 5 -5 6l1 2l6 4
v32l8 4v85l6 4l-4 4v36l4 4q0 9 14 9q11 0 18 -5l4 -8q2 -1 4 -4v-12l-2 -2l-4 -2v-84l-8 -4v-61l-3 -1l-3 -3q-2 -5 -4 -16q-2 -3 -4 -4q-1 -9 -4 -28q-2 -3 -4 -4q-3 -9 -4 -21q-2 -1 -4 -4q-3 -9 -4 -20l-4 -4q-3 -9 -4 -20q-4 -6 -13 -16q-1 -11 -4 -20l-4 -4
q-1 -6 -4 -12l-4 -4h188l2 12q-5 3 -5 12l1 8l4 4v32l-4 4l-1 10l1 10q2 3 4 4v12q-2 3 -4 4l-1 9l1 8q2 1 4 4v8q-1 2 -4 4l4 4l-4 4l4 4q3 9 4 24q11 4 18 4h2l8 -4v-73l-4 -4l4 -4v-56l-4 -4l4 -4l-4 -4l4 -4q3 -12 4 -28h101v-29l-8 -6h-100l-1 -10q4 -2 4 -6
q0 -3 -4 -6v-72l4 -5l-4 -4l4 -4v-44l-3 -4l-5 -4l-10 -1l-10 1l-5 4l-3 4v65z" />
    <glyph glyph-name="five" unicode="5" horiz-adv-x="498" 
d="M62 -102q4 6 8 8.5t15 3.5q28 8 86 20l4 4q15 5 40 21q23 6 74.5 51.5t54.5 64.5q5 4 13 12q1 6 4 12l4 4q2 18 4 28l4 4v37l-4 4q-3 9 -4 20l-33 32q-17 0 -28 4l-4 4h-14q-22 0 -73 -8q-61 -10 -66 -20q-9 -4 -19 -4h-1q-6 2 -17 8v129q5 5 5 6q0 2 -5 6v65q7 6 8 12
q12 0 38.5 2t39.5 2h72q4 -2 12 -8h2q5 0 22 8q6 0 17.5 2t16.5 2q6 0 21.5 -3.5t20.5 -5.5t9 -3v-12q-2 -3 -4 -4q-3 -4 -4 -9l-8 -4h-93q-7 0 -21 2.5t-21 2.5q-16 0 -48 -2.5t-47 -2.5v-148l12 -1q63 21 108 21q7 0 61 -17q3 -2 4 -4q25 -3 45 -16q2 -6 24 -28v-2
q0 -2 -2 -4t-2 -4v-2q5 -7 12 -12v-73l-4 -4q-3 -6 -4.5 -10.5t-3.5 -5.5q-2 -5 -6.5 -10.5t-5.5 -9.5l-4 -4q-3 -6 -4 -13l-4 -4q-3 -6 -4 -12l-12 -8q-19 -23 -22 -26q-11 -12 -27 -21q-7 -5 -20 -20q-15 -10 -28 -12q-65 -65 -164 -65q-15 0 -19 2t-7 14z" />
    <glyph glyph-name="six" unicode="6" 
d="M102 135v37l-3 1l-3 3v16q2 1 4 4v8l-4 4v36l6 4v45l4 1l2 3q2 9 4 28q2 3 4.5 5.5t3.5 6.5h2q2 0 18 -4q1 -3 1 -9q0 -9 -1 -11l-4 -4q-1 -9 -4 -28q-2 -3 -4 -4q-1 -15 -4 -25q-1 -2 -4 -4h12q3 2 4 4q9 8 29 20q5 8 12 13q6 1 12 4l4 4q8 2 24 8h4q10 -5 32 -4
q10 -3 17 -12q-6 -5 -29 -9q-26 -5 -33 -7q-24 -10 -39 -26q-18 -19 -25 -23q-3 -11 -16 -20v-49l4 -4q3 -9 4 -24q6 -5 8 -12q3 -2 9 -16l4 -4q1 -6 28 -33q4 -1 8 -4q11 -1 20 -4l4 -4q8 -3 24 -8h13q17 0 80 16q3 4 4 9l17 12q3 3 7 12q3 1 5 4q2 7 8 12q1 8 8 20
q1 9 4 28l4 4l-6 4v45l-6 4q-2 5 -2 11q14 -1 22 -3q4 -3 7 -9t9 -11v-81l-4 -4q-3 -6 -4.5 -10.5t-3.5 -5.5q-3 -6 -4.5 -10.5t-3.5 -5.5q-3 -4 -4 -8q-6 -5 -8 -13q-11 -13 -49 -32.5t-56 -19.5h-37q-2 0 -9.5 2.5t-14.5 1.5q-12 5 -32 12q-3 2 -4 4q-26 15 -45 37
q0 8 -16 24q-1 6 -4 12q-2 1 -4 4q-1 9 -4 28l-2 3zM124 240v0v1v0q0 1 -2 1l-2 -2l2 -2zM112 277v-5h4v5h-4zM286 291l32 -2q20 -10 40 -12q3 -2 4 -5q5 -2 13 -8q2 -4 12 -17q7 -8 7 -19q-16 1 -32 4q-15 11 -44 36q-10 3 -28 13q-3 5 -4 10zM128 369q5 4 8 12q6 5 8 21
q4 6 13 16q1 6 4 12l12 12q0 16 16 16q2 4 6 4l6 -4h4l2 1v27q12 11 38 29q5 5 25 16q1 2 4 4l36 12l4 4q25 5 77 10v-26q-12 -13 -45 -12q-30 -14 -56 -20l-4 -4q-6 -3 -10.5 -4.5t-5.5 -4.5q-21 -20 -61 -44q-8 -6 -10 -16t-6 -12q-2 -5 -6.5 -10.5t-5.5 -9.5
q-5 -4 -8 -12q-6 -5 -8 -17q-16 -12 -23 -12h-6q-1 6 -8 12z" />
    <glyph glyph-name="seven" unicode="7" 
d="M175 -106v40l6 5v56q3 1 6 4q1 8 4 23q2 3 4 4q1 8 8 20q3 6 4 13q6 3 8 20q6 3 8 12q6 5 8 12q6 4 8 16l45 45q1 4 4 8q1 1 8 12q3 2 14 18t14 19t4 7q5 4 8 12l4 4q3 6 4 12l4 4q3 6 4 13q7 6 9.5 11.5t19.5 16.5v4q-13 13 -13 15l5 5q2 14 8 20q1 8 8 20v8q-2 3 -4 4
q-3 8 -4 17h-109q-8 0 -23 -2.5t-23 -2.5q-11 0 -32.5 2.5t-32.5 2.5q-5 0 -14 -2t-13 -2q-1 -16 -12 -25h-4q-1 12 -4 25q-1 2 -4 4v26q7 0 12 2l4 4h158l4 -4h20l4 4h69q17 0 26 -4v-40l6 -5l-4 -4v-2l4 -6v-12q-2 -1 -4 -4q-2 -9 -4 -28q-2 -3 -4 -4q-3 -10 -4 -24
q-2 -3 -4 -4q-3 -8 -4 -20q-7 -8 -8 -21q-7 -6 -8 -12q-6 -5 -8 -12q-3 -1 -5 -4q-2 -8 -8 -12q-2 -11 -16 -24q-1 -6 -8 -12q-8 -9 -20 -29q-4 -7 -20 -20q-3 -3 -4 -8q-6 -5 -8 -12q-7 -6 -16 -20l-13 -12q-1 -6 -4 -12l-4 -4q-1 -7 -4 -13q-2 -1 -4 -4q-1 -11 -4 -20
l-6 -4v-35l-8 -4v-89q-4 -4 -20 -4h-10q-3 8 -8 12zM122 414v0v1v0q0 1 -2 1l-2 -2l2 -2zM86 313l4 4q1 7 4 20q4 6 9.5 8t18.5 3v-31l-4 -4v-20q5 -8 5 -9q0 -5 -13 -14q-10 -3 -24 -3v46z" />
    <glyph glyph-name="eight" unicode="8" 
d="M156 35q-27 19 -45 49q-1 1 -8 12q-2 1 -4 4q-1 7 -4 20l-4 4v69l4 4q1 8 4 24l4 4q3 8 4 20q2 3 4.5 5.5t3.5 6.5l26 28q17 16 31 21q11 1 33 6l3 2l1 4l-1 4q-15 15 -20.5 18.5t-23.5 9.5l-16 16q-3 8 -17 25q-1 6 -4 12l-4 4v76l4 4q3 8 4 17l4 4q3 6 4 12l13 12
q3 11 32 28q9 16 56 16q3 0 9.5 2.5t9.5 2.5q17 0 50 -21q12 -3 24.5 -7t15.5 -17l21 -20q1 -10 4 -29l4 -4q1 -6 4 -12l4 -4v-4l-4 -4l-1 -10l1 -10l4 -4v-8q-2 -3 -4 -4q-3 -9 -4 -20l-4 -4q-3 -6 -4 -12q-7 -5 -8 -13q-8 -10 -29 -28q-1 -2 -4 -4q-6 -1 -12 -4l-24 -16
v-4q4 -6 8 -8q61 -18 85 -49q1 -6 4 -12q2 -1 4 -4q1 -6 4 -12q2 -1 4 -4q1 -7 4 -20l4 -4v-77l-4 -4q-3 -6 -4.5 -10.5t-3.5 -5.5q-1 -8 -8 -20q-3 -9 -11.5 -17t-8.5 -16l-57 -36q-42 -12 -67 -12q-10 0 -41 8q-34 10 -37 16q-6 3 -12 4zM123 132q6 -6 8 -20q6 -5 9 -11.5
t12 -16.5q3 -16 24 -20q2 -4 44 -25h45q8 0 21.5 3.5t18 5.5t8.5 3l4 4q6 3 12 4q26 21 28 33q3 1 5 4q2 7 8 12q2 11 4 16l4 4v73l-4 4q-3 6 -4 12l-4 4q-3 7 -4 16q-12 13 -37 32q-7 5 -20 17q-34 4 -48 12h-7q-3 0 -54 -16q-3 -4 -21 -14q-14 -7 -15 -15l-21 -20
q-1 -6 -4 -12l-4 -4q-1 -6 -4 -12l-4 -4v-69zM228 322v-4h4v4h-4zM156 435q2 -1 4 -4q1 -15 4 -24l4 -4q1 -6 8 -12q0 -6 32 -37l2 -6v-1q0 -5 14 -9q3 -2 4 -4l16 -8h2q4 0 6 4l13 4l12 12q5 1 12 5l4 7q11 8 36 29q3 6 4 12q6 6 8 20q2 3 4 4v52l-4 4q-2 12 -8 17
q-3 9 -16 19q-17 14 -20 17q-30 12 -51 12q-10 0 -58 -24q-1 -6 -10.5 -15.5t-9.5 -17.5l-4 -4q-3 -6 -4 -12l-4 -4v-32z" />
    <glyph glyph-name="nine" unicode="9" horiz-adv-x="504" 
d="M142 -68q0 11 4 15q8 6 25 8l4 4q24 10 48 21q28 13 43 29q4 5 18 10q5 2 13.5 14.5t11 15t3.5 6.5q8 7 15 15t9 18l4 4q3 6 4 12q6 5 8 12q3 1 4.5 5.5t4.5 10.5l4 4q2 9 6 9t18 -17v-12q-2 -3 -4 -4q-3 -6 -4 -12l-4 -4q-3 -6 -4 -12q-6 -5 -8 -13q-7 -6 -8 -12
q-3 -1 -5 -4q-3 -9 -16 -20q-3 -13 -34 -38q-38 -30 -43 -32.5t-12 -5.5q-1 -3 -84 -44h-4q-6 2 -16 8q-1 3 -1 9zM377 164l4 4q3 12 4 25q6 0 12 4l4 8l6 1q0 -7 -4 -20l-4 -1v-33l-10 -8h-4l-4 16q-2 3 -4 4zM86 285l6 4v77l4 2l2 2q1 5 4 16q11 11 24 29q7 6 8 12
q19 18 37 28q1 2 4 4q53 17 66 17l11 -1q2 -1 4 -4q6 1 14 1q21 0 38 -5q3 -2 4 -4q13 -2 16 -8q18 -10 37 -28q1 -5 4 -8l12 -8q1 -7 4 -21q2 -1 4 -4v-12q-6 -4 -14 -4h-6q-5 2 -8 4q-4 6 -4 12l-33 33q-12 4 -28 12l-4 4q-41 12 -51 12h-2l-4 -6h-36l-5 -6
q-14 -13 -43 -32q-6 -5 -13 -25l-4 -4q-3 -8 -6 -10l-4 -2v-40q-3 -1 -6 -4v-16q2 -3 4 -4q3 -8 4 -17l4 -4q3 -9 4 -24q8 -10 25 -28q36 -33 82 -33q26 0 63 15q43 17 48 38q4 3 13 8q2 10 8.5 16t19.5 12q1 1 2 1l7 -2l3 -3v-41q-4 1 -12 5q-3 4 -4 8l-2 1q-4 0 -6 -13
q-10 -8 -24 -28q-12 -8 -37 -24q-3 -8 -21.5 -14.5t-30.5 -6.5h-53l-4 4q-8 3 -20 4l-4 4q-32 11 -37 14.5t-32 30.5q-2 7 -8 12q-2 9 -8 12q-1 9 -4 28q-5 7 -12 12zM405 302q0 -2 -2 -4l-2 4l2 2zM376 346l1 4l3 3q3 1 17 2v-37q-5 -9 -10 -9q-2 0 -2 1q-1 15 -4 28
q-5 3 -5 8z" />
    <glyph glyph-name="ch58" unicode=":" 
d="M209 46v49q6 5 8 12q14 17 47 17q29 0 46 -25v-57q-6 -2 -24 -20l-16 -4h-21q-13 0 -32 12l-4 12zM209 269v44q6 5 8 12q17 21 42 21q28 0 43 -17q2 -7 8 -12v-52q-7 -14 -32 -25h-29q-7 0 -24 8l-8 8q-2 8 -8 13z" />
    <glyph glyph-name="equal" unicode="=" 
d="M95 140v31q12 0 36.5 2.5t36.5 2.5q36 0 112 2t114 2h4q17 -7 17 -15l-1 -9q-3 -2 -8 -11l-8 -5h-303zM129 318h2l14 -5q2 0 2 1q7 1 13 4h246v-33h-263q-5 0 -15 -2t-15 -2q-2 0 -18 4v29q33 4 34 4z" />
    <glyph glyph-name="question" unicode="?" 
d="M198 41v41l4 4q12 32 54 32q1 0 26 -4l16 -16q3 -6 4 -12l4 -4v-41l-4 -4q-3 -10 -17.5 -19t-25.5 -9h-21q-19 9 -21 10q-12 8 -15 18zM238 214l4 4l4 13q6 5 16 20q24 32 69 44l8 8q2 7 8 12q2 14 8 20v29q-6 6 -8 20l-4 4q-3 6 -4 12q-6 5 -8 12q-87 24 -83 24h-2
q-34 -15 -56 -20q-3 -2 -4 -4q-7 -4 -13 -8v-20q2 -2 13 -12q1 -6 4 -13l4 -4l-4 -4q-3 -10 -4 -24q-2 -2 -25 -16h-20l-24 12q-1 8 -8 20v8q2 3 4 4q1 7 4 21q6 3 8 16q6 4 8 12q6 3 8 12q4 4 11 9l5 7q7 4 17 11t37 16t37 9q41 0 75 -20q2 -4 32 -20v-3q0 -9 4 -17
q5 -3 12 -4q6 -4 8 -8q1 -9 4 -28l4 -4v-37l-4 -4q-1 -7 -4 -20q-6 -3 -8 -12q-6 -5 -8 -12q-21 -24 -45 -28q-15 -9 -42 -33v-44q-4 -4 -10 -8h-9q-13 0 -16 2l-3 2v44z" />
    <glyph glyph-name="A" unicode="A" 
d="M36 24l1 12q8 14 60 20l8 4q1 6 5 17l6 4v36q3 1 5 5.5t5 10.5l6 4v36l8 4v32l6 5q1 8 4 24q2 1 4 4q1 15 4 24l3 3l3 1v44q3 1 6 4q1 8 8 20q1 10 4 29q2 1 4 4q2 9 4 28q2 1 4 4q1 9 4 28q2 3 4 4q1 8 8 20q12 20 31 20h1l4 -4q7 0 25 -16q6 -1 12 -4v-12q-2 -3 -4 -4
l6 -4v-40q3 -1 6 -4q2 -13 8 -16q1 -12 4 -21q2 -1 4 -4v-12q-4 -2 -4 -6q0 3 8 -22q2 -1 4 -4q3 -12 4 -28q7 -3 12 -8q1 -8 8 -20q2 -5 8 -12q3 -4 4 -8l4 -4q3 -8 4 -17q2 -1 4 -4q2 -9 4 -28q3 -3 6 -4v-32l6 -4l1 -4l-1 -4l-4 -4v-4q3 -3 6 -4v-44q9 -8 32.5 -11
t34.5 -14q6 -1 12 -4l1 -7l-1 -9q-6 -3 -8 -12q-6 -3 -8 -15h-10q-49 0 -147 7l-8 4v36q9 9 44 12q4 3 8 4v4l-6 5v44l-10 8h-147q-2 -19 -2 -17v-3l4 -4l-4 -4v-37q14 -3 41 -9l3 -3l1 -7l-1 -9l-4 -4q-1 -4 -4 -7t-8 -13q-20 0 -60.5 -3.5t-60.5 -3.5h-12q-2 2 -16 7
q-6 3 -8 8zM182 214v-50q2 1 5.5 3t4.5 2q4 0 6 -4h12q3 2 4 4h20q12 0 33.5 2t31.5 2l8 8v2q0 4 -4 6q-3 11 -10 16v37l-8 4v32l-6 4q-3 10 -4 24q-2 3 -4 4q-3 9 -4 20q-5 4 -5 6q0 1 5 6v8q-6 5 -8 25q-3 3 -6 4v40l-11 8h-4q-1 -14 -4 -24l-4 -4q-1 -15 -4 -24
q-2 -3 -4 -4q-1 -12 -4 -21l-6 -4v-32q-3 -1 -6 -4q-1 -8 -4 -24l-2 -2l-4 -2v-36q-3 -1 -6 -4q-1 -8 -4 -24zM339 230v0v1v0q0 1 -2 1l-2 -2l2 -2z" />
    <glyph glyph-name="B" unicode="B" horiz-adv-x="498" 
d="M50 2q0 13 17 22h77v379l-3 3q-22 6 -28 6q-10 0 -34 -9h-2q6 0 -18 4q-8 20 -8 14q0 4 4 6q4 13 22 13h10q4 -5 6 -5t2 1q15 1 25 4q1 2 4 4l14 -1q6 0 17.5 2.5t16.5 2.5q26 0 78.5 -1.5t78.5 -1.5q17 -6 28 -22q7 -3 29 -24q3 -8 8 -12q1 -11 4 -20l4 -4v-60
q-2 -1 -8 -25q-7 -6 -16 -20q-12 -7 -29 -16v-12q11 -1 20 -4l5 -4l12 -4l16 -16q2 -13 8 -16q1 -8 8 -17q1 -6 4 -12q5 -2 6.5 -11.5t5.5 -12.5v-32l-6 -4v-36q-7 -2 -10 -16q-7 -6 -16 -21q-14 -9 -24 -20q-8 -2 -21 -7q-9 -16 -103 -16q-4 0 -12 2t-12 2q-3 0 -8 -2
t-8 -2t-6 4h-101q-6 0 -17.5 -2t-17.5 -2h-5l-16 16zM240 26l5 -6h12q4 7 45 8q45 1 63 25q5 2 13 8q3 8 8 12q1 9 4 16l4 4v60q-14 12 -16 21q-14 8 -41 24q-21 2 -56 12h-101v-184h60zM172 250l8 -4h2q4 0 7 3.5t7 4.5h2q11 0 32.5 -2t32.5 -2h2l80 28q20 15 20 33l4 4v40
l-4 4q-8 48 -123 48q-10 0 -62 -4l-8 -4l4 -4v-16l-4 -4l4 -4v-109l-4 -4v-8z" />
    <glyph glyph-name="C" unicode="C" 
d="M94 93v32q-3 1 -6 4q-1 8 -4 25l-4 4v104l6 5v32l6 5q4 6 4 11q2 1 4 4q3 9 4 20q2 3 4 4q3 6 4 12l4 4q1 7 4 21q7 6 16 20q3 1 4.5 4.5t4.5 7.5q25 17 32 21q18 11 36 15l4 4h69q1 -2 5.5 -3.5t10.5 -4.5q1 -2 4 -4q17 -5 48 -16h4l4 16q12 13 27 13l10 -1q4 -3 7 -9
t9 -11l1 -14l-1 -14q-16 -16 -16 -24l-4 -5v-36l4 -4v-8q-2 -1 -4 -4q-3 -10 -4 -28q-2 -3 -4 -4q-3 -4 -4 -8q-7 -5 -11 -5l-18 13q-1 9 -4 16q-2 1 -4 4v16l5 8l-1 4l-4 4q-1 6 -4 12l-4 4q-3 15 -28 37q-13 2 -16 8q-19 8 -24 8h-37q-1 0 -14.5 -4t-17.5 -4q-3 -6 -16 -8
q-9 -7 -20 -25q-7 -6 -8 -12l-4 -4q-3 -6 -4 -12l-4 -4q-3 -9 -4 -20q-2 -3 -5 -4q-2 -14 -8 -20q-1 -15 -4 -24l-4 -4v-69l4 -4q3 -9 4 -24l6 -4v-33q4 -1 7 -4q1 -9 4 -16l4 -4q2 -15 16 -28q2 -11 12 -19q13 -12 17.5 -16.5t22.5 -13.5q6 -1 27 -5q18 -3 28 -3h6
q20 12 31 19q19 15 21 26q11 9 24 28l4 4q3 7 4 16q2 3 5 4q1 15 4 24q5 3 8 13l8 4h20q6 -4 8 -8v-33l-4 -4q-1 -7 -4 -20l-4 -4q-1 -5 -4 -16q-7 -6 -16 -20q-6 -6 -16 -21q-25 -19 -57 -47q-31 -8 -62 -8q-68 0 -120 55q-1 6 -4 13l-4 4q-1 4 -4 8q-2 1 -4 4q-1 11 -4 20
q-5 6 -14 8z" />
    <glyph glyph-name="D" unicode="D" horiz-adv-x="503" 
d="M59 -11v23l8 6h69l8 6v25q-5 3 -5 6q0 -2 5 6v20q-3 3 -6 4v320h-71q-4 4 -8 10l-1 9l1 8l8 4q6 1 32 5q21 3 33 3h133q10 -6 32 -8q16 -7 36 -21q15 -4 26 -16q17 -18 19 -20q0 -8 10 -18q6 -2 7.5 -10t2.5 -16q2 -3 4 -4q1 -12 4 -20q2 -3 4 -4q2 -12 8 -17l-4 -4l4 -4
q1 -8 8 -20v-105l-4 -4q-1 -8 -4 -24q-2 -1 -4 -4q-3 -9 -4 -20q-2 -3 -4 -4q-1 -8 -4 -24q-10 -9 -28 -27l-4 -10l-21 -12q-15 -44 -198 -44h-50q-27 0 -42 5zM178 28l10 -8h44q20 0 48 8q32 9 37 21q6 2 17 6q6 3 7 10q7 6 8 12q6 5 8 12q6 6 8 20q2 3 5 4q2 14 8 20
q2 14 8 20v117q-3 2 -4 4q-3 10 -4 25l-4 4q-3 9 -4 20q-3 1 -5 4q-2 13 -4 15q-6 5 -12 9q-3 15 -13 20q-16 9 -19 12q-22 24 -81 24q-5 0 -15 2t-12 2.5t-3 0.5q-18 0 -34 -5v-161l4 -4v-24q-2 -3 -4 -4v-8q2 -3 4 -4v-12q-2 -3 -4 -4l-1 -11l1 -10l3 -2l3 -2v-133z" />
    <glyph glyph-name="E" unicode="E" horiz-adv-x="500" 
d="M55 12l1 8l8 4h79v299q3 1 6 4v4l-6 4v78h-79q-4 4 -8 10v8q3 4 8 9q4 1 8 4q24 0 72 2t72 2h86q-1 0 105 -4l10 -9v-44l6 -4v-60l-3 -2q-9 -3 -12 -3q-7 0 -9 9l-6 4v84q-119 -4 -224 -8v-12l4 -4v-72l-4 -4v-2q0 -4 4 -6v-21q-2 -1 -4 -4v-8l3 -2l3 -2v-32h103
q1 3 4.5 8t3.5 6q0 4 -4 6v36l4 4q1 5 4 9h12q6 -2 10 -5v-80l6 -4l-4 -4v-20q2 -3 4 -4v-17q-2 -1 -4 -4q-3 -10 -4 -24q-4 -3 -8 -4h-12q-6 4 -10 8v57h-103v-182l24 -4h149q22 0 35 4v33l8 4v44l8 4v32h30q4 -2 8 -8v-12q-2 -1 -4 -4q-1 -8 -4 -24l-4 -4l4 -4l-6 -4v-49
l-3 -1q-4 -4 -4 -7l5 -8v-16q-13 -9 -87 -9.5t-82 -5.5h-182q-4 1 -16 11z" />
    <glyph glyph-name="F" unicode="F" horiz-adv-x="504" 
d="M76 -7q-9 3 -16 11l-1 10l1 10q5 9 10 9l14 -5h61l8 8v4l-4 4q2 3 4 4v9q-2 1 -4 4l4 4v48l-4 4q2 1 4 4v8q-2 3 -4 4l4 4l-4 4v109l4 4v28q-5 4 -5 6q0 1 5 6v29l-4 4l-1 10l1 10l4 4v60h-69l-16 8v33h359q1 -7 4 -11t6 -6v-52l6 -4l-4 -4v-40q3 -2 4 -4v-12
q-3 -5 -16 -13h-12q-5 2 -8 6t-4 11l-4 4l-1 4l5 8v20q-3 3 -6 4v48q-52 5 -137 5q-60 0 -71 -9v-161h87v77q17 4 20 4h2l18 -12v-150l4 -1l2 -3v-12q-2 -1 -4 -4l-4 -12l-8 -4h-2q-2 0 -18 4q-3 4 -5 7.5t-5 4.5v65h-87v-73l4 -4v-4l-4 -4v-89l8 -8h2q9 0 28 3t29 2l18 -1
l16 -16v-4q-25 -23 -32 -23z" />
    <glyph glyph-name="G" unicode="G" 
d="M201 -3q-5 5 -16 7q-3 2 -4 4q-22 12 -45 36q-1 6 -4 13l-12 12q-1 6 -4 12l-4 4q-1 6 -4 12q-2 1 -3.5 5.5t-4.5 10.5q-2 1 -4 4q-1 8 -4 24q-2 3 -4 4q-1 8 -4 24l-4 4v37l4 4v8l-4 4v32l6 4v44l4 2q2 7 6 23q11 10 12.5 14t3.5 22l4 4q6 18 12 24q10 8 21 16l4 8
q25 12 76 37l4 4h2q11 0 31 -3.5t28 -4.5l1 -6l3 -6q5 -3 20 -4q1 -3 4 -5q11 -2 24 -16h12q3 4 4 8l4 4q3 12 4 25h12l8 -4v-37l-4 -4v-4q5 -4 5 -7q-2 -1 -7 -5v-89l-10 -4h-4q-4 3 -8 4q-1 5 -4 9q-3 1 -6 4v44q-3 1 -6 4q-2 7 -8 12q-2 6 -23 25t-29 19h-77l-4 -4
q-13 -2 -28 -12q-3 -3 -4 -8q-16 -7 -16 -20l-4 -4q-3 -6 -4 -12q-2 -2 -13 -12q-1 -8 -4 -24l-4 -4q-1 -9 -2 -12q-2 -7 -8 -9v-40q-3 -1 -6 -4q-1 -7 -4 -20q-4 -3 -12 -8v-4l12 -4q1 -7 4 -20l6 -4v-37l6 -4q3 -9 4 -20l4 -4q3 -6 4 -12l4 -4q1 -7 9 -20q1 -6 8 -12
q2 -14 24 -33.5t36 -19.5h61q17 7 21.5 11t10.5 5q17 12 36 37q6 3 8 16q6 3 8 16q2 3 4 4v73h-101v24l9 4q44 -1 38 -1q13 0 38.5 2.5t37.5 2.5q10 0 30 -2t29 -2l8 -8v-2q0 -4 -4 -6l-4 -8q-7 -6 -46 -8v-33l-7 -4v-16q3 -3 7 -4v-44l8 -4v-49h3l3 -4v-20l-8 -8h-13
q-4 1 -6.5 5.5t-5.5 10.5l-6 4v38l-6 3q-6 -26 -46 -47t-72 -21q-30 0 -51 4z" />
    <glyph glyph-name="H" unicode="H" horiz-adv-x="504" 
d="M74 8l1 4q24 16 77 16v29q-5 4 -5 6t5 6v4l-4 4l4 4l-4 4v60q2 1 4 4v12q-2 3 -4 4v73l4 4l-6 4v167h-63q-4 4 -8 10l-1 9l1 8q3 4 8 8q11 0 35 2t36 2h86q6 -4 7.5 -7.5t1.5 -10.5q0 -11 -4 -17l-5 -4h-60v-30l4 -4v-12q-2 -3 -4 -4v-8l4 -4v-45l-4 -4v-56q5 -4 60 -4
l4 -4q16 -4 16 -12l4 -4q1 -4 2 -10q-1 0 -18.5 1.5t-30.5 1.5q-38 0 -38 -13q0 -3 2.5 -5.5t2.5 -4.5q0 -4 -4 -6v-37l4 -4v-8l-4 -4v-28l4 -4v-69l-4 -4q29 -1 65 -5l3 -3v-23q-27 -4 -117 -4q-7 -4 -12 -4h-28q-9 6 -16 15zM293 -3v26q20 0 60 5q6 4 8 8v29l-4 4l4 4
l-4 4v8q5 3 5 12l-1 8l-4 4v40q7 5 22 16v39h2l4 -2q3 -6 4 -12l4 -4q1 -2 1 -7q0 -2 -13 -18v-12q3 -3 6 -4v-56l6 -4q1 -3 1 -10q0 -8 -1 -10l-4 -4l4 -4l1 -4l-1 -5l-4 -4l4 -4l5 -12q6 1 13 1q16 0 31 -9q1 -2 5.5 -3.5t10.5 -4.5l1 -6l-1 -6q-12 -8 -82 -8h-48l-27 1z
M268 234l1 4l3 3l5 1h90q-3 -19 -11 -24t-29 -5q-33 0 -58 17zM385 250q5 -2 7 -3.5t2 -3.5q0 -3 -9 -8.5t-13 -5.5l1 5l4 4q3 6 4 12h4zM373 278q2 3 4 4h-12q-6 3 -8 8v41l4 4l1 6l-1 6l-6 4v62h-54q-17 13 -17 20q0 3 5 7q1 4 4 8q3 0 11.5 2t12.5 2h28q10 0 36 -17h4
l13 5h36l16 -17l-8 -4h-12q-8 5 -6 5q-3 0 -6 -5l-6 1q-14 1 -25 -9v-92q-3 -3 -6 -4v-4q3 -2 4 -5v-45l-12 5v12z" />
    <glyph glyph-name="I" unicode="I" 
d="M111 -3l-1 9l1 10q8 12 16 16h117v154l-4 4l6 4v161l6 4v61q-3 2 -8 4h-5q-18 0 -53.5 -4t-53.5 -4h-37l4 4v4l-4 4q20 12 24 24q21 8 67 8q11 0 32.5 -4t31.5 -4q7 0 22 4.5t23 4.5q16 0 26 -5q4 0 17 1h17q38 0 59 -5v-2l-2.5 -6.5t-5.5 -19.5q-4 -4 -31 -5
q-18 -1 -50 0q-39 1 -36 1q-4 -1 -8 -4l-1 -2q0 -1 5 -6l-4 -4v-29l4 -4v-16q-5 -3 -5 -12l1 -8l4 -4v-214l-4 -4v-28q2 -1 4 -4v-8q-2 -3 -4 -4v-33q30 -4 40 -4h61q9 5 18 5q14 0 18 -17q4 -2 4 -6q0 1 -8 -13l-8 -4q-39 0 -117 -2t-116 -2h-40q-6 0 -22 4z" />
    <glyph glyph-name="J" unicode="J" horiz-adv-x="504" 
d="M70 93v48q3 2 4 4q1 8 4 24q3 4 16 17q24 4 18 4q2 0 18 -4q5 -4 9 -8q1 -9 4 -17l4 -4v-12q-8 -8 -45 -28v-8q2 -3 4 -4q3 -9 4 -20q5 -4 8 -12q8 -11 25 -29q6 -1 12 -4q1 -1 20 -12q40 -4 42 -4h2q21 10 32 12q27 20 37 37q1 1 8 20l4 4v165l-4 4l4 4v77l-4 4l4 4v56
l-8 8q-4 0 -30 -1q-20 -1 -33 0q-18 1 -30 6l-1 8l1 8q6 7 16 12q14 0 45 2t48 2q19 0 57 -2t56 -2q10 -5 16 -12l-4 -4q-4 -14 -12 -21h-5q-13 0 -38 2.5t-37 2.5q-6 0 -13 -5v-24l3 -2l3 -2v-218l6 -4l1 -7l-1 -9q-4 -2 -4 -6q0 -2 2 -4t2 -4v-2q-3 -3 -6 -4v-44
q-7 -5 -10 -16q-2 -3 -4 -4q-3 -11 -8 -17l-4 -12q-19 -14 -40 -32q-43 -14 -63 -14q-14 0 -35 5q-30 8 -35 9q-8 7 -25 16q-1 6 -8 12q-2 8 -8 12q-1 7 -4 13q-2 1 -3.5 5.5t-4.5 10.5q-2 1 -4 4q-2 12 -8 16z" />
    <glyph glyph-name="K" unicode="K" horiz-adv-x="498" 
d="M128 246q3 1 6 4v12l-4 4v109l4 4l-6 4v36q-61 2 -71 8q-2 5 -2 11t2 9l24 12h133l5 -3l3 -5l1 -10l-1 -10q-4 -4 -28 -4.5t-32 -7.5v-205h4q11 8 24 24l4 12q11 9 24 28q6 5 8 12q6 5 8 12q5 4 8 12q6 3 12 4l9 8q1 6 8 12q1 9 4 17l4 4q3 8 16 16q3 9 16 20q2 7 16 20
q-1 6 -3 12h-33l-5 3q-4 5 -4 17q0 6 1 8l8 4h100q5 -3 40 -4q13 0 17 -4l1 -6l-1 -6l-16 -16h-12q-3 2 -4 4h-6q-39 0 -55 -20q-2 -9 -8 -12q0 -2 -11 -16.5t-13 -15.5q-2 -5 -6.5 -10.5t-5.5 -9.5q-6 -5 -10.5 -8.5t-5.5 -8.5q-7 -6 -16 -20l-21 -20q-1 -6 -4 -12l-4 -4
l4 -4q3 -6 4.5 -10.5t4.5 -5.5q1 -6 4 -12l4 -4q1 -6 8 -12q1 -5 4 -8l12 -8q1 -5 3.5 -7.5t4.5 -5.5q0 -8 16 -24l4 -12q2 -1 4 -4l4 -12q2 -1 4 -4l4 -12q2 -3 4 -4q1 -8 8 -20q1 -8 8 -20l5.5 -11t8 -12.5t6.5 -13.5q8 -9 16 -12h13q2 1 4 4h44l8 -4q2 -5 2 -12
q0 -12 -25 -13q30 1 -29 1l-4 -4h-101l-8 4q-1 3 -9 14q0 1 9 10q18 1 44 8l1 8q0 9 -5 12q-1 5 -4.5 8t-7.5 13q-2 1 -8 20q-7 6 -16 20l-4 4q-3 6 -4 12q-6 5 -8 12l-4 4q-3 7 -4 16l-4 4q-3 7 -4 16q-5 4 -8 12l-5 5q-1 6 -4 12l-4 4l4 4l-16 16h-12q-3 -8 -16 -20
q-2 -8 -8 -12q-9 -10 -20 -29q-7 -6 -16 -20q-3 -2 -4 -4v-117l3 -2q17 -1 46 -2q8 -1 11 -4v-24l-8 -4q-124 -4 -137 -4h-20v28l3 3q11 4 33 6q28 1 35 3v206z" />
    <glyph glyph-name="L" unicode="L" horiz-adv-x="504" 
d="M69 20q0 21 35 21q20 0 31 -5h4q10 6 34 8v85l4 2l2 2v24l-4 4v37q4 2 4 6v2l-6 4v80l-6 4l4 4v29l-4 4v32l4 4v36l-4 4q2 1 4 4l-2 8q-91 0 -99 4l-1 10l1 15l8 8q4 1 8 4q31 0 93 2t93 2h4q14 -8 40 -4q5 -4 8 -8l1 -11l-1 -10q-2 -4 -8 -8q-24 -4 -18 -4h-2
q-8 4 -18 4q-11 0 -32.5 -2t-30.5 -2v-56l4 -4v-53l-4 -4v-20l3 -2l3 -2v-238h184q4 2 8 8v13q-5 3 -5 12q0 5 1 8l6 4v64q3 1 6 4q3 13 4 28q5 3 16 9h4q5 -2 8 -5v-169q-6 -3 -16 -12h-53l-4 4h-9q-13 0 -39.5 -4t-39.5 -4q-24 0 -72.5 -1.5t-72.5 -1.5h-53q-20 7 -24 15z
" />
    <glyph glyph-name="M" unicode="M" 
d="M44 7q0 6 5 9q3 8 4 16q8 -1 18 -1q21 0 34 9l-4 4v33l4 4q1 2 1 8q0 5 -1 8l-4 4l4 4l1 4l-1 4l-4 4v16q2 3 4 4l-4 4v8l4 4q-2 1 -4 4v16l4 4l1 4l-1 4l-4 4q3 2 4 4l1 4l-1 4l-4 4q3 2 4 4.5t1 8.5q0 5 -1 7.5t-4 4.5l4 4v187q-3 0 -15.5 -1.5t-19.5 -1.5
q-26 0 -26 17q0 13 17 20q8 0 22.5 2t20.5 2q3 0 5 -4q30 0 53 -4l8 -8q1 -7 4 -20q2 -3 4 -4q2 -9 8 -12q1 -9 4 -28q2 -3 4 -4q1 -8 4 -25q6 -3 8 -16q2 -1 4 -4q2 -9 4 -28q6 -3 8 -20q2 -3 4 -4q3 -9 4 -24q2 -3 4 -4q3 -8 4 -20l4 -4q3 -6 4 -13l4 -4q3 -9 4 -24h4l9 8
q2 15 4 19l12 14q3 13 4 32q4 2 5.5 11.5t6.5 12.5q1 3 4.5 8t3.5 6q0 4 -4 6q0 -2 4 4q1 8 8 20q2 9 10 12v45l4 2l2 2q1 7 4 20q6 3 8 12q6 5 8 12l4 4v8l-4 4q12 9 73 9q-9 0 28 -1l8 -4l1 -8l-1 -12l-8 -8h-9q-5 0 -13.5 2t-12.5 2h-1l-17 -16v-4q2 -3 5 -4q1 -9 4 -28
l4 -4v-25l-4 -4l-1 -4l1 -4l4 -4v-20q-2 -2 -5 -6v-8q1 -2 5 -6v-12q-2 -3 -4 -4v-36l4 -4v-21l-4 -4l6 -4v-165q7 -4 54 -5v-31h-133v28q6 0 46 4v137q7 3 7 6q0 1 -5 6q5 4 5 6q0 1 -5 6l4 4l-4 4v4l4 4q3 9 4 25l4 4l1 4l-1 4l-4 4q-1 6 -4 12l-4 4v8l4 4q3 6 4 12
q2 2 5 6v8q-1 2 -5 6q-1 14 -4 24l-4 4v4l4 4q1 2 1 7q0 4 -1 6l-4 4v8l4 4q-2 1 -4 4v12l4 4q3 8 4 20q5 5 5 6t-4.5 6t-10.5 5l-6 -1q-1 -14 -4 -24q-2 -3 -4 -4q-1 -11 -4 -20q-2 -3 -4 -4q-1 -8 -8 -20q-1 -12 -4 -21q-2 -1 -4 -4q-1 -6 -4 -12q-2 -1 -4 -4
q-1 -7 -4 -20q-5 -6 -14 -8v-32l-8 -4v-36l-6 -4q-3 -10 -4 -25q-6 -3 -8 -16l-4 -4q-1 -7 -4 -20q-5 -3 -16 -8h-2q-11 0 -27 8q-2 9 -8 12q-1 11 -4 20q-2 3 -4 4q-2 19 -4 29q-2 1 -3.5 5.5t-4.5 10.5q-1 1 -8 20q-2 1 -8 20q-2 1 -4 4q-1 8 -4 24q-2 3 -4 4q-1 8 -4 24
q-2 3 -4 4q-3 6 -4 12q-2 3 -4 4q-3 9 -4 21q-1 2 -4 4l4 4l-4 4q-3 6 -4 12q-4 2 -5.5 8.5t-2.5 11.5q-14 -2 -12 -8l4 -4v-8l-4 -4l-1 -8l1 -8l4 -4l-4 -4l-1 -4q0 -5 5 -9v-28l-4 -4v-28l4 -4v-4l-4 -4l-1 -8l1 -8l4 -4v-4l-4 -4v-41q2 -1 4 -4v-16l-4 -4l6 -4v-149
q18 0 51 -5l3 -3l1 -8l-1 -8q-6 -8 -16 -12h-117l-16 4z" />
    <glyph glyph-name="N" unicode="N" 
d="M60 22l1 10q5 4 30 7l33 5v170q3 1 6 4v4l-4 4v193l3 5l5 3l6 1l6 -1q1 -16 4 -28q2 -3 4 -4v-8l-5 -8q0 -5 5 -8v-16l-4 -4v-182q4 -2 4 -6v-2l-4 -4l-1 -6q0 -2 5 -10v-8l-5 -8q0 -5 5 -8v-12q-2 -3 -4 -4l-1 -8l1 -8l4 -4v-2q0 -4 -4 -6q6 -5 8 -33h52l5 -3l3 -5l1 -8
l-1 -8q-14 -13 -52 -8l-4 -4l-24 -1q-35 -1 -77 9zM286 168l1 9q5 9 10 9q3 0 10 -9l4 -12q2 -1 4 -4l4 -12q2 -1 4 -4l4 -12q2 -3 4 -4q1 -7 4 -20q2 -3 4 -4q4 -16 12 -16h3q2 3 1 8q-2 1 -4 4v8q3 3 6 4v77q7 1 14 3q3 4 4 8q1 1 2 1l2 -1q3 -8 4 -16q5 -4 5 -7l-5 -5
v-12l4 -4q1 -2 1 -8q0 -9 -5 -12v-12l4 -4l1 -4l-1 -4l-4 -4l4 -4v-41l-4 -4l4 -4v-36l-3 -4l-5 -4h-20q-1 2 -16 12q-1 8 -8 20q-1 8 -8 20l-4 13q-2 1 -4 4l-4 12q-2 1 -8 20q-6 3 -8 16q-2 1 -4 4q-3 9 -4 20q-2 3 -4 4zM139 459h39q5 -3 12 -24q2 -1 8 -20q6 -3 8 -16
q2 -3 4 -4q3 -9 4 -20q2 -3 4 -4q3 -6 4 -12l4 -4q3 -6 4 -12q6 -5 8 -25l4 -4q3 -6 4 -12l4 -4l5 -12l4 -4q1 -11 4 -20l4 -4q1 -6 4 -12l4 -4q1 -11 4 -20q2 -3 4 -4v-12q-4 -4 -8 -13h-4q-3 4 -4 8q-6 5 -8 25q-4 6 -13 16q-2 21 -2 23q-3 7 -14 17q-2 9 -8 12
q-1 11 -4 20l-4 4q-2 8 -8 12q-5 12 -12 33q-4 2 -8 12q-2 1 -4 4q-1 8 -4 24l-4 4q-1 8 -8 20l-4 8q-6 3 -12 4q-9 6 -11 20zM364 214l-1 4l-4 4q-1 6 -4 12q-2 1 -4 4v24q5 3 5 8q0 3 -2.5 5.5t-2.5 4.5q0 4 4 6v36l-4 4v8q5 8 5 9l-1 4l-4 4l4 4l-4 4v20q5 3 5 10
q0 2 -5 10q-3 13 -4 28q-21 8 -52 4q-3 10 -8 16l-1 2q0 5 9 10q7 1 27 5q17 4 27 4q16 0 48 -4.5t47 -4.5h3q6 0 6 -12l-1 -8q-4 -4 -16 -8q-45 0 -53 -4v-125l4 -4l-4 -4v-4l4 -4l1 -4l-1 -4l-6 -4v-48l-6 -4q-2 -14 -12 -21l-5 -1l1 6l4 4zM53 443q4 6 8 8q17 5 30 5
q15 0 22 -5q3 -5 4 -12l5 -4l-9 -4h-52q-4 3 -8 8v4z" />
    <glyph glyph-name="O" unicode="O" 
d="M70 173l4 4l-4 5v80l4 4q-4 3 -4 6q0 4 4 6q1 8 8 20q3 8 4 17q2 1 4 4q2 9 4 28q2 1 4 4q3 9 4 20q2 3 4 4q3 7 4 16q5 4 8 12q5 4 8 12q13 14 41 37q6 1 12 4q1 2 4 4l36 12q3 2 4 4q8 1 16 4h2q8 0 21 -2q17 -2 22 -2q16 -7 36 -20q5 -3 20 -8l33 -33q3 -8 8 -12
q2 -16 4 -19q6 -7 12 -13q1 -6 4 -12l3 -2l3 -2v-36q5 -1 8 -10t6 -11v-116q-7 -3 -12 -9l-1 -3q0 -6 5 -9l-4 -4l4 -4v-8q-6 -3 -8 -20l-4 -4q-1 -5 -4 -16l-14.5 -14.5t-9.5 -17.5q-4 -6 -13 -17q-2 -13 -20 -24l-6 1l-6 -1l-12 -12l-12 -4q-3 -2 -4 -4q-21 -8 -55 -8
q-3 0 -42 11t-44 13q-14 14 -33 28q-1 6 -4 13l-4 4q-3 8 -16 16q-1 4 -4 8q-2 1 -4 4q-2 18 -4 28q-2 3 -4 4q-2 13 -8 16q-1 7 -4 20zM118 194l4 -4q3 -9 4 -21q3 -1 5 -4q2 -9 4 -28l4 -4q2 -16 16 -28q3 -15 24 -32l4 -8q50 -21 56 -21h29q13 4 40 16l4 5q6 2 17 6
q13 9 15 18l4 4q1 7 4 20q11 10 12 13q2 7 5 15l4 4q2 14 8 20q1 16 4 25q4 2 12 8q1 7 4 20q2 1 4 4v8q-6 3 -8 12q-4 3 -4 6q0 4 4 6v12q-2 3 -4 4q-1 9 -4 28q-7 9 -8 17l-4 4q-3 6 -4 12l-4 4q-2 9 -4.5 17t-12.5 15l4 4l-20 20q-1 8 -15 17q-20 29 -70 29q9 0 -28 -1
q-15 -7 -40 -16q-11 -9 -12 -17q-7 -6 -16 -24l-4 -4q-3 -6 -4 -12l-4 -4q-3 -6 -4 -12q-5 -4 -8 -12q-4 -4 -13 -12v-129zM405 182l-3 2l-1 -2l1 -2z" />
    <glyph glyph-name="P" unicode="P" 
d="M54 28q2 3 4.5 5.5t3.5 6.5q26 1 79 8v141q3 1 6 4v8q-3 3 -6 5v217l-10 6q-5 0 -28 -2q-16 -1 -26 1q-13 2 -23 11l-1 8l1 8q11 8 16 8h77q3 0 12 -4h2q22 0 67 4.5t67 4.5q1 0 33.5 -8t35.5 -9q13 -13 41 -36l3 -6l7 -4h3q2 0 7 -18l4 -4q1 -6 16 -20q1 -5 4 -16l4 -4
v-61l-4 -4q-1 -5 -4 -16q-13 -15 -27 -30q-9 -10 -34 -18q-2 -12 -20 -21q-15 0 -36 -3q-28 -4 -36 -5l-103 2v-70q-3 -1 -6 -4v-2q0 -4 4 -6v-8q-4 -6 -4 -7v-1q6 -3 12 -4q-3 -2 -4 -4q-1 -8 -4 -25q-1 -2 -4 -4q31 -8 77 -8q8 -3 16 -12v-16q-19 -12 -49 -12h-157
q-9 6 -16 16v8zM183 230q4 -5 44 -5h33q119 0 124 49q1 2 13 12q1 11 4 20l4 4v37l-6 4v36l-6 4l-5 8q-7 2 -20 8q-6 12 -32 16q-3 2 -4 4q-13 0 -42 2t-44 2h-47q-7 -2 -12 -8h-2q-4 0 -6 4l-8 1q1 -14 3.5 -20t12.5 -13l-4 -4q3 -2 8 -16l4 -4q-3 -2 -4 -4v-8l4 -4v-33
l-6 -4v-36l-3 -1l-3 -3v-20q2 -3 4 -4v-12q-2 -3 -4 -4v-8z" />
    <glyph glyph-name="Q" unicode="Q" 
d="M278 -74v79l-6 1q-5 -2 -8 -4.5t-4 -6.5h-2q-57 0 -91 11q-3 2 -4 4q-11 4 -36.5 24t-32.5 28q-2 9 -8 17q-1 6 -4 12q-2 1 -3.5 5.5t-4.5 10.5q-2 1 -4 4q-2 9 -4 28q-2 1 -4 4q-1 7 -4 20l-4 4v117l4 4q1 8 4 24q2 3 4 4q1 8 4 24q2 3 4 4q3 6 4 13q6 3 8 20q6 4 8 12
q7 6 16 20q6 4 8 12q33 24 49 31q23 10 57 10q33 0 49 -8q22 -10 43 -21l5 -7q20 -14 23 -25q2 -3 4 -4q3 -4 4 -8q5 -4 8 -12l4 -4q3 -6 4 -12l4 -4q2 -10 4 -29l4 -4q2 -8 2 -16h-6q-4 3 -8 4l-4 4q-6 1 -12 0q-4 10 -8 12q-2 13 -8 16q-1 7 -4 13q-6 3 -8 16
q-24 21 -48 44q-8 -1 -20.5 1.5t-18.5 2.5h-6q-1 -2 -4 -4q-15 -4 -31 -9q-21 -7 -25 -15q-13 -7 -20 -12q-3 -6 -4 -12q-16 -18 -16 -25h-4l-13 5h-4q-1 -10 -8 -23q-10 -15 -12 -22l-4 -4q-2 -8 -8 -12l4 -4l1 -4l-1 -4l-2 -2l-4 -2v-40l-6 -4l6 -4v-33l6 -4q2 -9 4 -28
q2 -1 4 -4q3 -9 4 -20q2 -3 4 -4q3 -6 4 -12l4 -4q3 -6 5 -10.5t9 -6.5q6 0 11 5q1 6 4 12l4 4q1 6 4 12q34 35 74 33l26 -1q29 -12 49 -32l4 -12q2 -3 4 -4q1 -11 4 -20q2 -3 4 -4q1 -5 3 -7t4 -2q3 3 5 9q7 6 16 24q6 3 8 16q5 3 8 20q2 3 4.5 5.5t4.5 6t5 4.5v77l6 4l1 4
l-1 4l-4 4v8l4 4q1 5 4 16l6 1q9 0 15 -5v-4l-4 -4q-1 -5 -1 -14q0 -15 13 -26v-4q-3 -3 -6 -4v-53l-6 -4l-5 -12h-1q-3 0 -5 2l-2 2l-4 -1v-27l4 -4l-14 -8v-44l-6 -5v-4q5 -5 5 -6q-13 0 -21 -6q-7 -12 -24 -24q-1 -7 -4 -20l-4 -4v-11l3 -3l3 -1v-61q7 -5 10 -16
q4 -5 9.5 -7t18.5 -5q9 -5 12 -16h4q3 6 4 12l4 4q1 7 4 20q4 3 13 8q1 6 4 13l4 4q1 9 4 16l4 4q1 6 4 12q16 4 18 4h2q5 -4 16 -16v-12q-2 -3 -4 -4q-1 -6 -4 -17q-6 -3 -8 -20q-6 -4 -8 -12q-7 -6 -16 -20q-36 -8 -63 -8q-30 0 -54 16q-2 5 -4 16q-2 3 -4.5 5.5t-4.5 6
t-5 4.5zM158 56l1 -6q32 -16 56 -16h12q29 0 49 16v45q-7 6 -8 12l-17 16l-12 4q-2 4 -6 4q-6 0 -26 -8q-4 -7 -18 -14t-22 -6q-3 -4 -4 -8l-4 -4q-2 -6 -2 -12h14q-7 -5 -8 -13l-4 -4zM179 111l-2 2l-2 -2q0 -2 2 -4zM123 357l-3 2l-2 -2l2 -2zM143 393v-4h4v4h-4zM340 38
l-2 -2l-2 2l2 2q2 0 2 -2v0zM123 332l-3 -3q-1 1 -2 3l2 2z" />
    <glyph glyph-name="R" unicode="R" 
d="M45 24l1 10q8 8 27 10q14 1 36 0q27 -2 28 -2l2 8l-4 4l-1 6l1 6l4 4l-4 5v128q2 3 4 4v9l-6 4v205l-79 8q-4 2 -8 8v8q4 6 8 8q9 1 28 4q3 2 4 4l31 1q14 0 39 -2.5t37 -2.5q13 0 39 2.5t39 2.5q77 0 118 -41v-12l-5 -6v-2q12 -1 21 -4q2 -7 8 -12q1 -6 8 -12
q1 -6 4 -12l4 -4v-61q-6 -6 -8 -20q-2 -3 -4 -4q-3 -4 -4 -8q-6 -5 -8 -12q-26 -27 -54 -37q-23 -8 -66 -10q1 8 3 15q2 4 8 8q21 0 49 18.5t31 37.5l4 4q3 7 4 16q2 3 5 4v41q-3 1 -5 4q-2 12 -4 20l-4 4q0 7 -4 20l-12 4q-1 2 -4 4l-12 4q-3 5 -20 12.5t-24 7.5h-86
q-26 0 -44 -5l-3 -3v-28l4 -4l-4 -4v-105l4 -4v-4l-4 -4v-32l8 -4q76 0 93 -4v-16q-4 -6 -8 -9h-100q-2 -1 -1 -4q3 -1 6 -4v-161h70l5 -3l3 -5l1 -4l-1 -4q-7 -9 -16 -12l-165 -4q-8 0 -16 8zM344 50q2 3 4 4l1 8q0 4 -9 29q-4 2 -4 6l4 6v8q-1 1 -8 20q-2 1 -4 4
q-1 7 -4 20q-2 3 -4 4q-3 12 -32 28l4 4q2 9 9 9q5 0 7 -1l4 -4q6 -2 17 -5q6 -4 7 -11q11 -9 24 -28l4 -4q3 -6 4 -12l4 -4l1 -12l-1 -12l-4 -4v-4l4 -4q2 -9 4 -29l4 -4l-4 -4v-4q5 -4 8 -8q25 -4 19 -4q4 0 12 2t12 2h2q25 -12 25 -24l-1 -8q-16 -4 -24 -4h-61q-4 1 -8 4
q-2 9 -8 12q-2 13 -8 16v8z" />
    <glyph glyph-name="S" unicode="S" 
d="M83 52q2 3 4 4q1 6 4 17q2 1 4 4q1 8 4 24q3 3 6 4v89l10 4h12q10 -8 12 -17q3 -1 5 -4l-5 -4l7 -4v-36q3 -1 6 -4q2 -7 16 -20q2 -9 16.5 -21.5t23.5 -14.5q3 -2 4 -5q9 -2 32 -12h4q67 0 105 21l4 16q7 6 8 12q3 1 5 4q2 8 8 12v56l-4 4q-3 7 -4 13q-10 11 -32 28
q-16 8 -47 10q-34 1 -47 6q-27 10 -64 16q-3 2 -4 4q-16 2 -16 12l-21 20q-1 6 -4 13l-4 4q-1 11 -4 20l-4 4v48q5 3 8 24l4 4q3 7 4 13q5 4 13 12q1 6 4 12q41 41 100 41q24 0 49 -9l4 -4q18 -3 21.5 -15.5t14.5 -12.5q8 -5 7 -5q3 0 5 9l4 4q1 7 4 20q14 9 23 9l6 -1
q2 -5 8 -12v-32q-5 -4 -8 -12q-3 -3 -6 -4v-77q-5 -5 -18 -12h-6q-13 0 -17 4v36q-3 1 -6 4q-1 11 -4 20q-2 3 -4 4q0 8 -7 14t-13 11q-44 16 -58 16q-23 0 -67 -16q-10 -8 -12 -17q-6 -3 -8 -16q-2 -1 -4 -4v-68q7 -6 16 -20q30 -15 56 -25q22 0 63 -6q52 -8 58 -18l21 -12
q2 -7 24 -28q1 -7 4 -20q2 -3 4 -4q1 -7 4 -13l4 -4v-68q-3 -7 -12 -16q-1 -6 -4 -17q-14 -9 -32 -28q-13 -4 -21 -8q-1 -2 -4 -4q-6 -1 -12 -4q-7 -12 -54 -12q-12 0 -33 4q-24 3 -34 4l-4 4q-6 3 -10.5 4.5t-5.5 3.5q-14 4 -14 10q0 10 -14 10q-9 8 -12 16l-8 5h-5
q-6 -2 -10 -5v-32q-3 -1 -5 -4.5t-5 -7.5q-8 -5 -24 -12h-4q-2 17 -8 20v20z" />
    <glyph glyph-name="T" unicode="T" 
d="M122 21l8 4h103v291l6 4l1 3q0 1 -5 9v8q5 3 5 8l-1 4l-4 4v44q5 3 5 10l-1 6l-4 4v5l4 4v5l-1 6l-11 1q-14 0 -52 -3q-33 -2 -53 -1l-8 -4q-1 -3 -4.5 -8t-3.5 -7q0 -1 2.5 -4.5t2.5 -7.5t-2.5 -7t-2.5 -5v-2l4 -4v-28l-4 -4v-12l4 -6q0 -4 -4 -6v-12q2 -3 4 -4l1 -13
l-1 -12q-2 -1 -4 -4q-3 -9 -4 -20h-4q-10 5 -16 12v150q9 6 24 20h117q9 0 26.5 -2.5t23.5 -2.5l-1 -3q-3 -3 -6 -4v-190l-6 -4l-1 -4l1 -4l4 -4v-8l-4 -4l-1 -4l1 -4l6 -4v-49q3 -1 6 -4v-8l-4 -4v-113q45 -6 71 -5l-3 -7q-8 -8 -161 -8q3 0 -45 4zM376 25q4 0 9 -4l-9 -8
h-28q8 9 16 12h12zM395 324l-6 4l4 4v107h-39l2 6q4 3 8 4h37q6 0 16 -4v-33h-10q-2 -1 -2 -4q6 -1 12 -4q3 -8 4 -16h-14l-1 -4q6 -3 11 -4q6 -4 10 -8v-93l6 -4q-6 -5 -8 -12h-20q-3 0 -10 4v57zM308 445q4 1 8 4h4q2 0 8 -2t8 -2q4 -3 8 -4q-4 -3 -8 -4h-4q-14 0 -24 8z
" />
    <glyph glyph-name="U" unicode="U" 
d="M150 70l1 5l4 4v4l-4 4q-3 6 -4 12q-3 2 -4 4v294l4 4v4l-4 4q-1 2 -1 8t1 8l4 4l-1 4l-6 1q-7 0 -20.5 -2.5t-19.5 -2.5h-6l-8 4l16 4h125q-8 -6 -52 -8v-371q6 -5 12 -12q2 -7 10.5 -12.5t9.5 -7.5q24 -12 31 -12h54q16 0 48 32q1 5 4 16l6 4v129l8 4v109q6 5 12 5
q2 0 2 -1l5 -1l3 -3v-76l-4 -4l4 -4l-4 -4q5 -3 5 -10v-4q-2 -5 -5 -7l4 -4l-4 -4l4 -4v-108q-2 -1 -16 -21.5t-16 -23.5l-48 -24h-77q-3 0 -24 8q-3 3 -20 14q-12 7 -16 18q-5 4 -8 12l-4 4zM360 337q4 1 8 4h4l8 -4l1 -3v-7l-1 -3l-8 -4h-4l-8 9v8zM360 369q5 3 5 12l-1 8
l-4 4v4l4 4l1 8l-1 8l-4 4v4q4 5 9.5 7.5t12.5 3.5q0 -6 -2 -19l-4 -4l4 -4l1 -4v-12l-1 -4l-4 -4l4 -4v-28l-3 -2l-5 -2q-1 -1 -2 -1q-3 0 -10 9v12zM304 437l2 1q6 -2 10 -5h-12v4z" />
    <glyph glyph-name="V" unicode="V" horiz-adv-x="499" 
d="M201 62v33l-8 4v40q-9 6 -14 12q-5 16 -4 32l-6 4v41l-8 4v32l-3 2l-3 2q-1 8 -4 24q-3 3 -6 4v32l-6 4q-3 7 -4 16l-4 4q-3 9 -4 21q-3 3 -6 4v36l-6 4q-3 6 -4 20q-22 4 -61 4l-8 8l-1 8l1 8l3 3l7 2q1 0 6 -5h4l4 8q18 9 50 9q73 0 91 -13l1 -5l-1 -7l-8 -8
q-15 -2 -44 -8v-44q3 -2 4 -4q2 -14 8 -20l-4 -4l-1 -5q0 -2 15 -16v-36l8 -4v-36l4 -1l2 -3q1 -9 4 -28q2 -3 4 -4q1 -7 4 -21q3 -3 6 -4v-32l6 -4q1 -8 4 -24q3 -3 6 -4v-36l6 -4q2 -8 4 -20l4 -4q3 -12 4 -25h5l10 4v33l8 4v32l8 4v32q3 1 6 4q1 8 4 24q2 3 4 4
q1 15 4 25q5 5 12 8q1 15 4 28q2 1 4 4v20l-4 4l4 4q1 5 4 16q3 3 6 4v57l8 4v32l4 2l2 2q3 6 4 12q2 1 4 4v5q0 -2 -1 15h-51l-8 4q-1 2 -1 10q0 10 1 14l3 5q6 4 10 4q5 0 14.5 -2.5t14.5 -2.5h2q8 4 12 4h93q7 0 16 -8l1 -9l-1 -11q-2 -4 -8 -8q-24 -4 -18 -4q-4 0 -12 2
t-12 2q-19 0 -29 -12v-40l-8 -4v-45l-6 -4q-1 -9 -4 -16q-2 -1 -4 -4q-1 -11 -4 -20l-4 -4l4 -4l1 -4q0 -5 -5 -8q-1 -3 -4.5 -8t-3.5 -6q0 -2 2.5 -4.5t2.5 -6.5l-1 -3q-7 -5 -20 -16v-2q0 -4 4 -6v-25q-2 -1 -4 -4q-2 -9 -4 -28l-2 -2l-4 -2v-40l-8 -4v-49l-6 -4
q1 -21 -4.5 -31t-23.5 -25l-13 -1q-26 -2 -40 17q-1 9 -4 28z" />
    <glyph glyph-name="W" unicode="W" horiz-adv-x="499" 
d="M301 63v33l-8 4v36l-8 4v36q-3 1 -6 4q-1 10 -4 29l-6 4v36q-3 1 -6 4q-1 9 -4 28q-2 3 -4 4q-1 5 -4 16q-1 1 -5 1h-5q-9 -4 -12 -9v-40l-6 -4q-1 -8 -4 -24q-3 -3 -6 -4v-41l-8 -4v-60l-8 -4v-32l-7 -4v-9q3 -1 5 -4q-3 -1 -5 -4q-1 -15 -4 -24l-4 -4q-1 -6 -4 -12h-44
q-2 1 -18 12v32q-7 3 -7 8l1 5l4 4l-6 4v60l-6 4q2 1 4 4v8q-3 3 -6 4v69l-8 4v60l-6 4l4 5v20q-3 3 -6 4v44l-9 4v57q-18 2 -51 10l-3 2v20q16 8 24 8h61q44 0 56 -16q2 -6 3 -12q-59 0 -63 -4l-1 -4l1 -4l3 -2l3 -2v-41l6 -4v-16q-5 -3 -5 -12l1 -8l6 -4v-65l8 -4v-64
l8 -4v-53l8 -4v-44h22q1 15 4 28q2 3 4 4q1 9 4 28l6 4v33l8 4v36q4 1 7 4q1 9 4 28l6 4v33l6 4q1 15 4 24l4 4q3 11 12 16l10 1q12 0 36 -17v-36l8 -4v-45l4 -1q4 -4 6 -11l4 -4q1 -9 4 -28l4 -4q1 -12 9 -29q2 -12 4 -20l6 -4v-36q3 -1 6 -4q1 -6 4 -12l4 -4l-4 -4h14v64
l8 4v69l6 4l-4 4l6 4v36l8 4v73q3 1 6 4v4l-4 4l6 4v45h1q5 0 5 4q0 1 -2 23q-41 -3 -34 -3q-12 0 -17 10v5q0 6 1 9q16 8 24 8h61q8 0 24.5 -2t23.5 -2q2 -9 8 -12v-8l-3 -2q-29 -9 -49 -6q-4 -9 -9 -12v-85q5 -5 5 -6q0 -2 -5 -6q-1 -6 -4 -12l-6 -4v-61l-6 -4q5 -4 5 -6
q0 -1 -3 -4l-4 -2v-44l-8 -4v-121l-6 -5l4 -4v-2l-4 -6q-1 -11 -4 -20q-2 -1 -4 -4q-2 -13 -12 -20h-2q-18 0 -42 12q-3 4 -4 8l-4 4q-1 7 -5 20zM243 310v0v1q0 1 -2 1t-2 -2l1 -2z" />
    <glyph glyph-name="X" unicode="X" 
d="M49 9l-8 8l-1 8l1 8l4 5q11 8 65 11l8 8q1 9 4 17l4 4q3 8 8 12q0 8 16 24q1 5 4 16q2 1 4 4q1 11 4 20q2 3 4 4q2 13 8 16q4 10 8 12l4 12q2 3 4.5 5.5t3.5 7.5l8 8q7 1 12 4l1 7l-1 9l-4 4q-1 4 -4 8q-2 1 -3.5 5.5t-4.5 9.5t-8 13q-2 1 -4 4q-1 7 -4 20q-2 3 -4 4
q-3 9 -11.5 17t-8.5 15q-2 3 -4 4q-1 6 -4 17q-7 6 -16 24q-6 5 -8 12l-4 4q-2 5 -4 16q-4 5 -8 8l-61 8l-8 8l-1 6l1 6q4 7 16 12h125q10 -8 12 -16l12 -12q-2 -1 -44 -12l-1 -7l1 -9q2 -3 4 -4q1 -6 5 -12t11 -8q1 -15 4 -28q2 -3 4 -4l4 -13q7 -6 16 -20q7 -6 8 -12
q6 -5 8 -12q4 -1 8 -4h4q3 6 4 12q2 3 5 4q1 6 4 12l4 4q1 6 8 12q1 9 4 17l4 4q3 8 8 12q1 6 4 12l4 4q1 4 4 8q1 1 8 20q2 1 4 4v16q-15 1 -36 8q-2 6 -2 10q0 7 2 10q8 8 26 10q12 1 32 0l26 -2q10 5 22 5q17 0 43 -13l4 -7l8 -5h20q-9 -13 -38 -13h-43q-7 -1 -12 -3
q-7 -5 -13 -15q-13 -9 -19 -17v-8l4 -4l-3 -5l-5 -3q1 0 -19 3q-1 -6 -1 -11q2 -3 4 -4q2 -13 8 -16v-9l-12 -12q-1 -8 -4 -24q-6 -3 -8 -12l-4 -4q-2 -5 -4 -16q-2 -3 -4 -4q-3 -4 -4 -8l-4 -4q-1 -5 -4 -16q-4 -2 -12 -8l-1 -4l1 -4q9 -5 28 -21q1 -6 4 -12q2 -1 4 -4
q1 -6 4 -12q1 -1 12.5 -16t12.5 -16t3 -4l4 -12q2 -3 4 -4q2 -5 8 -12q2 -5 8 -12q1 -8 8 -20q3 -6 4 -13q7 -6 8 -12q4 -2 25 -12h12q5 9 18 9l6 -1l15 -15q3 -5 5 -20q-17 0 -51 -2.5t-51 -2.5q-12 0 -35 2t-32 2l-5 4q-2 2 -4 6v8l4 7q2 1 41 11l1 6q0 7 -4 11.5t-5 11.5
q-6 3 -8 16q-6 4 -8 12l-4 4q-3 6 -4 12l-4 4q-3 6 -4 12q-6 5 -8 12q-6 5 -8 12q-1 1 -8 11t-10 10q-6 0 -11 -5q-1 -9 -4 -16l-12 -12q-1 -5 -24 -28q-1 -8 -8 -20l-4 -12q-2 -3 -4 -4q-1 -8 -4 -25q-2 -1 -4 -4v-12q15 -1 28 -4q6 -4 11.5 -8t5.5 -11l-1 -9l-3 -4l-5 -4
q-10 0 -32 -2t-34 -2q-15 0 -43 2t-40 2z" />
    <glyph glyph-name="Y" unicode="Y" 
d="M120 32q0 7 2 10l8 4h92v145l-4 4q-1 5 -4 9q-2 1 -4 4q-2 12 -4 20q-2 1 -3.5 5.5t-4.5 10.5q-2 1 -4 4q-1 9 -4 28q-2 3 -4 4l-4 12q-2 3 -4 4q-3 6 -4 12q-2 3 -4 4q-3 8 -4 17q-6 3 -8 24q-6 4 -8 12l-4 4q-3 10 -4 28q-2 3 -4 4q-3 7 -4 16l-4 4q-3 9 -4 20
q-3 1 -7 1q-7 0 -10 -5h-52v25q51 8 89 8h60l8 -4v-25q-5 -2 -44 -8v-32l4 -4q1 -7 4 -20q2 -3 4 -4q2 -5 8 -12q1 -8 8 -20q3 -8 4 -17q6 -3 8 -24q6 -3 8 -20q2 -1 4 -4q3 -9 4 -20l4 -4q1 -7 4 -20q4 -4 10 -4h2l5 16l4 4q1 9 4 16l4 4q2 14 8 20q2 13 8 16q2 17 8 25
q2 9 4 28q2 1 3.5 5.5t4.5 10.5q2 1 4 4q1 7 4 20q2 3 4 4q1 8 8 20v8l-3 3q-27 7 -41 9l-8 4q-1 3 -1 9q0 5 1 8q20 8 51 8h9q3 -2 4 -4q6 -1 26 -1q28 0 39 5h20q10 -4 16 -8l1 -8l-1 -9q-8 -11 -35 -13q-41 -3 -42 -3q-1 -8 -4 -16l-4 -4q-1 -6 -4 -12q-2 -1 -4 -4
q-1 -14 -4 -24q-2 -3 -4 -4q-1 -8 -8 -20q-1 -7 -4 -21q-2 -1 -8 -20q-2 -1 -8 -20q-6 -3 -8 -20l-4 -4q-3 -9 -4 -20q-2 -3 -4 -4q-1 -8 -8 -20q-3 -6 -4 -12l-12 -13v-96l4 -4l-4 -4v-37q4 0 25.5 1.5t34.5 1.5q41 0 44 -15l4 -4l1 -4l-1 -4q-12 -16 -63 -16h-174l-5 3
q-5 6 -5 19z" />
    <glyph glyph-name="Z" unicode="Z" horiz-adv-x="504" 
d="M80 16q0 4 4 6q3 6 4 12q2 3 4 4q18 29 24 33q3 6 4 12q7 6 8 12q6 5 8 12l21 20q1 6 4 12l4 4q2 11 16 24l4 12l4 5q9 9 20 28q6 3 8 12q10 8 28 24q3 9 4 20q7 9 21 24q1 6 4 13l4 4q3 8 8 12q3 8 8 12q1 4 4 8t8 12q3 2 6 8t5.5 9.5t8.5 10.5q2 5 8 12q2 5 8 12
q3 8 4 17q2 1 4 4l-8 4q-32 -1 -26 -1q-11 0 -32.5 2.5t-32.5 2.5q-18 0 -49 -3q-37 -4 -49 -5l-8 -4v-41q2 -1 4 -4v-16q-3 -2 -4 -4l-1 -4l1 -4l4 -4v-4q-3 -3 -6 -4v-32q-9 -4 -27 -13h-4l-8 4v89l4 4l1 10l-1 10q-2 3 -4 4v21q2 1 4 4l4 12q28 16 75 16q10 0 29 -2
t29 -2q17 0 51.5 2t51.5 2q49 0 59 -8l1 -14l-1 -14q-7 -6 -16 -21q-7 -6 -8 -12q-4 -6 -13 -16q-2 -7 -8 -12q-2 -6 -24 -28q-1 -8 -8 -20q-1 -8 -15 -16l-5 -9q-6 -4 -8 -12q-6 -4 -8 -12q-6 -5 -8 -12l-12 -12q-3 -6 -4 -12q-6 -5 -8 -12l-21 -20q-1 -6 -4 -12l-4 -4
q-1 -5 -3.5 -7.5t-4.5 -5.5q-1 -6 -4 -12q-1 -1 -8 -12q-3 -4 -8 -12q-2 -1 -5 -8q-2 -3 -23 -24q-3 -6 -4.5 -10.5t-3.5 -5.5q-3 -4 -4 -8q-5 -4 -8 -12l-4 -4l-1 -11l1 -10q9 0 30 -2t33 -2h158q1 10 9 25l-4 4l-1 4l1 4l4 4v24l-4 4l-1 4l1 4l4 4v8l-4 4l6 4v45
q3 1 5 5.5t5 10.5l8 8h12q10 -5 16 -12v-17q-1 -2 -4 -4l4 -4l-6 -4v-105l-8 -4v-40q-21 -12 -51 -12h-262q-12 0 -24 8v2z" />
    <glyph glyph-name="underscore" unicode="_" horiz-adv-x="499" 
d="M13 -68v28l4 4l4 13l8 4h2q4 0 11 -2t11 -2h150q6 0 18.5 -2.5t19.5 -2.5q8 0 24 2.5t24 2.5q11 0 32.5 -2t32.5 -2q6 0 19 2t19 2h85l8 -8v-41l-4 -4q-5 -18 -25 -18q-5 0 -16 1t-16 1q-22 0 -66.5 2t-67.5 2h-205q-7 0 -23 -2t-24 -2q-13 0 -15.5 4.5t-5.5 15.5z" />
    <glyph glyph-name="grave" unicode="`" horiz-adv-x="165" 
d="M0 726q2 1 4 4l4 12q6 3 8 12h24q-1 -4 -5 -8t-8 -4l3 -1q13 0 18 9h20q4 0 25 -12q1 -6 24 -28q1 -7 4 -13l36 -24q1 -5 4 -16q2 -1 4 -4v-16q-6 -3 -8 -12q-4 -5 -8 -8l-10 -1q-13 0 -50 29q-2 5 -6 8t-11 4q-1 2 -16 12q-1 6 -4 12l-3 3q-6 2 -17 5q-13 8 -32 25v12z
" />
    <glyph glyph-name="a" unicode="a" 
d="M75 68v65l4 4q4 13 21.5 29.5t30.5 18.5q53 6 158 21l4 4q18 3 28 12v44q-21 33 -86 33q-72 0 -72 -15q0 2 5 -6v-20q-2 -3 -4 -4q-3 -4 -4 -8q-12 -9 -26 -9l-11 1q-1 2 -16 12q-1 4 -4 8q-2 1 -4 4v16q2 3 4 4q3 6 4 12q5 4 8 12q22 11 77 29q1 2 4 4h5q22 0 56 -7
q43 -8 56 -9q11 -9 21 -18q13 -12 15 -23q3 -3 6 -4v-32l6 -4q-2 -1 -4 -4v-8q2 -3 4 -4v-33l-4 -4l4 -4v-32l-4 -4v-36l4 -4l1 -6q0 -7 -5 -10v-8q2 -3 4 -4q3 -12 4 -25q8 -1 16 -4l7 1l6 -1q9 -3 12 -8h4l14 9q10 0 18 -13q-6 -5 -8 -12l-8 -8h-53l-4 4q-6 3 -12 4
q-1 1 -9.5 7t-10.5 17q-2 3 -4 4q-1 5 -4 16l-6 2l-6 -2l-20 -20q-6 -1 -12 -4l-4 -4q-10 -7 -45 -20q-2 -1 -4 -4q-7 -1 -29 -5q-17 -3 -29 -3q-33 0 -50 7q-21 8 -41 33l-4 12zM107 125v-40q5 -10 24 -25q61 -12 59 -12q20 0 75 24q1 3 4 5q13 6 24 24q11 5 28 20v56l-3 3
q-4 1 -7 1q-24 0 -73.5 -9.5t-74.5 -9.5q-4 0 -32 -13q-1 -2 -16 -12q-2 -7 -8 -12z" />
    <glyph glyph-name="b" unicode="b" 
d="M147 26l1 6l4 4l-4 4l4 4v57l-4 4l4 4v24q-2 3 -4 4l-1 10l1 10q2 3 4 4v20l-4 5l6 4v54l14 -2q2 -4 6 -4h2q7 15 18 18q4 2 26 3q0 -10 -10 -11h-3q-2 0 -7 -18q-3 -2 -8 -4h-4l-4 8l-4 -2v-30l4 -4v-41l-4 -4l4 -4l-4 -4l4 -4v-8l-4 -4q6 -1 12 -4q1 -2 12 -16.5
t12 -15.5q3 -6 4 -12l4 -4l4 -13q6 -1 12 -4l4 -4q7 -3 33 -16q15 -2 46 -4q-3 -8 -15 -15q-16 -10 -19 -13h-28l-4 4q-6 3 -13 4q-11 7 -40 32l-4 12q-2 3 -4 4l-4 13l-8 4l-3 -1l-1 -7l4 -4v-53q-2 -5 -8 -8h-12q-9 2 -16 12zM380 73v40l6 4l-4 4l-1 4l1 4l4 4v81
q-14 10 -16 32q-5 6 -13 12q-2 13 -30 26q-24 11 -40 11q-11 0 -55 -17h-4q-8 3 -16 4v8q15 13 32 29q26 8 33 8h44q4 0 24 -8q6 -6 25 -16l8 -9q1 -6 4 -12q2 -2 6 -4v-32q3 -1 6 -4q1 -8 8 -20q2 -14 16 -24v-77l-4 -4q-1 -7 -4 -20q-2 -3 -4 -4q-3 -6 -4.5 -10.5
t-3.5 -5.5q-3 -6 -4 -13l-8 -8q-7 -1 -12 -4q-3 -6 -4 -16q-3 -2 -9 -12q-13 -9 -38 -10q0 7 2 14q10 6 24 24q7 7 15 14t16 7zM152 262v65l-4 4l-1 4l5 8v12q-5 5 -5 12l1 8l4 4l-4 4l-1 10l1 10l4 4l-4 4q1 3 4 5v4q-4 1 -8 4q-12 1 -21 4l-4 4h-4q-19 -9 -26 -9h-4
q-2 1 -6 4l-4 5l-1 6l1 6q3 4 8 8q24 4 18 4q4 0 7 -3.5t7 -4.5h4q3 2 12 12q11 4 17 4h20q8 0 16 -16v-45l-4 -4v-8q1 -2 4 -4v-64l-6 -4v-53q-4 -4 -10 -8h-20zM164 323v-4h4v4h-4z" />
    <glyph glyph-name="c" unicode="c" horiz-adv-x="498" 
d="M109 113v36l-6 4l4 4l-4 4v16q2 3 4 4q1 8 4 24q2 3 4 4q1 8 4 25q6 4 8 12q6 4 8 12q14 6 16 20q11 5 24 16l21 12q1 2 4 4l12 4q12 13 21 13q57 0 75 -9q3 -3 5.5 -7t6.5 -5l14 1q11 0 23 -9q2 -8 8 -12q2 -7 16 -20v-16q-2 -3 -4 -4q-1 -8 -8 -20l-4 -9l-16 -8h-12
q-4 4 -25 17v32q7 2 13 8v6q0 14 -9 14h-68q-29 0 -36 -12q-6 -3 -10.5 -4.5t-5.5 -3.5q-14 -8 -21 -16q-1 -6 -8 -12q-1 -6 -8 -12q-1 -5 -3.5 -7.5t-4.5 -5.5q-1 -15 -4 -24q-1 -2 -4 -4v-32l6 -4v-36l4 -1l2 -3q3 -6 4 -12q7 -6 16 -20q32 -41 97 -41h4q12 8 40 20
q8 7 25 21q3 8 8 12q3 8 8 12q-5 5 -5 6q0 10 17 14h12q4 -1 8 -4v-20q-2 -3 -4 -4q-3 -12 -4 -25q-24 -21 -48 -44l-21 -12q-4 -8 -40 -8l-4 -4h-52q-3 0 -15 6.5t-13 9.5q-14 6 -45 32q-2 11 -16 24l-4 13q-2 1 -4 4q-1 7 -4 20l-2 3z" />
    <glyph glyph-name="d" unicode="d" 
d="M83 123v81l4 4q3 12 4 26h14v34q4 2 6.5 5t3.5 7q6 5 8 13q42 32 59 32q10 0 29 -4t28.5 -5t36 -20t33.5 -28h4v167l-24 -1h-46q-7 0 -15 4l-1 10l1 10q25 8 57 8h28l4 -4l13 1l7 -1q3 -4 4 -16q3 -3 6 -4v-190l6 -4l1 -4l-1 -4l-4 -4v-8l4 -4l1 -4l-1 -4l-4 -4v-8l4 -4
l1 -4l-1 -4l-4 -4v-65q5 -4 5 -6q0 -1 -5 -6v-4l4 -4q-2 -1 -4 -4v-8l4 -4q1 -4 1 -12q0 -10 -1 -12.5t-4 -4.5l8 -8h53l8 -4l1 -8l-1 -12q-12 -16 -33 -16q-55 0 -68 16v36q4 3 4 5v0h-1q-5 3 -11 4l-4 -13q-2 -1 -4 -4l-2 -9q-16 -11 -34 -27q-20 -12 -54 -12q-12 0 -31 4
q-24 5 -28 12q-4 2 -21 8q-1 6 -8 12q-1 6 -8 12q-1 8 -8 13q-1 4 -4 8q-2 1 -4 4q-1 8 -4 24q-2 1 -3.5 5.5t-4.5 10.5zM113 135l6 -4q3 -9 4 -24l4 -4q3 -6 4 -12q2 -2 13 -12q1 -6 4 -12l16 -17q12 -2 16 -8h44q16 0 32 15q13 13 25 26q1 6 4 12q2 1 3.5 5.5t4.5 10.5
q3 2 6 8t5.5 9t8.5 11v73l-4 4q-1 5 -40 44q-1 7 -4 12q-11 5 -25 16q-17 5 -34 5q-38 0 -67 -33q-3 -8 -8 -12q-2 -12 -8 -16q-2 -9 -8 -12q-1 -9 -4 -28l-4 -4l6 -4v-49z" />
    <glyph glyph-name="e" unicode="e" horiz-adv-x="498" 
d="M98 135l3 3l3 1v76q4 3 14.5 20t11.5 21q7 6 16 20q17 17 37 28q9 17 60 17q49 0 56 -13q13 -2 16 -8l13 -4q1 -2 4 -4l12 -4l8 -8q2 -11 16 -24q2 -8 8 -12q2 -8 8 -12q1 -6 8 -12v-66q-5 0 -16.5 2.5t-15.5 2.5h-53q-3 0 -10 -2t-10 -2h-149v-32l4 -4q3 -7 4 -16l4 -4
q3 -6 4 -12q6 -6 16 -21q12 -7 33 -24q48 -8 42 -8q42 0 62 20q10 5 29 12q2 8 8 13q1 4 4 8h28q4 -2 8 -8v-8q-7 -9 -8 -17q-6 -4 -8 -12q-29 -17 -59 -34q-27 -13 -72 -13q-4 0 -6 4q-7 1 -20 3q-3 2 -4 4q-12 4 -37 12q-2 4 -24 16q-4 11 -5 13t-11 11q-1 4 -8 13
q-1 6 -4 12q-1 1 -8 12q-2 1 -4 4q-1 7 -4 20q-2 1 -4 4v12zM292 183q13 0 35.5 2t32.5 2v16q-2 3 -4 4q-3 6 -4 13q-7 6 -8 12q-13 14 -41 40q-6 1 -12 4q-7 12 -38 12q-7 0 -58 -16l-2 -6q-6 -2 -18 -18l-13 -12q-2 -10 -16 -16l-8 -9l4 -4l1 -4q0 -5 -5 -8l8 -8h125
q3 0 10 -2t11 -2z" />
    <glyph glyph-name="f" unicode="f" 
d="M120 5l-8 8l-1 12l1 8l8 6h85q4 1 8 6v16q-5 8 -5 10q0 7 5 11l-4 4v32l4 4l-4 4v44q2 1 4 4v12q-2 3 -4 4v57l4 4l-4 4q-3 10 -4 24l-8 4h-61q-17 6 -17 18l1 6q4 4 8 4h36q3 0 20 -8h2q-5 0 19 4l4 12l4 4v28l-4 4l-1 10l1 10l4 4q-5 3 -5 10l1 7l4 4q1 6 4 12
q9 12 32 32q6 1 12 4q1 2 4 4q32 8 51 8q18 0 41.5 -8t32.5 -20q3 -9 4 -20h14l-2 -4l-12 -4q0 -6 4 -11v-1v-1q1 5 4 9h4q8 -3 16 -4v-3q0 3 -8 -22q-8 -9 -16 -12h-14q-16 0 -19 2l-3 2q-3 6 -4 12l-4 4l-1 4l1 4l4 4q1 9 4 17l4 4q-24 12 -41 12h-44q-8 0 -32 -12
q-2 -5 -6.5 -13t-5.5 -24q-6 -3 -8 -16l-4 -4l1 -4h13v-47l6 -1q24 8 59 8q24 0 29 -4q2 -3 2 -10q0 -6 -2 -10q-16 -9 -30 -9q-4 0 -13 6.5t-13 6.5q5 0 -36 -3v-138l4 -4v-24q-2 -3 -4 -4v-8q2 -3 4 -4v-24l-1 -3l-3 -2v-32l16 -8h2q8 0 24.5 2t24.5 2q30 0 42 -8v-20
q0 -12 -77 -12q-26 0 -77 2t-76 2z" />
    <glyph glyph-name="g" unicode="g" 
d="M121 -96q-11 9 -32 28q-2 9 -10 12v37q-3 1 -6 4v2q0 -6 8 13q6 3 8 16q2 3 4 4q3 12 4 28q7 2 12 8l1 10l-1 11q-2 1 -4 4q-1 15 -4 24q-4 2 -4 6v2q3 3 6 4v32q4 2 6.5 5t3.5 7l4 4v33l-4 4v44q6 5 9.5 11t3.5 7q0 2 -5 6v12l4 4q3 6 4 12q3 2 9 13q6 1 12 4q1 4 4 8
q4 1 8 4q9 2 28 4q1 1 20 12h6q11 0 33 -6.5t26 -13.5l6 -1l6 1q3 5 20 12h4q4 -9 6 -9t11.5 10t10.5 15h10q61 0 83 -32v-49q-5 -6 -24 -16h-2q-2 0 -18 4q-6 3 -8 8v40l4 5q-16 8 -40 8q-16 0 -37 -8q-3 -4 -4 -9q-4 -2 -4 -6v-2q14 -6 16 -20q1 -2 4 -4l-4 -4v-28l4 -4
q1 -5 4 -16l4 -4q-3 -2 -4 -4q-1 -8 -4 -25l-12 -12q-2 -11 -9 -16q-10 -7 -11 -8q-37 -20 -57 -20h-36q-9 0 -28 10.5t-23 10.5q-3 0 -5 -1l-5 -12l-4 -4v-28l4 -4l-4 -4q4 -3 6 -11l3 -13l3 -2q10 -3 8 -3l1 1q8 3 12 8q65 8 56 8h85q12 -6 32 -8q8 -4 17.5 -9t10.5 -12
q14 -2 21 -8q3 -8 8 -12q2 -12 8 -16v-55q-5 -4 -8 -12l-4 -4q-3 -8 -4 -17q-5 -7 -17 -20q-9 -2 -41 -16q-27 -12 -47 -12h-77q-29 0 -81 20zM105 -31l4 -4q3 -6 5.5 -11.5t14.5 -17.5q25 -6 51.5 -13t49.5 -7q80 0 137 33q3 3 4 8q5 4 5 7l-5 5v8l4 4q1 2 1 8t-1 8l-4 3
q-2 19 -12 30q-7 6 -28 18q-2 3 -4 4q-52 9 -74 9h-33q-18 0 -53.5 -12.5t-45.5 -24.5q-1 -4 -3.5 -6.5t-4.5 -5.5q-1 -14 -4 -23q-2 -3 -4 -4v-8q2 -3 4 -4zM144 202l6 -4q1 -6 4 -13l4 -4q2 -6 9 -11q10 -8 11 -9q6 -1 12 -4l4 -4h36q2 0 15.5 4t17.5 4l32 33v84l-12 4
q-7 7 -27.5 16t-31.5 9h-16q-17 0 -30 -5q-41 -41 -41 -43l5 -5l-4 -4l-1 -4l1 -4l6 -4v-36z" />
    <glyph glyph-name="h" unicode="h" 
d="M65 35q5 -1 16 -14h4q7 4 14.5 8.5t5.5 11.5h29v137l-4 4l6 5v92q3 1 6 4v16l-3 4h-3v117h-63q-1 6 -8 12q2 1 8 21l8 8h28q9 0 28.5 -5t28.5 -5v-27l-4 -4v-52q4 -2 4 -6q0 -2 -2 -4t-2 -4v-2l4 -4v-41l-4 -4v-32l4 -4l-4 -4v-4l4 -4q1 -4 4 -8h4q4 15 24 26.5t36 11.5
q-2 -20 -18.5 -32t-17.5 -18l-12 -12q-3 -6 -4.5 -10.5t-3.5 -5.5q-3 -6 -4.5 -10.5t-3.5 -5.5v-153q43 3 35 3q17 0 25 -8q2 -5 2 -13q0 -6 -2 -11l-8 -4q-52 -1 -92 -4q-4 0 -15 -3.5t-14 -3.5h-20q-8 2 -16 11v30zM274 23q0 18 21 14q9 4 42 3v183l6 4l4 8h4q6 -2 16 -8
q3 -6 4 -20l4 -4v-29l-4 -4v-4l4 -4q1 -3 1 -12t-1 -12l-4 -4v-8q2 -2 5 -6v-8q-1 -2 -5 -6v-61q27 -6 61 -8l5 -3l3 -5l1 -11l-1 -9l-8 -4h-149l-5 3q-4 5 -4 15zM250 291q-1 6 -8 12v4l8 9h7q8 -1 22 4l4 4q4 1 8 4h2q30 0 66 -37q3 -6 4 -12l4 -4l1 -4v-12q0 -4 -4 -8
l-5 -4h-5q-11 0 -15 4q-13 32 -30 38q-7 2 -59 2z" />
    <glyph glyph-name="i" unicode="i" 
d="M67 20q4 3 5 9q3 10 3 11q5 5 14 5q13 0 40.5 -4.5t41.5 -4.5h45l10 4v33l4 2q3 3 3 4q0 3 -5 6v189l4 4v3q0 1 -4 1q-7 0 -22 -2t-22 -2h-93l-8 4v29l8 4h117q9 0 25.5 -2t23.5 -2l8 -4v-250q-3 -2 -4 -5v-7l1 -8h17q11 -1 17 -1q12 0 39 2.5t41 2.5l34 -1l5 -3l3 -5
l1 -12l-1 -12q-6 -11 -23 -11h-312q-3 17 -16 23zM188 424q2 1 8 20q12 16 24 16h29q4 -1 8 -4q2 -14 8 -20q1 -10 8 -24v-13q-8 -7 -24 -16h-29q-6 2 -24 16l-4 13q-2 1 -4 4v8z" />
    <glyph glyph-name="j" unicode="j" 
d="M111 -47l4 4q2 9 4 28q2 3 4.5 5.5t3.5 6.5q14 3 31 3h5q9 -2 17 -11v-40q-4 -5 -21 -16v-8q9 -6 25 -21q17 -8 24 -8h36q31 0 56 24l5 13l4 4q1 15 4 24l4 4v2q0 -1 -4 6v31q2 1 4 4v16q-2 3 -4 4v218q2 1 4 4v20q-2 3 -4 4q-3 6 -4 12h-93l-4 -4h-45q-4 2 -8 8v21l8 8
h142q3 0 32 -4q4 -3 8 -4v-2q0 -3 -2 -5t-2 -4t2 -4t2 -4l-4 -6v-52l4 -4v-73l-4 -4v-2q0 -3 4 -6v-76l-4 -4l4 -4q-3 -2 -4 -4l-1 -9l1 -8q1 -2 4 -4l-4 -4v-39l4 -4v-56l-4 -4q-3 -6 -4 -13q-6 -4 -8 -12q-7 -6 -8 -12q-7 -4 -16 -12q-43 -20 -71 -20q-23 0 -71 12
q-14 11 -32 28q-1 6 -16 20q-1 10 -4 29q-1 2 -4 4zM272 440l8 8q6 1 11 5t14 7h20q13 -5 32 -20q1 -7 4 -21q1 -2 4 -4q-7 -6 -8 -12q-18 -18 -42 -17l-19 1l-16 16q-2 13 -8 16v21z" />
    <glyph glyph-name="k" unicode="k" 
d="M53 15v32h79v222l6 4l-6 4v60l-6 4l4 4v89h-4q-4 0 -10.5 -2t-10.5 -2h-44q-1 6 -4 12l-4 4l8 12q4 3 8 4h69q7 4 14 4h2q3 -9 8 -12v-28l-4 -4l-1 -6l1 -6l4 -4v-105l-4 -4v-2l4 -6v-8l-4 -6v-2l4 -4v-36l-4 -4l6 -4v-56l6 -1l24 12q4 10 47 49q41 36 54 44q7 2 20 8
l1 6l-1 6q-5 5 -17 5q-4 0 -13 -1t-13 -1q-12 0 -18 5v8q0 12 9 12q20 0 59.5 4t59.5 4q33 0 51 -5l3 -3v-28h-69q-3 -1 -28 -24q-21 -16 -42 -31q-35 -26 -35 -33l7 -6q3 -5 10 -15l12 -12q2 -7 16 -20q2 -9 8 -12q1 -5 24 -28q3 -6 4.5 -10.5t3.5 -5.5q2 -5 8 -12
q3 -4 4 -9q10 -12 32 -28h69l5 -3l3 -5v-16q-6 -3 -8 -12h-109q-45 0 -69 5l-3 3q-1 2 -1 8t1 8l3 3q21 6 57 9l8 4l-12 12q-5 6 -16 21q-2 14 -16 20q-3 3 -4 8q-7 6 -8 12q-11 9 -24 28q-7 12 -25 32h-4q-8 -6 -24 -16l-3 -7q-16 -8 -37 -25q-2 -5 -8 -12v-73q20 -2 57 -9
l3 -3v-20q-10 -9 -85 -9h-51l-29 1z" />
    <glyph glyph-name="l" unicode="l" 
d="M92 20l1 12q7 13 38 13q24 0 35 -5h84v101l-4 4l4 4v41l-4 4l4 4q3 9 4 20q2 3 4 4l-12 12l4 4l-4 4v24l4 4v33q-2 1 -4 4v12l4 4v88l-8 5h-44q-3 0 -10 -2.5t-10 -2.5h-61q-6 3 -16 13v20q6 3 8 12q4 1 8 4h2q4 0 12 -2t12 -2q5 0 15.5 2t15.5 2h101q7 -2 16 -12v-61
l-4 -4v-28l4 -4l-4 -4l4 -4v-101l-12 -8l4 -4q-5 -4 -5 -6q0 -1 5 -6q2 -7 8 -12l-4 -4v-49l4 -4l-4 -4v-97l8 -8h4q17 0 50.5 2t50.5 2h4q8 -3 12 -8h28v-28l-32 -8h-94q-9 0 -27 2t-27 2q-2 0 -7 -2t-7 -2h-52q-5 0 -15.5 2t-15.5 2q-2 0 -7 -2t-6 -2h-53l-5 3l-3 5z" />
    <glyph glyph-name="m" unicode="m" horiz-adv-x="503" 
d="M51 11l-1 10l1 10q3 7 8 10h44v244h-36q-2 13 -8 16v8q8 8 56 8q13 0 21 -12l-4 -4v-33q5 -3 12 -3q3 9 16 20q3 18 26.5 33.5t43.5 15.5q2 0 2 -1l25 -12q1 -6 4 -12l4 -4q1 -15 4 -24l4 -4l-4 -4v-6l1 -5l3 -1q4 1 8 4q2 8 8 12q2 8 8 12q2 9 36 40q11 4 18 4
q39 0 61 -28v-165l6 -4l-4 -4v-90q12 1 28 1q12 0 16 -4l1 -6l-1 -6q-6 -8 -16 -12h-28l-4 -4l-21 -1q-31 -1 -48 5q-2 4 -8 12q6 4 8 12q17 1 44 8q1 4 1 12q0 12 -2 15l-3 2l4 4q1 2 1 8q0 5 -1 7.5t-4 4.5l4 4l1 4l-1 4l-4 4v8l4 4q-2 1 -4 4v12q5 5 5 6q0 2 -5 6v8l4 4
v81l-4 4l4 4l1 4l-1 4l-4 4v4q5 4 5 7l-5 5q-1 6 -4 12l-3 3q-3 1 -15 1h-10q-7 -2 -20.5 -15.5t-15.5 -20.5l-12 -12q-3 -6 -4.5 -10.5t-3.5 -5.5q-3 -6 -4 -12l-4 -4q-3 -8 -4 -17q-3 -3 -6 -4v-36l-3 -1q-4 -4 -4 -5q0 -2 5 -6v-60l-4 -4l-1 -2q0 -1 5 -6v-29
q-5 -5 -5 -6l1 -2q14 -1 41 -5l3 -3v-24h-93q-5 0 -16 8l-1 6l1 6q14 10 36 12l8 4l1 4l-1 4l-4 4v8l4 4q-1 3 -4 5v4q2 2 5 6v4q0 4 -1 6l-4 4v16q4 6 4 4t-4 4v12q2 2 5 6v8q-1 2 -5 6v61l4 4v52l-4 4q-3 15 -12 20h-28q-17 -14 -36 -40l-12 -12q-1 -8 -8 -20
q-3 -8 -4 -17l-4 -4q-3 -6 -4 -12l-4 -4l-1 -4l1 -4l4 -4v-8l-4 -4l4 -4v-4q-5 -5 -5 -6q0 -2 5 -6v-8l-4 -4q-1 -2 -1 -8t1 -8l4 -4l-4 -4l4 -4l-4 -4v-45q5 -3 8 -11q12 -7 36 -9v-24q-12 0 -39.5 -2t-41.5 -2h-36q-4 1 -8 4z" />
    <glyph glyph-name="n" unicode="n" 
d="M68 34l8 8q15 5 59 3l2 21l-4 5l4 4v24q-2 3 -4 4v64q1 2 4 4v8l-4 4q-1 2 -1 8t1 8.5t4 4.5v32l-4 4l4 4v40q-13 9 -53 4l-8 8l-1 10q0 23 48 23q-5 0 30 -4q6 -5 16 -17v-8l-12 -12q2 -1 4 -4q1 -11 4 -20l4 -4l-4 -4h4q8 4 24 20l4 8q13 8 17.5 17t18.5 11q3 3 37 17
h16q45 0 56 -13q21 -9 24 -28q3 -3 6 -4v-36l6 -4l-4 -4v-49q2 -2 5 -6v-4q0 -7 -5 -10v-56q5 -3 5 -6q0 -2 -5 -6v-53h61l5 -3l3 -5l1 -10l-1 -10q-5 -6 -16 -12h-4q-23 0 -68.5 2t-68.5 2l-5 4q-2 2 -4 6v8l4 7l5 3l9 1q13 0 23 -5h4l16 8v222q-13 25 -40 25q-23 0 -45 -9
q-2 -3 -24 -16q-14 -12 -32 -28q-2 -5 -6.5 -11.5t-6 -11t-3.5 -5.5q-3 -4 -5 -7.5t-5 -4.5v-33l-3 -1q-4 -4 -4 -5q0 -3 5 -6v-40q-4 -3 -4 -6q0 -4 4 -6v-12l-4 -4l4 -4l-4 -4l4 -4q-3 -2 -4 -4l-1 -12l1 -9l8 -4h44q11 -3 16 -12l1 -6l-1 -6l-3 -4l-5 -4q-16 -1 -54 -4
q-34 -4 -53 -4q-6 0 -18 2t-16 2l-7 5q-3 4 -9 11v8z" />
    <glyph glyph-name="o" unicode="o" 
d="M112 72v33q-7 5 -10 16q-1 2 -4 4v48l4 4q1 9 4 28q2 3 4 4q5 14 12 33q6 3 8 16q6 4 8 12q6 5 8 12q14 9 24 20q41 20 57 20h60q15 0 38 -15q28 -18 35 -21q2 -7 8 -12q1 -6 16 -20q2 -8 8 -12q1 -7 4 -21l3 -2l3 -2v-36l6 -4v-40l-6 -4v-32q-8 -2 -10 -12q-2 -3 -4 -4
q-5 -9 -12 -29q-6 -4 -8 -12q-12 -8 -37 -24q-5 -9 -38 -17q-29 -6 -46 -6q-8 0 -22 3q-17 3 -21 4.5t-5 3.5q-10 4 -29 12q-11 12 -48 40q-2 9 -10 12zM144 109l4 -1l2 -3q3 -6 4 -12q5 -4 9.5 -10.5t6.5 -14.5q3 -3 37 -20l4 -4q11 -4 16 -4h52q10 0 24 4q1 5 24 20
q3 6 13 17q6 1 12 4q1 4 4 8l6 4v40l6 4v44q-5 3 -5 6q0 1 5 6v4l-12 12q-1 7 -4 21q-16 12 -41 36q-33 12 -32 12h-44q-18 0 -73 -44q-1 -6 -4 -13l-4 -4q-1 -4 -4 -8l-6 -4v-32l-6 -4v-24l6 -4v-36z" />
    <glyph glyph-name="p" unicode="p" 
d="M90 -111v28l3 2q8 3 22 3q8 0 27 -3t29 -2l12 1v87l-4 4l4 4v40l-4 4l4 4v41l-4 4l-1 4l1 4l4 4l-4 4v52q3 2 4 4v13q-1 2 -4 4v32l4 4l-4 4l-1 12l1 12l4 4v32l-3 3q-7 2 -25 1q-11 5 -16 5l-1 -1q-6 -1 -12 -4h-28l-8 4l-1 13l1 12q8 8 16 8h103v-65q7 -3 14 -4
q3 6 4 12q2 3 4.5 5.5t3.5 6.5l4 4l20 25q40 24 71 24h14q25 -9 36 -17q14 -12 29 -24q3 -8 8 -12q1 -4 3.5 -6.5t4.5 -5.5q1 -6 4 -12q2 -1 4 -4q2 -11 4 -16l3 -2l3 -2v-32l6 -4v-77l-4 -4q-1 -7 -4 -20q-2 -3 -4 -4q-3 -6 -4.5 -10.5t-3.5 -5.5q-3 -6 -4.5 -10.5
t-3.5 -5.5q-3 -4 -4 -9l-12 -8q-3 -3 -4 -8q-10 -5 -29 -16q-1 -2 -4 -4q-29 -8 -38 -8q-24 0 -45.5 12t-41.5 24q-4 5 -6.5 9t-5.5 8q-2 1 -3.5 5.5t-4.5 10.5l-6 1q-6 0 -6 -1q0 3 4 -4v-17q-2 -1 -4 -4v-12q2 -1 4 -4v-16l-4 -4l4 -4l-4 -4l4 -4l-4 -4v-55l4 -4v-9
q-2 -1 -4 -4v-8q4 -6 8 -10h85q4 -4 8 -10v-12q-9 -10 -16 -12h-45q-7 0 -20.5 2t-20.5 2q-11 0 -33.5 -2t-33.5 -2h-45zM217 138q7 -3 14 -8q3 -4 4 -8l4 -4q3 -9 4 -20q2 -3 4 -4q3 -4 4 -8q13 -8 16 -16q12 -5 37 -17l4 -4h2q46 0 82 37l5 12l4 4q1 10 8 24q1 11 4 20
l4 4v4q-5 4 -5 6q0 3 5 6v8l-5 8q0 5 5 9l-4 4q-2 9 -4 28l-4 4q-3 10 -4 24l-4 4q-2 7 -17 24q-1 5 -4 8q-15 10 -28 12q-2 3 -5 4t-9 1h-26q-15 0 -28 -13q-5 -2 -13 -8q-3 -9 -16 -20q-3 -7 -32 -36q-1 -9 -4 -28l-4 -4l4 -4v-9q-4 -2 -4 -6v-2l6 -4v-32z" />
    <glyph glyph-name="q" unicode="q" horiz-adv-x="506" 
d="M320 79l-4 1q-6 -9 -16 -20q-3 -4 -4 -9q-14 -11 -27 -21q-20 -15 -30 -15h-68q-26 26 -49 36l-8 9q-1 6 -4 12q-1 1 -8 12q-2 1 -4 4q-1 8 -4 24l-4 4v97l4 4q3 6 4 12q2 3 4 4q1 7 4 20q2 3 4 4q3 6 4 12q2 3 4 4q3 6 4 13q4 3 8 8q20 11 39.5 22t52.5 11t74 -41l4 -13
l16 -16l6 2v59q4 4 10 8h12q6 -4 8 -8v-117l-4 -4v-4q3 -3 6 -4v-278q8 -5 20 -5q3 0 10 1h10q23 0 39 -16q-6 -5 -8 -12h-174v20l3 2q26 2 66 6v172zM122 128l4 -4q2 -10 4 -28q2 -3 4 -4q3 -4 4 -8q5 -4 18 -19q8 -11 31 -22h44l16 4q8 5 21 17q5 2 12 8q3 8 8 12
q1 6 4 12l4 4q2 7 8 12q2 9 8 12q2 7 8 12v81q-12 8 -36 32q-3 6 -4 12q-7 6 -12 8q-5 6 -18.5 12.5t-18.5 12.5h-28l-16 -4q-11 -7 -21 -13q-13 -10 -15 -20q-4 -3 -13 -12q-2 -7 -8 -12q-1 -6 -4 -12l-4 -4v-89z" />
    <glyph glyph-name="r" unicode="r" horiz-adv-x="504" 
d="M83 31q2 3 4 4l4 8l4 3q2 1 81 1v238h-69q-8 3 -16 12l-1 13l1 12q4 3 8 4h36q2 -1 6.5 -5t7.5 -4q17 0 23 9h36q3 -9 8 -12v-13l-4 -4v-28q3 -4 8 -8h4q12 10 28 32q8 6 13 8q17 25 44 25h44q7 0 25.5 -5.5t23.5 -6.5q5 -4 16 -13q2 -5 4 -12q2 -1 4 -4q2 -9 4 -28
q2 -1 4 -4v-8l-4 -4q-11 -33 -38 -33l-10 1q-6 4 -17 12q-1 8 -4 24l-4 4v4l4 4q2 16 16 16q5 4 9 8q-13 9 -33 9q-24 0 -41 -8t-35 -17q-2 -9 -16 -16q-4 -9 -17 -16q-2 -7 -8 -12q-1 -6 -8 -12q-2 -9 -10 -12v-138q-3 -1 -6 -4v-4l8 -4h53q4 0 11 2t11 2h2q5 -4 16 -12
v-16q-3 -2 -8 -11l-8 -5h-206q-2 9 -8 12v12z" />
    <glyph glyph-name="s" unicode="s" 
d="M137 51l-2 -1q-1 -12 -2.5 -16t-9.5 -12l-10 -1l-10 1q-2 9 -8 12v20q2 3 4 4q1 6 4 17l4 4v36l-4 4v42q24 -1 38 -14v-36l6 -4q13 -35 41 -40q1 -3 4 -5q31 -12 48 -12h53q13 0 37.5 7t30.5 14q5 2 13 8q3 8 8 12l-4 4l-1 4l1 4l4 4l-4 4l-1 4l1 4l4 4l-4 4q-3 6 -4 12
q-26 31 -101 33q-88 3 -109 14q-10 8 -29 22q-3 8 -8 12q-1 8 -8 20v8q2 3 4 4l-4 4l4 4l-4 4v8q2 3 4 4q3 8 4 17q10 7 25 24l12 4q5 8 25 11q24 4 27 5h69q24 0 56 -16q6 -4 14 -8q6 0 11 4q1 6 4 12l3 3q3 1 11 1t11 -1l3 -3v-88q-13 1 -20.5 4t-11.5 15l-25 25
q-7 1 -20 4l-4 4q-8 1 -27.5 4.5t-30.5 3.5q9 0 -75 -8l-4 -4q-6 -3 -12 -4q-3 -6 -4 -13l-4 -4v-36q11 -17 28 -20l4 -4q74 -1 102 -5q56 -8 96 -32q3 -8 8 -12q1 -4 4 -8q1 0 8 -20l4 -4v-36q-14 -10 -16 -33q-6 -4 -8 -12q-54 -36 -123 -36q-51 0 -115 32q-3 3 -13 8
q-1 1 -2 1z" />
    <glyph glyph-name="t" unicode="t" 
d="M196 80v97l4 4l-4 4v32l4 4v65l-8 4h-6q-10 0 -31 -4.5t-31 -4.5q-19 0 -25 9v32q7 10 16 12h6q8 0 25 -4t26 -4l28 1v51l-4 4v77q2 3 4.5 5.5t3.5 6.5l14 1q23 2 26 -13l4 -4l1 -4l-1 -4l-6 -4v-61l-6 -4v-48q12 0 43 -4q28 -4 40 -4h2l20 8h6q18 0 47 -4v-28
q-6 -13 -25 -13q-17 0 -52 2.5t-52 2.5t-29 -4v-122q5 -5 5 -6q0 -2 -5 -6v-64q6 -4 8 -16q7 -8 15 -15q3 -4 18 -10h13q8 0 39 8l4 4q8 3 20 9q1 9 4 28q6 5 8 12q3 1 5 4q2 11 7 16t11 5q11 0 30 -13l1 -8l-1 -8q-7 -6 -16 -20q-5 -4 -8 -12q-11 -10 -24 -29
q-8 -4 -21 -16q-1 -4 -4 -8q-14 -12 -54 -12q-46 0 -79 40l-4 12l-4 5l-4 12z" />
    <glyph glyph-name="u" unicode="u" 
d="M133 58v230h-63v33q33 4 32 4h53q4 -4 8 -9q1 -6 4 -12q4 -2 4 -6l-4 -6v-32l4 -4v-8q-2 -3 -4 -4l-1 -12l1 -12l4 -4l-4 -4q3 -2 4 -4v-13l-4 -4v-52l4 -4l-4 -4l4 -4l-4 -4v-48l4 -5q1 -6 4 -12l8 -8q31 -8 34 -8q37 0 83 37q2 6 16 20l4 12q2 1 4 4l4 12q6 7 12 12
v149q-7 5 -44 4q-18 7 -18 17q0 5 2 12q4 0 13.5 2t14.5 2q40 0 64 -9l1 -4l-1 -4l-4 -4v-4l4 -4l1 -4l-1 -4l-4 -4v-12q3 -3 6 -4v-222h63v-28l-3 -2q-12 -6 -60 -6q-14 0 -32 8v63l-6 2l-8 -8q-3 -13 -23 -28t-21 -17q-20 -5 -24 -12q-16 -11 -49 -9l-20 1q-13 6 -25 12
q-15 9 -19 20q-5 4 -8 12q-3 3 -6 4z" />
    <glyph glyph-name="v" unicode="v" 
d="M120 293q-48 0 -52 4q-1 8 -8 25v8q4 1 8 4h12q19 -9 22 -9q2 0 2 1q16 2 21 8q5 0 21 2q13 2 21 2q-8 0 34 -4q5 -2 16 -8l1 -6l-1 -7q-9 -11 -23.5 -13t-28.5 -3l-1 -12l1 -12q2 -1 4 -4q2 -13 8 -16q1 -7 4 -20q2 -3 4 -4l4 -12q2 -3 4 -4q1 -10 4 -29q2 -1 8 -20
q3 -3 6 -4v-32l4 -1l2 -3q3 -7 4 -16l4 -4q3 -7 4 -16l4 -4l4 -13l7 -1l6 1q1 6 4 17l4 4q1 11 4 20l4 4q1 11 4 20q2 3 4 4q1 15 4 24q2 3 4 4q1 9 4 28l8 13q3 1 6 4v36l6 4q3 9 8 12q1 7 4 20q2 3 4 4v8l-1 7q-12 -1 -35 -3q-19 8 -18 17l1 10q11 14 49 14h93q4 -3 8 -4
l8 -8l1 -13l-1 -12q-7 -7 -21 -9q-10 -1 -26 0l-22 1q-1 -6 -4 -12q-2 -1 -4 -4q-1 -17 -4 -28q-2 -3 -4 -4q-1 -8 -8 -20q-1 -15 -4 -24q-2 -3 -4 -4q-1 -8 -4 -25l-2 -2l-4 -2v-32l-6 -4q-2 -5 -8 -12q-1 -8 -4 -24l-4 -4l4 -4q-3 -2 -4 -4q-1 -8 -4 -25q-2 -1 -4 -4
q-3 -9 -4 -24q-6 -3 -8 -16q-25 -8 -31 -8q-13 0 -22 4l-16 16q-1 7 -4 20q-2 3 -4 4q-1 10 -4 29q-2 1 -4 4l-4 12q-2 1 -4 4q-1 7 -4 20q-2 1 -4 4q-1 7 -4 20q-2 3 -4 4q-3 9 -4 20q-2 3 -4 4q-3 9 -4 25q-6 3 -8 20l-4 4q-2 9 -4 28q-6 4 -8 16l-4 4q-1 7 -5 20z" />
    <glyph glyph-name="w" unicode="w" horiz-adv-x="504" 
d="M136 38v36l-6 5l4 4l-6 4v32l-8 4v32l-9 4v44q-3 1 -6 4q-1 18 -4 29q-2 1 -4 4v20q5 3 5 6q0 2 -5 6l-3 8q-12 5 -37 8l-8 8l-1 8l1 8l4 5l4 3q13 0 37.5 2.5t37.5 2.5q15 0 23 -2l3 -3v-24l-3 -2q-4 -2 -25 -1v-49l6 -4v-41l8 -4v-52q3 -1 6 -4q1 -6 4 -12l3 -2l3 -2
v-61l10 -8h4q2 17 8 20q1 7 4 21q2 1 4 4q1 7 4 20q2 1 4 4q1 7 4 20l4 4q3 9 4 24q2 3 4 4q3 9 4 20q2 3 4 4q3 9 4 25q6 4 8 12q6 2 16 8h5q3 -2 16 -8l8 -8q2 -9 8 -17q2 -12 4 -20q2 -1 4 -4q1 -11 4 -20q2 -1 4 -4q1 -9 4 -28q2 -3 4 -4q1 -7 4 -20q2 -3 4 -4
q1 -8 8 -20q1 -8 4 -25q3 -4 8 -8h4q1 11 4 20l6 5v44l8 4v40l8 4v61h2q5 0 8 32l4 4q1 3 1 12q0 8 -1 12q-14 1 -36 8l-1 9l1 7q11 8 16 8h61q8 -9 24 -20v-4q-9 -3 -28 -8q-3 -3 -5 -7t-5 -5v-56l-8 -4v-37l-8 -4v-44l-9 -4v-40l-8 -4v-37q-3 -1 -6 -4q-1 -11 -4 -20
l-4 -4q-1 -5 -4 -8q-16 -4 -18 -4q6 0 -18 4q-3 3 -4.5 7t-3.5 5q-1 8 -4 24q-2 3 -4 4q-3 8 -4 20q-6 8 -8 25q-2 1 -4 4q-3 9 -4 20q-2 1 -4 4q-3 9 -4 20q-3 2 -4 4q-3 10 -4 28l-4 4q-3 6 -4 12q-5 5 -11 5l-2 -1q-1 -8 -4 -16l-4 -4q-1 -14 -4 -24l-4 -4q-2 -13 -8 -16
q-1 -14 -4 -24q-2 -3 -4 -4q-1 -14 -4 -24q-2 -3 -4 -4q-1 -12 -4 -21q-2 -1 -4 -4q-1 -7 -4 -20q-2 -1 -4 -4l-4 -12q-3 -2 -16 -8h-6q-13 0 -22 4q-3 6 -4 20q-3 3 -6 4zM452 320h4v-4h-4v4z" />
    <glyph glyph-name="x" unicode="x" 
d="M57 6v28l8 6h52q6 5 17 14q1 6 32 37q3 10 22 28t22 28q6 5 8 12l4 4l1 4l-1 4q-17 16 -40 45q-7 6 -16 20l-14.5 14.5t-9.5 17.5q-4 4 -11 9l-5 7h-53q-10 4 -16 12v8l4 5q7 7 20 7l121 -1q13 -8 13 -13q0 -3 -9 -10q-12 -2 -36 -8v-2q0 -2 13 -19.5t15 -18.5q3 -4 4 -8
q7 -6 16 -20q8 -8 24 -25h4q5 8 17 21q1 4 4 8q17 3 24 12h4l8 -4v-12q-2 -3 -4 -4q-3 -4 -4 -8q-11 -11 -24 -29l-4 -4l-1 -6l1 -6l4 -4q2 -9 14 -18q16 -11 18 -14q2 -9 8 -12q1 -6 16 -20l4 -8q16 -7 16 -21q7 -8 24 -20h61q4 -3 8 -8v-2q0 -1 -3.5 -7.5t-4.5 -10.5
q-14 0 -40.5 -2t-40.5 -2h-44q-16 0 -24 4v20l3 3q5 1 25 1l16 4v4q-30 25 -32 37q-11 9 -24 28q-6 5 -8 12l-17 16h-4l-8 -8q-3 -6 -10 -11.5t-10 -16.5q-2 -4 -12 -10.5t-12 -17.5q-2 -3 -4 -4l-4 -8l-12 -9l-1 -6l1 -6q3 -2 8 -4l13 1q4 0 12 -2l3 -3v-20q-16 -8 -24 -8
h-125zM298 252l1 4q4 2 12 5v-18q-4 1 -12 5zM321 284q-31 2 -46 12l-1 2v7q0 14 50 17l72 2q1 1 2 1q14 0 34 -13l2 -11l-2 -9l-8 -6h-61l-4 -6q-10 -4 -28 -12q-1 -2 -4.5 -3.5t-5.5 -1.5v21z" />
    <glyph glyph-name="y" unicode="y" 
d="M64 -119v41l4 4q1 5 4 16q4 5 8 8q11 4 27 4h9q3 -2 4 -4q7 -4 13 -8q1 -6 4 -12l4 -4v-8l-4 -4q-3 -6 -4 -12l-29 -17v-4q5 -4 8 -8q19 -4 41 -12h2q10 0 27 8t23 16q3 6 4 13q2 1 4 4q3 9 4 24q6 3 8 20q2 1 4 4q3 9 4 20l4 4q3 9 4 20l4 4q3 6 4 11l4 4l-12 13
q0 8 -16 24q-1 6 -4 12q-2 1 -4 4q-2 13 -8 16q-2 13 -8 16q-2 13 -8 16q-1 10 -8 24q-3 4 -4 9q-6 3 -8 20q-6 3 -8 16q-6 3 -8 20q-2 3 -4 4q-3 7 -4 16l-4 4q-3 6 -4 12q-9 11 -17 12l-1 1q-5 0 -16 -2.5t-17 -2.5h-18l-8 8v4l4 4q-3 2 -4 5v8q6 8 16 12h133l5 -3l3 -5
l1 -10l-1 -11q-3 -2 -44 -8v-16q2 -1 4 -4q1 -6 4 -12q2 -1 4 -4q1 -7 4 -20q2 -3 4 -4q2 -5 8 -12q1 -8 8 -20q1 -5 4 -16q6 -5 12 -9q1 -16 4 -28q6 -3 8 -16l4 -4q2 -5 4 -16l9 -12l6 -1l6 1q1 8 8 20q1 8 8 20q1 9 4 28q2 3 4 4q1 7 4 13q2 1 8 24q3 2 8 12l6 4v36l4 2
l2 2q9 28 9 25l-1 3q-5 5 -36 4q-4 1 -8 4l20 13q-13 4 -13 10l1 2q7 0 24 2q14 2 23 2h5q11 -5 22 -5q9 0 26.5 4.5t26.5 4.5h6l8 -4v-41h-69q-1 -4 -3.5 -6.5t-4.5 -5.5q-2 -9 -4 -28l-4 -4q-2 -7 -6 -10l-4 -2v-36q-3 -1 -6 -4q-1 -8 -4 -25q-2 -1 -8 -20q-5 -6 -14 -12
v-40q-8 -2 -10 -12q-2 -3 -4 -4q-3 -8 -4 -20q-7 -8 -8 -20q-2 -1 -4 -4q-3 -10 -4 -24q-6 -3 -8 -16l-4 -4q-3 -10 -4 -24l-4 -4q-1 -7 -9 -20q-1 -12 -4 -21l-4 -4q-1 -6 -4 -12l-4 -4q-3 -8 -16 -16q-11 -20 -58 -20q-35 0 -55 12q-14 11 -32 28l-4 12z" />
    <glyph glyph-name="z" unicode="z" horiz-adv-x="498" 
d="M87 31v2q62 62 64 73q8 5 21 16q6 15 144 157v8q-10 4 -16 4h-47q-8 0 -112 -4v-36q-3 -1 -6 -4v-17q5 -3 5 -10l-1 -6q-9 -12 -36 -13v54l4 4v4l-4 4l6 4v44q23 8 34 8h230q1 -6 4 -12l4 -4l-4 -4q-1 -5 -4 -16q-12 -11 -32 -36q-16 -11 -45 -37q-3 -8 -16 -16
q-3 -9 -16 -20q-1 -5 -32 -36l-4 -8q-43 -29 -48 -49q-13 -9 -29 -24q-3 -8 -8 -12v-4q10 0 32.5 -2t34.5 -2q115 0 147 8q1 11 4 20l4 6q0 2 -2.5 4.5t-2.5 6.5q0 5 7 8v44q9 7 30 9v-114q-6 -5 -8 -12q-9 -10 -16 -12h-181q-15 0 -44.5 2t-44.5 2l-7 5q-9 15 -9 13z" />
    <glyph glyph-name="quotesinglbase" unicode="&#x201a;" 
d="M230 -72q21 12 24 25q4 6 13 16q1 9 4 16l4 4q1 17 4 27l4 4h-6q-4 0 -10 -2t-9 -2h-20q-2 4 -24 12q-6 11 -16 20v57q20 20 25 23q12 9 31 9h13q5 0 16 -4q1 -2 4 -4l12 -4q12 -10 24 -24v-20q-2 -3 -4 -4v-9l4 -4v-56l-4 -4v-4l4 -3l-4 -4q-1 -7 -4 -20q-2 -3 -4 -4
q-1 -8 -4 -25q-6 -3 -8 -20q-6 -4 -8 -12q-6 -5 -8 -12q-6 -5 -8 -12q-4 -3 -8 -4h-21q-10 4 -16 12v32z" />
    <glyph glyph-name="quoteright" unicode="&#x2019;" horiz-adv-x="85" 
d="M16 260l4 4v37l-6 4v73l-8 4v44l-6 4v53q6 5 8 12q6 5 8 12h45q12 -6 15 -16t5 -20q2 -3 4 -4v-13q-3 -3 -6 -4v-32l-8 -4v-49l-8 -4v-72l-4 -1l-2 -3l-1 -8l1 -9q2 -1 4 -4v-20q-10 -12 -17 -12h-12q-10 4 -16 12v16z" />
    <glyph glyph-name="quotedblright" unicode="&#x201d;" 
d="M143 511l4 4v37l-6 4v72l-8 4v44l-6 4v53q6 5 8 12q6 3 8 12h44q13 -6 15.5 -16t5.5 -20l4 -4v-12l-6 -4v-33l-8 -4v-48l-9 -4v-73h-3l-3 -4v-16l4 -4q1 -2 1 -10t-1 -10q-7 -10 -16 -12h-12q-9 2 -16 12v16zM345 491q-1 9 -4 28l-4 4l-1 4l1 4l4 4v29l-6 4v56l-9 4v56
l-6 5v44q6 5 9.5 11t15.5 13h20q9 -4 24 -12q2 -4 8 -12v-65l-4 -4q-1 -5 -4 -16q-3 -3 -6 -4v-32q-3 -1 -6 -4v-2q0 -4 4 -6v-8q-5 -8 -5 -10l1 -6l4 -4l-6 -4v-73q-4 -4 -10 -8h-12q-4 0 -8 4zM357 640l-3 2l-1 -2l1 -2z" />
    <glyph glyph-name="sterling" unicode="&#xa3;" horiz-adv-x="498" 
d="M204 59q-6 -2 -10 -5l4 -4v-4l-16.5 -11t-23.5 -17h-20l-4 -4h-45q-11 0 -24 4l-12 12q-14 6 -16 20l-4 6v2q3 3 6 4v41q8 3 10 12l8 8q7 3 20 8l4 4h18q11 0 29 -3q23 -4 30 -5q28 -16 33 -16q-3 0 15 1v47q-2 1 -4 4q-1 8 -8 20q-1 6 -4 12l-8 8q-17 0 -55 2.5t-58 2.5
q1 6 4 11q15 12 42 12q9 0 26 -1.5t25 -1.5q3 8 8 12l-6 -1l-6 1l-4 4q-16 7 -16 20q-5 5 -5 6q0 3 5 6q-6 5 -8 12q-4 3 -8 4h-53q-4 3 -8 8v4q4 6 8 8q24 4 47 12v32q3 1 6 4q1 12 4 21l4 4q0 13 16 20q13 11 28 32q9 10 34 14.5t30 13.5l31 1q71 2 98 -29q3 -3 11 -8
l5 -8q4 -3 13 -8q2 -7 8 -12v-41l-8 -8q-5 -1 -9 -4q-32 -4 -26 -4h-2q-4 3 -8 4q-1 6 -8 12v33q7 6 8 12l4 4l1 4l-1 4q-33 20 -56 20h-77l-16 -8q-4 -7 -16.5 -10.5t-23.5 -5.5q-1 -8 -8 -20q-3 -6 -4.5 -10.5t-3.5 -5.5q-3 -8 -4 -17q-2 -1 -4 -4v-40q-4 0 48 1
q43 1 69 0q36 -1 40 -5v-12q-3 -6 -8 -8h-53l-4 4h-52l-4 4h-12q-10 -4 -16 -8l-1 -6l1 -6q2 -3 12 -12q1 -5 4 -8l12 -8q1 -5 4 -16q15 -9 16 -17h12q3 2 4 5q5 2 8 4q11 0 33.5 2t33.5 2h2l4 -4l12 -4l1 -7l-1 -6q-11 -8 -16 -8h-69q-7 4 -18 4l-6 -1v-3q11 -3 20 -12
q2 -5 4 -28q2 -3 4 -4v-48l-4 -4l4 -4l-4 -4v-4q5 -4 9.5 -10.5t6.5 -14.5q16 -11 57 -32h44q26 0 57 28q1 8 8 13q2 12 16 24v48q-5 4 -5 6q0 5 9 10l6 1q9 0 22 -9l4 -12l4 -4l-4 -4l4 -4v-8q-3 -3 -6 -4v-53q-5 -3 -14 -12l-4 -12l-16 -16q-7 -2 -28 -16q-17 -12 -29 -12
h-68q-17 7 -40 16q-3 2 -4 4q-5 2 -44 35l-5 1q-1 1 -2 1zM57 81q0 -2 4 -7q1 -8 4 -24q12 -4 24 -4h53q11 14 32 20l8 8l1 5l-1 4q-6 3 -16 12q-13 2 -16 8h-6q-3 -1 -9.5 1.5t-8.5 2.5h-29q-5 0 -12 -3q-10 -4 -12 -5l-16 -16v-2z" />
    <glyph glyph-name="section" unicode="&#xa7;" 
d="M123 59v53q2 4 21 14.5t25 10.5q12 0 31 -9q1 -6 4 -12l4 -4v-32q-7 -6 -16 -21q-5 -3 -5 -8l1 -4q24 -12 50 -12q13 0 35.5 5.5t31.5 6.5l4 4q6 3 12 4q11 9 12 17q6 4 8 12q2 1 4 4v40q-2 1 -3.5 5.5t-4.5 10.5q-9 9 -32 20.5t-32 20.5q-9 2 -21 8l-4 4q-10 3 -24 12
l-85 44q-5 7 -25 20q-15 10 -19 24l-4 5q-1 6 -4 12l-4 4v36l4 4q1 9 4 28q12 15 61 57v16q-2 3 -4 4v64l4 4q0 8 5.5 12.5t10.5 8.5q5 13 32.5 26.5t43.5 13.5h45q6 0 24 -6.5t21.5 -9.5t18.5 -8q8 -5 20 -20l13 -12q1 -9 8 -21v-36q-9 -7 -17 -12.5t-23 -4.5l-13 1
q-8 6 -16 16l-4 12l-4 4v28l4 4l4 13q4 2 4 6v2q-4 3 -8 4h-6h-6l-4 4q-25 4 -48 4h-13q-8 -2 -23 -9t-41 -28q-3 -6 -4 -12l-4 -4q-1 -5 -1 -14q0 -15 13 -26q3 -17 32 -24q7 -7 31 -20.5t30 -20.5q17 -3 24 -12q6 -1 12 -4q9 -10 36.5 -20.5t36.5 -19.5l32 -32
q5 -13 12 -37q1 -2 4 -4v-32l-4 -4q-1 -7 -4 -20q-2 -3 -4 -4q-2 -5 -8 -12l-4 -12q-12 -8 -37 -29v-2q0 1 4 -6v-76l-12 -12q0 -8 -9 -18t-11 -15q-23 -13 -64 -28h-69q-29 0 -36 12q-12 4 -37 20q-1 6 -8 12q-1 6 -8 12zM317 197h44l4 1q17 13 29 27q5 17 4 36l4 4
q-6 4 -8 24q-22 28 -53 45q-3 5 -26 14t-26 14q-16 9 -45 20q-2 3 -31 18t-31 15t-2 -1q-23 -2 -49 -28q-3 -9 -8 -12v-48l4 -4q3 -6 4 -12q11 -13 25 -25q33 -11 40 -20q10 -3 21 -11q14 -11 19 -13l77 -40z" />
    <glyph glyph-name="minus" unicode="&#xad;" 
d="M98 274v48q6 9 25 9q13 0 39.5 -2.5t39.5 -2.5h174q4 5 7 5l1 -1q11 -3 15 -11q6 -11 9 -13v-40q-7 -10 -16 -12h-2q-7 0 -20.5 2t-20.5 2q-3 0 -8 -2t-8 -2h-2l-4 4h-165q-5 0 -16.5 -2t-17.5 -2h-14l-8 8q-2 7 -8 12z" />
    <glyph glyph-name="acute" unicode="&#xb4;" horiz-adv-x="181" 
d="M0 436q2 3 4 4l4 12q8 10 44 28q3 4 4 8q6 5 8 17q14 12 16 32l8 8q7 0 24.5 4t24.5 4h20q8 0 24 -8v-36l-4 -4l-4 -8q-9 -5 -19 -10q-12 -8 -13 -15q-14 -7 -14 -8q-9 -5 -10 -12q-15 -10 -45 -40q-1 -4 -4 -8q-14 -10 -31 -9l-13 1q-8 6 -16 16l-4 12q-2 3 -4 4v8z" />
    <glyph glyph-name="periodcentered" unicode="&#xb7;" 
d="M182 312v57q15 12 16 20q6 3 8 12l32 16h6q2 0 47 -4q14 -6 40 -24l4 -12l4 -4v-53l-4 -4q-3 -6 -4 -12q-6 -3 -8 -12q-28 -29 -63 -29q-18 0 -46 13q-9 7 -24 20l-4 12z" />
    <glyph glyph-name="periodcentered" unicode="&#x2219;" 
d="M182 312v57q15 12 16 20q6 3 8 12l32 16h6q2 0 47 -4q14 -6 40 -24l4 -12l4 -4v-53l-4 -4q-3 -6 -4 -12q-6 -3 -8 -12q-28 -29 -63 -29q-18 0 -46 13q-9 7 -24 20l-4 12z" />
    <glyph glyph-name="onehalf" unicode="&#xbd;" 
d="M148 28q0 5 5 8q1 15 4 24q2 3 4 4q1 7 4 13q1 1 8 12q5 8 16 20q15 10 32 24q21 13 37 16q3 6 16 8q1 2 4 4l12 4q6 5 16 16v45q-11 5 -24 16q-11 4 -16 4h-29q1 0 -32 -12q-2 -11 -18 -16v-29h-30q-4 2 -8 8l-1 4q0 3 5 9q1 15 4 24q2 1 4 4l28 28q30 12 54 12
q39 0 79 -20q2 -5 8 -12q1 -8 8 -20q2 -5 8 -12v-33q-2 -1 -4 -4q-1 -6 -4 -12l-12 -12q-2 -9 -16 -12q-3 -2 -4 -4q-11 -6 -24 -16q-9 -2 -24 -12q-6 -3 -13 -4l-4 -4q-5 -3 -20 -8q-1 -5 -4 -8l-12 -8q-2 -8 -8 -13v-28q10 -5 46 -5q26 -1 63 0q42 1 35 1q6 0 6 -12l-1 -8
l-3 -4l-5 -4q-24 -4 -34 -4q-12 0 -35.5 2t-35.5 2q-3 0 -8.5 -2t-7.5 -2h-44q-8 0 -16 4q-2 5 -4 16zM44 330q28 4 63 5q24 1 63 0q50 -1 63 -1q11 0 34 2.5t35 2.5h51q86 0 98 -9l4 -8q2 -1 4 -4v-8q-4 -4 -8 -4h-109l-4 4h-4q-4 -5 -12 -8h-133q-2 9 -6 9t-6 -9
q-21 -4 -32 -4h-77q-16 0 -24 4v28zM260 375v205h-23v-6l-4 -6q-6 -1 -12 0q-1 -2 -16 -12q-1 -5 -4 -16q-15 -13 -39 -13q-4 0 -9 4.5t-5 10.5l1 6q19 13 48 44q11 11 36 28l4 4q19 7 33 13h4q3 -3 8 -4q6 -5 10 -9v-40l8 -4v-44q3 -1 6 -4v-12q-2 -3 -4 -4q-3 -10 -4 -24
q-1 -3 -4 -5l12 -12v-32l-4 -4l-1 -8q0 -7 5 -12v-8l-4 -4v-32l4 -4q-7 -5 -16 -5h-16l-4 1z" />
    <glyph glyph-name="Adieresis" unicode="&#xc4;" horiz-adv-x="498" 
d="M50 23q2 3 4 4l4 12q10 8 38 8q16 0 25 8v53q5 3 14 12v12q-4 6 -4 4t4 4q1 18 4 28l4 4q2 13 7 19l3 1v57l14 8q1 15 4 28q2 3 4 4v8q-2 3 -4 4v12q2 3 4 4q1 8 8 25v8l-4 4q7 5 12 12q1 8 4 24q6 3 8 12q6 3 8 16q2 3 4 4l-4 4q6 4 8 16q5 4 8 12q7 6 12 8q7 9 27 9
q9 0 14 -1q3 -8 8 -12q1 -4 3.5 -6.5t4.5 -5.5q1 -12 4 -20q2 -1 4 -4q1 -9 4 -28l3 -2l3 -2v-48l8 -5v-32l4 -1l2 -3q1 -8 4 -24l4 -4q3 -9 4 -20q2 -3 4 -4q1 -8 4 -24l6 -4v-41l8 -4v-36l6 -4q2 -5 4 -16q3 -3 6 -4v-36l9 -4v-43h54q4 -1 8 -6v-8q-8 -9 -16 -12h-117
q-8 0 -16 8q-4 10 -6 25q7 0 21.5 -2.5t22.5 -2.5t14 4l-6 4v37q-7 5 -10 16q-2 1 -4 4q-3 10 -4 24q-8 0 -22 2t-22 2q-84 0 -105 -8q-1 -14 -4 -24q-2 -3 -4 -4q-1 -8 -8 -25l-1 -10l1 -10q4 -4 44 -4q4 -1 7.5 -4t4.5 -8q5 -5 5 -6q0 -2 -5 -6l-3 -8l-9 -4
q-13 0 -42.5 -2t-45.5 -2q-52 0 -69 12v8zM294 156l18 12v37l-6 4v32l-3 2l-3 2l-1 6l1 6l4 4l-6 4v32l-8 4v32l-6 4q-3 9 -4 21q-2 1 -4 4q-3 9 -4 20l-4 4q-3 13 -4 28q-4 3 -8 4h-4l-5 -16l-4 -4q-1 -15 -4 -24l-4 -4l4 -4l-6 -4v-33h-3l-3 -4q-2 -9 -4 -28q-2 -1 -4 -4
q-1 -18 -4 -28l-6 -4v-36q-3 -1 -6 -4q-1 -7 -4 -21l-4 -4v-32h69q4 0 14.5 -4t15.5 -4zM98 616q3 4 8 8q15 2 49 12h20q6 -2 16 -8q2 -5 8 -12v-29l-4 -4q-1 -5 -4 -16q-20 -12 -32 -12h-12l-16 8q-3 4 -4 8q-5 4 -21 12q-4 5 -8 8v25zM299 605q0 4 4 11t5 12q4 -1 10 -1
t10 1q4 5 12 8h20q8 0 24 -8q4 -7 9 -12v-33l-4 -4l-5 -12q-17 -12 -24 -12h-20q-12 0 -24 16l-4 16q-1 2 -12 12z" />
    <glyph glyph-name="Aring" unicode="&#xc5;" 
d="M47 12q7 10 24 28h53q1 6 7 11l3 1v37l6 4q1 11 4 20l6 4v36q3 1 6 4q1 8 4 24l3 3l3 1v33l8 4v36l4 2l2 2q1 8 4 24q2 3 4 4q1 8 4 24l6 4v33l4 1l2 3q2 9 4 28q2 1 4 4q3 9 4 24l4 4q3 9 4 24q2 3 4.5 5.5t3.5 6.5q14 10 31 9l14 -1q4 -3 8 -8q1 -6 4 -12q1 0 8 -20
q2 -1 4 -4q1 -8 4 -24l3 -2l3 -2v-36l8 -4v-45q4 -6 16 -16v-32l8 -4v-36l4 -1l2 -3q3 -9 4 -21q5 -3 5 -8l-5 -8v-8q6 -3 8 -20q3 -3 6 -4v-32l6 -4q2 -8 4 -20l6 -4v-37q19 -1 37 -2q23 -2 34 -10l-4 -4q-1 -7 -4 -20q-4 -4 -8 -4h-141v28q13 5 52 8l1 6l-1 6l-6 4v37
q-3 1 -5 5t-5 15q-16 8 -24 8h-117l-7 -4q-5 -10 -11 -12v-37h-1q-6 0 -6 -14l1 -10q19 -1 27 -2q17 -3 25 -10l1 -7l-1 -9q-3 -2 -8 -12h-157zM307 152h20q0 6 -2 17q-2 3 -4 4q-1 9 -4 28q-2 3 -4 4q-1 10 -4 29q-2 1 -4 4q-2 9 -4 28q-3 3 -6 4v52l-6 4q-3 9 -4 21
q-6 3 -8 24q-3 3 -6 4v36l-6 4q-3 6 -4 12l-2 1q-4 0 -6 -13q-3 -3 -7 -4v-40q-3 -1 -6 -4q-2 -19 -4 -29l-6 -4v-32q-3 -1 -6 -4q-1 -8 -4 -24l-6 -4v-36q-3 -1 -6 -4q-1 -8 -4 -25q-2 -1 -4 -4q-2 -9 -4 -28q-2 -1 -4 -4v-8q11 -8 115 -9zM152 576l-1 8q0 9 5 12
q1 13 4 20q29 20 64 49q27 8 35 8q13 0 39.5 -14.5t30.5 -25.5q2 -3 4 -4l4 -13l6 -4v-36l4 -1l2 -3v-2l-2.5 -7t-9.5 -19q-2 -18 -14 -26q-19 -15 -22 -18q-13 -5 -26 -5h-31q-15 0 -52 25l-4 8q-4 2 -5.5 8.5t-2.5 11.5q-9 10 -28 28zM208 560q7 -6 16 -20q5 -4 16 -12
l19 -1q27 -1 42 17q2 7 8 12q2 13 8 16v8q-2 3 -4 4q-1 8 -8 20q-3 4 -4 8q-7 5 -32 17h-29l-16 -8q-1 -5 -3.5 -7.5t-4.5 -5.5q-1 -6 -4 -12l-4 -4v-32z" />
    <glyph glyph-name="Odieresis" unicode="&#xd6;" 
d="M75 185q1 3 4 5l-4 4l4 4l-6 4v48l-6 4l6 4v44q4 2 6 4q3 8 4 17q6 3 8 20q6 3 8 20q2 1 4 4q5 15 14 24.5t19 19.5q2 11 10.5 18.5t17.5 14.5q4 1 8 4q5 0 12 4l4 8l40 12h53q10 0 50 -23t42 -34q3 -1 5 -4q3 -8 8 -12q2 -7 8 -12q1 -9 4 -16l4 -4q2 -13 8 -16
q1 -11 4 -20q2 -3 4 -4q1 -12 4 -21l3 -2l3 -2v-68l6 -4v-32l-6 -4v-37l-8 -4v-36l-3 -1l-3 -3q-3 -6 -4.5 -10.5t-3.5 -5.5q-3 -4 -4 -8q-5 -4 -8 -12q-5 -4 -8 -12q-7 -5 -8 -13q-54 -52 -107 -52q-16 0 -46 5q-37 7 -41 15l-12 4q-17 14 -36 36l-29 29q-1 5 -4 16
q-4 2 -5.5 11.5t-6.5 12.5q-1 11 -4 20q-2 3 -4 4q-1 7 -4 20q-2 3 -4 4v8zM115 190q7 -5 8 -13l4 -4q1 -7 5 -20l4 -4q1 -9 4 -16l4 -4q2 -8 8 -12q2 -7 8 -12q2 -9 8 -12q1 -6 4 -12q11 -8 32 -25q11 -4 32 -12h12q-7 0 49 4q10 4 30 21.5t22 27.5q6 5 8 12q6 5 8 12
l13 12q1 11 4 20l6 4v45l6 4v68l-6 4v41l-6 4q-3 6 -4 16q-3 1 -4.5 5.5t-4.5 10.5l-4 4q-2 7 -8 12q-1 6 -4 12l-4 4q-1 6 -4 12l-8 8q-11 6 -20 8q-3 5 -32.5 13t-38.5 8h-2q-4 -2 -12 -9h-4q-4 5 -7 5l-1 -1q-2 -1 -18.5 -11.5t-17.5 -12.5l-28 -16l-4 -12l-4 -4
q-3 -9 -4 -20l-4 -4q4 -7 4 -6v-2q-5 -4 -8.5 -11t-12.5 -17v-4q3 -2 5 -7v-4l-1 -6q-5 -7 -12 -12v-56l4 -4q1 -3 1 -10q0 -8 -1 -10l-4 -4v-8zM99 613q2 3 4.5 5.5t3.5 6.5q10 1 29 8q1 2 4 4h20q23 0 32 -16q1 -8 4 -24l4 -6q0 -2 -2 -4t-2 -4q0 -4 4 -6v-8q-2 -3 -4 -4
q-1 -5 -4 -9q-24 -4 -18 -4q-2 0 -18 4q-1 6 -4 17q-4 1 -8 4h-6q-17 -2 -39 24v12zM309 589v32q15 20 42 20h2q10 -4 16 -8q3 -3 4 -8q16 -15 29 -24v-24q-2 -3 -4 -4q-3 -6 -12 -17q-5 -1 -8 -4h-13q-8 3 -16 4q-11 6 -21 11q-13 9 -15 18z" />
    <glyph glyph-name="adieresis" unicode="&#xe4;" 
d="M85 60v65q4 7 12 16q24 32 96 43l114 14l4 4q13 2 20 8v48q-18 28 -60 28q-11 5 -40 5q-45 0 -59 -9v-40l-10 -8h-37l-8 8q-1 4 -4 8q-2 1 -4 4v16q2 3 4 4q3 8 4 16q54 33 120 33q20 0 48 -5q34 -7 42 -16q9 -2 19.5 -10.5t12.5 -17.5q3 -2 4 -4v-189l-4 -4l4 -4
q3 -7 4 -13l16 -16q13 -5 66 -5q-2 -20 -13 -25q-7 -3 -31 -3q-18 0 -46 13q-1 2 -16 12q-1 8 -8 20q-3 8 -4 17h-4l-4 -9q-15 -12 -32 -28q-13 -2 -43 -16q-26 -12 -46 -12h-36q-42 0 -73 36l-4 12zM117 68q7 -6 8 -12q6 -3 16 -12q64 -8 55 -8q19 0 62 16q6 6 25 16
q1 3 4 5q15 11 44 32v69h-6q-3 0 -78 -11t-90 -14t-32 -20q-2 -7 -8 -12v-49zM117 419v37l4 4q3 5 4 12q19 4 27 4q1 0 26 -4q1 -8 4 -24q2 -3 4 -4v-8q-6 -8 -8 -17q-4 -5 -16 -12h-29q-8 8 -16 12zM327 456q6 4 8 12l8 8l16 4h12q4 0 15 -4q6 -8 10 -12v-37q-5 -7 -17 -20
h-28q-8 3 -16 12q-2 8 -8 12v25z" />
    <glyph glyph-name="aring" unicode="&#xe5;" 
d="M316 74l-2 -1q-15 -25 -48 -36q-48 -17 -53 -20l-30 -1q-35 -1 -71 17q-1 1 -9.5 7t-10.5 17q-2 3 -4 4q-2 12 -8 17v52q3 2 10 14q4 7 18 10q3 2 12 12l2 1q2 0 6.5 -5t4.5 -7q0 -3 -21 -17q-1 -7 -4 -20l-4 -4l-1 -16l1 -16q28 -37 65 -37h36q14 0 41 9.5t36 18.5
q10 2 21 5q8 3 11 16q4 2 8 12q2 1 4 4q1 8 4 24l4 6q0 2 -2 4t-2 4q0 4 3.5 7t4.5 7h2q3 0 7 -1q6 -4 7 -11q3 -2 4 -4v-60q-2 -3 -4 -4v-9l24 -24q8 0 22.5 -2t22.5 -2q8 -3 16 -12v-2q0 2 -8 -13l-8 -5h-37q-21 0 -48 28l-4 12q-2 3 -4 4q-1 5 -4 16l-2 1h-8zM152 176
l1 2l3 3q8 2 9 2h12l4 -1l4 -4h4q13 6 44 8l3 1l1 -1l5 -1l3 -3l1 -2v-7l-1 -3q-11 -8 -16 -8h-68l-5 2l-3 2l-1 3v7zM334 239q-2 1 -4 4q-1 9 -4 28q-10 5 -24 16q-41 13 -74 13q-14 0 -41.5 -2.5t-41.5 -2.5q-1 -9 -5 -28l-4 -4l2 -11q2 0 2 -1q5 1 9 4q2 7 12 16h4
q5 -2 8 -4v-12q-2 -3 -4 -4q-3 -4 -4 -8h-29q-6 0 -16 4q-1 4 -4 8q-2 1 -4 4v8q2 3 4 4q3 13 4 28q44 25 73 25h52q24 0 57 -11t48 -26q3 -6 4 -12l4 -4v-97q-16 -4 -18 -4h-2q-3 6 -4 12q-3 1 -10 1q-10 0 -30 -7t-31 -8q1 24 32.5 30t34.5 21q2 1 4 4v16zM160 485
q0 9 5 12q2 13 8 16q2 20 32 36v4l-4 4q9 6 24 13h36q14 -6 25 -13q2 -6 16 -20l2 -5q8 -8 22 -23q1 -8 4 -24q2 -3 4 -4v-8q-2 -3 -4 -4q-10 -32 -44 -61q-2 -1 -10.5 -4.5t-14.5 -3.5h-36q-11 0 -30.5 16t-21.5 25l-4 4q-2 9 -4 28q-5 3 -5 12zM185 481l4 -4q1 -8 4 -24
q6 -6 12 -8q2 -4 28 -17q32 -4 27 -4h1q6 7 25 12l8 9q1 7 4 20q2 1 4 4v20q-2 1 -4 4q-1 8 -4 24q-9 6 -24 20q-14 5 -22 5q-42 0 -63 -29v-32z" />
    <glyph glyph-name="odieresis" unicode="&#xf6;" 
d="M95 170l3 3l3 1v40l4 2l2 2q1 8 8 20q3 8 4 17q6 4 8 12q7 6 8 12q16 19 47 33.5t57 14.5h39q11 0 19 -6.5t15 -13.5q4 -1 21 0l8 -8q1 -5 4 -8q12 -9 36 -28q2 -8 8 -12q1 -7 4 -13l6 -4v-32l6 -4v-40l-4 -4v-8l4 -4l-6 -4v-32l-3 -1l-3 -3q-3 -9 -4 -21
q-18 -23 -51 -46q-38 -26 -62 -26h-52q-13 0 -57 24q0 1 -48 44q-1 4 -8 13q-2 9 -4 28q-2 1 -4 4q-2 9 -4 28q-2 1 -4 4v16zM135 130q6 -4 8 -24q2 -3 4 -4q1 -6 4 -17q19 -13 37 -27q22 -13 44 -13h44q6 0 32 8q31 20 41 32q2 8 8 13q1 6 4 12q2 2 6 4v40q3 1 6 4v8
q-4 6 -4 4t4 4v8q-3 3 -6 4v32q-4 2 -6 4q-3 6 -4 12q-6 5 -8 13q-7 5 -16 24q-10 9 -21 16q-1 4 -4 8h-1q-3 0 -8.5 -2t-8.5 -2t-7.5 2t-6.5 2h-28q-16 0 -48 -12q-7 -8 -24 -12l-17 -16q-1 -8 -8 -13q-1 -4 -3.5 -6.5t-4.5 -5.5q-1 -15 -4 -24l-4 -4v-72zM103 428v32
q3 2 8 12q6 4 24 12h20q22 0 33 -20v-36q-6 -9 -20 -22q-22 -7 -23 -7h-2q-23 8 -26 14q-8 10 -14 15zM320 428v28l4 4q2 5 4 16q11 12 18 12q12 0 35 -12q2 -5 8 -12q1 -8 8 -20v-20q-2 -3 -4 -4l-4 -8q-12 -9 -23 -9h-16q-10 0 -22 9q-1 6 -4 12z" />
    <glyph glyph-name="udieresis" unicode="&#xfc;" horiz-adv-x="498" 
d="M120 63v232h-55q-5 2 -8 6l-1 8l1 8q9 9 24 9h53q4 -3 8 -4q5 -5 8 -9v-96q-5 -3 -5 -10t5 -11v-76l-4 -4v-36l12 -13l4 -12q9 -6 24 -12h9q33 0 50 8q10 5 42 29l4 8q10 9 11 11t5 13q2 1 8 20q2 3 4.5 5.5t4.5 6t5 4.5v44l6 4l-4 5v48l4 4l1 4q0 5 -5 8q-3 13 -4 28
l-8 4h-44l-4 3l-4 5l-1 6q0 5 4 11l5 4h20q4 -5 7 -5l5 5h20l4 -4q3 -1 20 0q5 -2 8 -5v-169l-4 -4v-8l4 -4v-36l-4 -4v-37l8 -8h45q17 -6 17 -18l-1 -6q-3 -6 -8 -8h-77q-2 7 -6 11l-4 1v60l-6 1q-4 -3 -8 -4q-6 -15 -28 -34t-24 -23q-32 -16 -59 -16q-58 0 -70 32l-4 4
q-3 6 -4 12q-3 3 -6 4zM97 459q6 3 8 20l25 8h12l24 -12q3 -8 8 -12l-4 -4l4 -4v-8q-4 -4 -8 -13q-4 -2 -8 -12q-3 -2 -16 -8h-20q-4 1 -8.5 5t-8.5 7q-2 13 -8 16v17zM307 463q6 4 8 12q8 9 16 12h28q6 -2 17 -8q1 -6 8 -12l1 -16l-1 -17q-6 -8 -16 -16q-2 0 -8 -2t-9 -2
h-12q-2 0 -8 2t-8 2q-4 10 -8 12q-1 7 -4 21q-2 1 -4 4v8z" />
    <glyph glyph-name=".null" unicode="&#xe005;" horiz-adv-x="0" 
 />
    <glyph glyph-name="uniE001" unicode="&#xe001;" horiz-adv-x="500" 
 />
    <glyph glyph-name="colon" unicode="&#xe002;" 
d="M251 8q-1 -6 1 -8l-3 -8l-1 10zM257 4v3v-1v-2zM288 30l-8 -13zM234 -46v2l1 2v-3v1q0 -1 -1 -2zM226 -60q2 5 4 8t4 5v1v-1q-1 -6 -8 -13zM233 -39v-1v1zM226 -52q4 5 7 13l1 -5l-2 -5l-3 -3h-3zM224 -55l1 3h1l-2 -4v1zM226 -44v-3l-2 -2q1 2 1 3t1 2zM238 -24
q-1 -10 -5 -15v6zM240 -14v4q1 1 2 1.5t2 1.5zM233 -30l-1 9q5 9 7 20v-8v-8zM226 -44q3 10 7 14v-3zM221 -53l3 4q1 -6 -2 -11h5q7 3 8 9v-10q1 -1 1 0l-1 1v5l7 5q2 2 3.5 4.5t3.5 6.5q3 1 3 3t18 23q14 15 12 23v4l3 9q7 6 13 13l1 4l4 2v57q-16 25 -46 25q-33 0 -47 -17
q-1 -7 -8 -12v-49l4 -4l4 -12q11 -6 16 -8q5 -29 6 -43l-1 -2q1 -8 -10 -30zM202 269q6 -5 8 -13l8 -8q18 -8 24 -8h29q23 10 32 25v52q-7 5 -8 12q-15 17 -43 17q-26 0 -42 -21q-1 -7 -8 -12v-44z" />
    <glyph glyph-name="u.nul" unicode="&#xe003;" horiz-adv-x="0" 
 />
    <glyph glyph-name="nonmarkingreturn" unicode="&#xe004;" horiz-adv-x="500" 
 />
    <glyph glyph-name=".null" unicode="&#xe000;" horiz-adv-x="0" 
 />
  </font>
</defs>
</svg>
