<?xml version="1.0" encoding="utf-8"?>
<!-- Generator: Adobe Illustrator 17.0.0, SVG Export Plug-In . SVG Version: 6.00 Build 0)  -->
<!DOCTYPE svg PUBLIC "-//W3C//DTD SVG 1.1//EN" "http://www.w3.org/Graphics/SVG/1.1/DTD/svg11.dtd">
<svg version="1.1" id="Layer_1" xmlns="http://www.w3.org/2000/svg" xmlns:xlink="http://www.w3.org/1999/xlink" x="0px" y="0px"
	 width="200px" height="200px" viewBox="197.64 320.945 200 200" enable-background="new 197.64 320.945 200 200"
	 xml:space="preserve">
<g>
	
		<linearGradient id="SVGID_1_" gradientUnits="userSpaceOnUse" x1="283.266" y1="632.3113" x2="283.266" y2="449.1538" gradientTransform="matrix(1.0803 0 0 1.0803 -8.3712 -162.7208)">
		<stop  offset="0" style="stop-color:#E09B3D"/>
		<stop  offset="0.3" style="stop-color:#C74C4D"/>
		<stop  offset="0.6" style="stop-color:#C21975"/>
		<stop  offset="1" style="stop-color:#7024C4"/>
	</linearGradient>
	<path fill="url(#SVGID_1_)" d="M338.059,320.945h-80.838c-32.853,0-59.581,26.728-59.581,59.581v80.838
		c0,32.853,26.728,59.581,59.581,59.581h80.838c32.853,0,59.581-26.728,59.581-59.581v-80.838
		C397.64,347.673,370.912,320.945,338.059,320.945z M377.52,461.364c0,21.794-17.668,39.461-39.461,39.461h-80.838
		c-21.794,0-39.461-17.668-39.461-39.461v-80.838c0-21.794,17.668-39.461,39.461-39.461h80.838
		c21.794,0,39.461,17.667,39.461,39.461V461.364L377.52,461.364z"/>
	
		<linearGradient id="SVGID_2_" gradientUnits="userSpaceOnUse" x1="283.266" y1="632.3113" x2="283.266" y2="449.1538" gradientTransform="matrix(1.0803 0 0 1.0803 -8.3712 -162.7208)">
		<stop  offset="0" style="stop-color:#E09B3D"/>
		<stop  offset="0.3" style="stop-color:#C74C4D"/>
		<stop  offset="0.6" style="stop-color:#C21975"/>
		<stop  offset="1" style="stop-color:#7024C4"/>
	</linearGradient>
	<path fill="url(#SVGID_2_)" d="M297.64,369.218c-28.522,0-51.727,23.205-51.727,51.727c0,28.522,23.205,51.727,51.727,51.727
		s51.727-23.205,51.727-51.727S326.162,369.218,297.64,369.218z M297.64,452.552c-17.456,0-31.607-14.151-31.607-31.607
		s14.151-31.607,31.607-31.607c17.456,0,31.607,14.151,31.607,31.607C329.247,438.401,315.096,452.552,297.64,452.552z"/>
	
		<linearGradient id="SVGID_3_" gradientUnits="userSpaceOnUse" x1="331.2411" y1="632.3113" x2="331.2411" y2="449.1538" gradientTransform="matrix(1.0803 0 0 1.0803 -8.3712 -162.7208)">
		<stop  offset="0" style="stop-color:#E09B3D"/>
		<stop  offset="0.3" style="stop-color:#C74C4D"/>
		<stop  offset="0.6" style="stop-color:#C21975"/>
		<stop  offset="1" style="stop-color:#7024C4"/>
	</linearGradient>
	<circle fill="url(#SVGID_3_)" cx="349.467" cy="369.606" r="12.395"/>
</g>
</svg>
