<?xml version="1.0" encoding="utf-8"?>
<!-- Generator: Adobe Illustrator 17.0.0, SVG Export Plug-In . SVG Version: 6.00 Build 0)  -->
<!DOCTYPE svg PUBLIC "-//W3C//DTD SVG 1.1//EN" "http://www.w3.org/Graphics/SVG/1.1/DTD/svg11.dtd">
<svg version="1.1" id="Layer_1" xmlns="http://www.w3.org/2000/svg" xmlns:xlink="http://www.w3.org/1999/xlink" x="0px" y="0px"
	 width="200px" height="200px" viewBox="197.64 320.945 200 200" enable-background="new 197.64 320.945 200 200"
	 xml:space="preserve">
<g>
	<path d="M338.059,320.945h-80.838c-32.853,0-59.581,26.728-59.581,59.581v80.838c0,32.853,26.728,59.581,59.581,59.581h80.838
		c32.853,0,59.581-26.728,59.581-59.581v-80.838C397.64,347.673,370.912,320.945,338.059,320.945z M377.52,461.364
		c0,21.794-17.668,39.461-39.461,39.461h-80.838c-21.794,0-39.461-17.668-39.461-39.461v-80.838
		c0-21.794,17.668-39.461,39.461-39.461h80.838c21.794,0,39.461,17.667,39.461,39.461V461.364L377.52,461.364z"/>
	<path d="M297.64,369.218c-28.522,0-51.727,23.205-51.727,51.727c0,28.522,23.205,51.727,51.727,51.727s51.727-23.205,51.727-51.727
		S326.162,369.218,297.64,369.218z M297.64,452.552c-17.456,0-31.607-14.151-31.607-31.607s14.151-31.607,31.607-31.607
		c17.456,0,31.607,14.151,31.607,31.607C329.247,438.401,315.096,452.552,297.64,452.552z"/>
	<circle cx="349.467" cy="369.606" r="12.395"/>
</g>
</svg>
