<?xml version="1.0" encoding="utf-8"?>
<!-- Generator: Adobe Illustrator 17.0.0, SVG Export Plug-In . SVG Version: 6.00 Build 0)  -->
<!DOCTYPE svg PUBLIC "-//W3C//DTD SVG 1.1//EN" "http://www.w3.org/Graphics/SVG/1.1/DTD/svg11.dtd">
<svg version="1.1" id="Layer_1" xmlns="http://www.w3.org/2000/svg" xmlns:xlink="http://www.w3.org/1999/xlink" x="0px" y="0px"
	 width="200px" height="200px" viewBox="156 156 200 200" enable-background="new 156 156 200 200" xml:space="preserve">
<g>
	<path fill="#0077B5" d="M355.95,356v-0.008H356v-73.35c0-35.883-7.725-63.525-49.675-63.525c-20.167,0-33.7,11.067-39.225,21.558
		h-0.583v-18.208h-39.775v133.525h41.417v-66.117c0-17.408,3.3-34.242,24.858-34.242c21.242,0,21.558,19.867,21.558,35.358V356
		L355.95,356z"/>
	<path fill="#0077B5" d="M159.3,222.475h41.467V356H159.3V222.475z"/>
	<path fill="#0077B5" d="M180.017,156C166.758,156,156,166.758,156,180.017s10.758,24.242,24.017,24.242
		s24.017-10.983,24.017-24.242C204.025,166.758,193.267,156,180.017,156z"/>
</g>
</svg>
