<?xml version="1.0" encoding="utf-8"?>
<!-- Generator: Adobe Illustrator 17.0.0, SVG Export Plug-In . SVG Version: 6.00 Build 0)  -->
<!DOCTYPE svg PUBLIC "-//W3C//DTD SVG 1.1//EN" "http://www.w3.org/Graphics/SVG/1.1/DTD/svg11.dtd">
<svg version="1.1" id="Layer_1" xmlns="http://www.w3.org/2000/svg" xmlns:xlink="http://www.w3.org/1999/xlink" x="0px" y="0px"
	 width="243px" height="60.5px" viewBox="0 0 243 60.5" enable-background="new 0 0 243 60.5" xml:space="preserve">
<path fill="#EE9134" d="M211.597,27.234l-3.317,3.823c0,0-4.498,5.228-4.216,9.614s0.225,2.755,0.225,2.755l4.16-3.992
	c0,0-1.068-5.622,2.923-9.782c3.992-4.16,6.353-6.915,9.782-9.614c3.429-2.699,7.196-4.048,7.196-4.048s2.024-1.293,2.305-1.462
	s1.293-0.731,1.293-0.731s0.675-0.45,0.161,0.387c-0.569,0.927-1.398,2.481-1.904,3.211c-0.231,0.333-2.305,3.036-2.699,4.329
	s-0.618,3.373-0.618,3.654c0,0.281,4.329-3.767,4.329-3.767s-0.269-1.949,1.012-4.273c1.518-2.755,3.935-6.24,3.935-6.24
	s1.518-2.923-1.068-2.417s-13.099,2.474-13.099,2.474l-4.104,4.329c0,0,10.682-2.811,12.649-2.867
	c1.968-0.056-0.225,0.562-0.225,0.562l-1.574,0.731C228.744,13.91,218.287,18.801,211.597,27.234z"/>
<g>
	<path fill="#452F27" d="M24.016,15.288c-0.151-0.042-0.252-0.063-0.303-0.063h-0.151c-0.101,0.063-0.202,0.105-0.303,0.125
		c0.252,0.168,0.555,0.252,0.908,0.252h0.151c0.1-0.021,0.201-0.062,0.302-0.125c-0.101-0.021-0.202-0.063-0.302-0.127
		C24.268,15.351,24.167,15.33,24.016,15.288z"/>
	<path fill="#452F27" d="M27.761,18.138c-0.101-0.101-0.227-0.202-0.378-0.303c-0.126-0.024-0.265-0.076-0.416-0.151l0.038-0.151
		h0.53c-0.025-0.202-0.076-0.403-0.151-0.605c-0.151-0.076-0.303-0.126-0.454-0.151c0-0.076,0.032-0.126,0.095-0.151h0.473v-1.248
		c-0.265-0.101-0.476-0.151-0.634-0.151h-1.467c-0.105,0.025-0.211,0.076-0.317,0.151l-0.079,0.227h1.589v4.048l-0.265,0.151
		l0.265,0.151v2.156c0.171,0.101,0.294,0.151,0.368,0.151h0.737c0.049-0.176,0.147-0.328,0.295-0.454l-0.227-0.151V18.138z"/>
	<path fill="#452F27" d="M21.67,31.11v-4.295l0.227-0.152v-0.304c-0.076-0.076-0.151-0.126-0.227-0.153v-1.862l-0.227-0.152
		l-0.038-0.152l0.053-0.152l0.211-0.152v-0.304l-0.211-0.152l-0.053-0.152l0.038-0.152l0.227-0.152v-7.222
		c0.076-0.021,0.151-0.062,0.227-0.125l0.038-0.095c-0.151,0-0.448-0.026-0.889-0.079c-0.441-0.053-0.775-0.079-1.002-0.079h-4.426
		c-0.378,0.354-0.681,0.605-0.908,0.756v5.674c0.151,0.177,0.353,0.328,0.605,0.454h0.151c0.025-0.274,0.076-0.523,0.151-0.748
		c0.05-0.075,0.101-0.125,0.151-0.15l0.038-0.449l-0.038-0.486c-0.051-0.024-0.101-0.074-0.151-0.149v-0.449
		c0.126-0.049,0.189-0.125,0.189-0.225l-0.189-0.224v-0.449l0.189-0.15v-1.047l-0.189-0.149V17.36c0-0.049,0.032-0.111,0.095-0.187
		c0.062-0.075,0.095-0.162,0.095-0.262s-0.032-0.193-0.095-0.28c-0.063-0.087-0.095-0.144-0.095-0.168
		c0-0.05,0.044-0.137,0.133-0.261c0.088-0.125,0.145-0.225,0.17-0.3l0.303-0.149c0.504,0.024,1.173,0.012,2.005-0.038
		c0.958-0.074,1.614-0.112,1.967-0.112l0.416,0.038l0.038,0.226v0.188l-0.151,0.151v0.188l0.151,0.15l0.038,0.226
		c0,0.176-0.063,0.301-0.189,0.376v1.657l0.151,0.151l0.038,0.15c0,0.126-0.063,0.227-0.189,0.302v0.301
		c0.126,0.201,0.189,0.314,0.189,0.339l-0.027,0.113l-0.162,0.151v10.955h-3.967l-0.308,0.151l0.303,0.303
		c1.21,0.101,1.778,0.151,1.702,0.151c3.859,0,5.889-0.101,6.091-0.304l0.113-0.266C23.757,31.326,22.837,31.262,21.67,31.11z"/>
	<path fill="#452F27" d="M25.377,31.265c-0.202,0.076-0.404,0.227-0.605,0.454h1.06l0.34-0.303c-0.126-0.101-0.24-0.151-0.34-0.151
		H25.377z"/>
	<path fill="#452F27" d="M46.902,26.725h-1.135v1.21l-0.265,0.151v1.665l-0.341,0.151v1.249c-0.328,0.101-0.77,0.151-1.324,0.151
		h-5.637l-0.908-0.151v-6.885h3.896v2.156c0.1,0.101,0.227,0.202,0.378,0.303h0.454c0.101-0.025,0.202-0.076,0.303-0.151
		c0.025-0.353,0.076-0.655,0.151-0.908c0.05-0.076,0.1-0.126,0.151-0.151v-0.643c-0.051-0.025-0.101-0.076-0.151-0.151v-0.757
		l0.151-0.151l-0.151-0.151v-3.026c-0.115-0.076-0.257-0.139-0.429-0.189h-0.515c-0.086,0.101-0.143,0.215-0.171,0.34l-0.171,0.151
		v1.362c0.151,0.051,0.227,0.127,0.227,0.227c0,0.025-0.043,0.101-0.13,0.227c-0.087,0.126-0.143,0.227-0.167,0.303h-3.826v-1.232
		l-0.151-0.077l-0.151-0.077v-0.308c0.062-0.077,0.126-0.128,0.189-0.154v-0.808c-0.126-0.052-0.189-0.128-0.189-0.231v-0.077
		l0.189-0.154v-2.772l-0.189-0.154v-0.462c2.66-0.062,5.497-0.126,8.512-0.189v3.178l0.234,0.151c0.052,0.227,0.169,0.34,0.352,0.34
		c0.078,0,0.234-0.038,0.469-0.113l0.117-0.076v-2.27l-0.302-0.151v-1.665l-0.378-0.34c-2.673-0.101-3.998-0.151-3.972-0.151h-3.253
		c-0.605,0-1.513,0.025-2.724,0.076c-1.21,0.051-2.119,0.076-2.724,0.076c-0.101,0.073-0.202,0.123-0.303,0.146
		c-0.126,0.122-0.227,0.232-0.303,0.329v0.293c0.101,0.146,0.202,0.269,0.303,0.366h2.988v2.958l0.227,0.151v0.152
		c-0.076,0.076-0.151,0.127-0.227,0.152v11.34h-2.988l-0.303,0.151l-0.038,0.303l0.038,0.454c0.305,0.252,0.507,0.391,0.609,0.416
		h6.922c0.203-0.126,1.242-0.195,3.119-0.208c1.876-0.013,2.979-0.132,3.309-0.359v-0.605l-0.265-0.302
		c0-0.076,0.05-0.164,0.151-0.265l0.113-0.038v-1.854l0.227-0.151l-0.227-0.151l0.177-0.151c0.088-0.403,0.147-0.706,0.176-0.908
		c0.059-0.075,0.118-0.125,0.177-0.151v-0.454C47.104,26.876,47.002,26.776,46.902,26.725z"/>
	<path fill="#452F27" d="M65.741,30.47h-0.076c-0.101,0-0.252,0.025-0.454,0.076c-0.202,0.051-0.354,0.076-0.454,0.076
		c0.151,0-0.089-0.05-0.719-0.151c-0.076-0.101-0.177-0.202-0.303-0.303v-0.151l0.151-0.151l-0.151-0.151
		c-0.051-0.504-0.101-0.87-0.151-1.097l-0.151-0.151v-0.151l0.091-0.151l0.022-0.454l-0.037-0.454l-0.148-0.151
		c-0.025-0.151-0.074-0.303-0.148-0.454l-0.147-0.151c-0.32-0.479-0.616-0.832-0.887-1.059c-0.025-0.176-0.111-0.315-0.259-0.416
		c-0.271-0.076-0.48-0.139-0.628-0.189l-0.147-0.151c-0.05-0.024-0.136-0.038-0.259-0.038c-0.172,0-0.283,0.113-0.332,0.34
		l-0.148,0.151c0.731,0.404,1.135,0.757,1.211,1.059c0.05,0.025,0.1,0.076,0.151,0.151c0.076,0.328,0.126,0.581,0.151,0.757
		c0.05,0.076,0.101,0.126,0.151,0.151c0.176,0.479,0.277,0.731,0.303,0.756v0.303l-0.151,0.227c0,0.101,0.05,0.177,0.151,0.227
		c0.227,0.63,0.34,0.997,0.34,1.097l-0.038,0.302c-0.051,0.025-0.101,0.076-0.151,0.151v0.303c0.151,0.076,0.252,0.278,0.303,0.605
		c0.151,0.076,0.251,0.227,0.303,0.454c0.1,0.076,0.201,0.126,0.302,0.151h2.308c0.202,0,0.504-0.05,0.908-0.151l0.038-0.302
		C66.687,31.076,66.372,30.773,65.741,30.47z"/>
	<path fill="#452F27" d="M64.039,20.559c-0.025,0.227-0.076,0.429-0.151,0.605l-0.151,0.151c-0.076,0.479-0.467,0.952-1.173,1.418
		c-0.706,0.467-1.324,0.7-1.854,0.7c-0.151,0.101-0.252,0.202-0.303,0.303c-0.051,0.177-0.088,0.366-0.113,0.567
		c1.084-0.05,1.917-0.176,2.497-0.378c0.706-0.252,1.387-0.719,2.043-1.4c0.05-0.176,0.151-0.327,0.303-0.454
		c0.025-0.101,0.076-0.202,0.151-0.303c0.05-0.025,0.1-0.076,0.151-0.151c0.05-0.353,0.151-0.605,0.302-0.757v-2.308l-0.151-0.151
		c-0.076-0.151-0.126-0.303-0.151-0.454c-0.177-0.151-0.278-0.303-0.303-0.454c-0.151-0.126-0.252-0.277-0.303-0.454
		c-0.227-0.076-0.492-0.125-0.794-0.151v-0.076l0.189-0.227v-0.454c-1.034-1.034-2.522-1.551-4.464-1.551
		c-0.328,0-0.82,0.032-1.475,0.094c-0.656,0.063-1.148,0.095-1.476,0.095c-0.303,0-0.77-0.031-1.399-0.095
		c-0.631-0.062-1.123-0.094-1.476-0.094l-1.173,0.038c-0.025,0.051-0.076,0.101-0.151,0.151c-0.479,0.076-0.832,0.126-1.059,0.151
		c-0.101,0.051-0.202,0.151-0.303,0.303v0.302c0.101,0.151,0.202,0.252,0.303,0.303l2.989,0.303v7.755l0.227,0.151v0.341
		c-0.076,0.025-0.151,0.076-0.227,0.151v4.842l0.227,0.189l-0.182,0.151l-0.045,0.227l0.045,0.227l0.182,0.151l-0.076,0.303
		c-0.025,0-0.378,0-1.06,0c-0.555-0.025-1.009-0.025-1.362,0c-0.479,0.048-0.82,0.167-1.021,0.358l-0.038,0.358l0.038,0.358
		c0.202,0.191,0.403,0.287,0.605,0.287l6.242-0.151c0.227-0.076,0.429-0.227,0.605-0.454l0.038-0.151l-0.037-0.151l-0.111-0.189
		l-0.184-0.113H55.83V24.61c-0.101-0.076-0.202-0.127-0.303-0.153c-0.025-0.076-0.013-0.127,0.038-0.153h3.783
		c0.101-0.07,0.202-0.174,0.303-0.313v-0.557c-0.429-0.126-1.602-0.189-3.518-0.189l-0.303-0.15V21.89l0.151-0.151v-0.151
		l-0.151-0.15v-3.952l0.151-0.15l-0.151-0.151v-1.054l0.113-0.113c0.454-0.125,1.008-0.188,1.665-0.188h3.253
		c0.176,0,0.479,0.095,0.908,0.284c0.429,0.189,0.681,0.347,0.757,0.473l0.454,0.151c0.076,0.051,0.125,0.101,0.151,0.151
		l0.454,0.151c0.101,0.328,0.151,0.581,0.151,0.757l0.151,0.151c0.05,0.202,0.101,0.454,0.151,0.756
		c0.05,0.076,0.113,0.126,0.189,0.151v1.551C64.152,20.433,64.089,20.483,64.039,20.559z"/>
	<path fill="#452F27" d="M85.412,30.522c-0.278-0.275-0.713-0.45-1.305-0.525c-0.593-0.075-1.002-0.213-1.229-0.413v-1.651
		c-0.101-0.024-0.202-0.075-0.303-0.15v-0.15l0.242-0.151l0.061-0.151l-0.043-0.151l-0.259-0.151v-1.21
		c-0.076-0.025-0.151-0.076-0.227-0.151c-0.051-0.479-0.101-0.833-0.151-1.06c-0.051-0.075-0.101-0.125-0.151-0.151
		c-0.025-0.227-0.076-0.441-0.151-0.643l-0.151-0.151c-0.025-0.101-0.076-0.202-0.151-0.303c-0.151-0.176-0.252-0.328-0.302-0.454
		c-0.177-0.303-0.278-0.554-0.303-0.756c-0.126-0.126-0.278-0.227-0.454-0.303c-0.025-0.403-0.076-0.757-0.151-1.06
		c-0.051-0.075-0.101-0.125-0.151-0.151c-0.202-0.63-0.303-0.908-0.303-0.833c0-0.101,0.05-0.176,0.151-0.227v-0.454
		c-0.051-0.076-0.101-0.126-0.151-0.151c-0.075-0.227-0.126-0.492-0.151-0.794c-0.151-0.076-0.252-0.277-0.303-0.605
		c-0.076-0.076-0.151-0.126-0.227-0.151v-1.513l-0.227-0.151c0.076-0.025,0.151-0.076,0.227-0.151v-0.454
		c-0.154-0.076-0.308-0.126-0.462-0.151c-0.461-0.403-0.782-0.605-0.961-0.605l-0.154-0.151H77.63c-0.487,0-0.885,0.252-1.192,0.755
		c-0.18,0.303-0.282,0.555-0.308,0.755c-0.051,0.025-0.103,0.076-0.154,0.151c-0.077,0.479-0.129,0.831-0.154,1.057
		c-0.051,0.076-0.103,0.126-0.153,0.151c-0.052,0.479-0.103,0.831-0.154,1.057c-0.051,0.076-0.103,0.126-0.154,0.151
		c-0.077,0.478-0.128,0.843-0.154,1.095c-0.18,0.302-0.282,0.554-0.308,0.754c-0.077,0.076-0.154,0.126-0.231,0.151v1.662
		l-0.113,0.037l-0.113,0.114c-0.076,0.227-0.126,0.529-0.151,0.906c-0.051,0.076-0.101,0.126-0.151,0.151
		c-0.076,0.403-0.126,0.705-0.151,0.906l-0.227,0.188v1.208l-0.303,0.151v1.359l-0.255,0.151c-0.085,0.151-0.156,0.283-0.213,0.396
		c-0.057,0.114-0.127,0.183-0.212,0.208v1.359l-0.221,0.151c-0.099,0.277-0.16,0.491-0.185,0.642l-0.295,0.151
		c-1.278,0.151-2.016,0.402-2.213,0.754l-0.037,0.454l0.038,0.453c0.05,0.126,0.151,0.227,0.303,0.302
		c0.353,0.126,0.554,0.213,0.605,0.264h0.454c0.504,0,1.268-0.044,2.289-0.131c1.021-0.087,1.784-0.131,2.289-0.131
		c0.126-0.25,0.227-0.412,0.302-0.487c0.076-0.075,0.126-0.163,0.151-0.263l0.151-0.15l0.038-0.338l-0.04-0.263l-0.118-0.112
		c-0.712-0.15-1.251-0.263-1.621-0.338v-1.388l0.227-0.15l-0.227-0.15v-0.113c0,0.05,0.025-0.163,0.077-0.638h5.63l0.383,0.3v1.651
		l0.227,0.188v0.15c-0.101,0.025-0.202,0.075-0.303,0.149c-0.883,0.076-1.438,0.226-1.665,0.451v1.351l0.303,0.15
		c2.471,0.175,4.325,0.263,5.561,0.263h0.378c0.05-0.3,0.151-0.488,0.303-0.562c0.05-0.226,0.151-0.375,0.303-0.451l0.038-0.337
		l-0.038-0.263C85.715,30.598,85.563,30.548,85.412,30.522z M80.078,25.363l-0.302,0.303c-0.252,0-0.65,0.025-1.192,0.076
		c-0.542,0.051-0.965,0.076-1.267,0.076H76.56c-0.025,0.051-0.076,0.101-0.151,0.151h-0.454c-0.051-0.101-0.126-0.151-0.227-0.151
		c-0.025,0-0.083,0.025-0.17,0.076c-0.089,0.051-0.158,0.088-0.208,0.113v-1.892l0.141-0.151c0.07-0.403,0.117-0.706,0.14-0.908
		c0.07-0.076,0.141-0.126,0.211-0.151v-1.362l0.161-0.076l0.081-0.076c0.081-0.403,0.134-0.706,0.161-0.908
		c0.081-0.076,0.161-0.126,0.241-0.151v-1.21l0.232-0.151c0.078-0.227,0.129-0.492,0.155-0.794c0.052-0.025,0.103-0.076,0.155-0.151
		c0.077-0.227,0.128-0.53,0.155-0.908l0.155-0.151c0.077-0.251,0.129-0.554,0.155-0.908h0.155l0.426,0.303v1.513
		c0.07,0.025,0.14,0.076,0.211,0.151c0.046,0.505,0.14,0.82,0.281,0.946v0.302c-0.126,0.127-0.189,0.202-0.189,0.227
		c0,0.051,0.062,0.126,0.189,0.227c0.025,0.278,0.076,0.53,0.151,0.757c0.05,0.025,0.101,0.076,0.151,0.151
		c0.025,0.353,0.076,0.656,0.151,0.908l0.227,0.151v1.21l0.303,0.151v1.4c0.176,0.126,0.303,0.328,0.378,0.605
		c0.101,0.051,0.151,0.126,0.151,0.227V25.363z M81.289,23.51l-0.076,0.076l-0.076-0.076l0.076-0.076
		c0.05,0,0.076,0.013,0.076,0.038V23.51z"/>
	<path fill="#452F27" d="M104.213,18.478c-0.378-0.353-0.58-0.605-0.605-0.756l-0.151-0.151c-0.126-0.454-0.214-0.681-0.265-0.681
		h-0.114l-0.265-0.151l-0.114-0.227c-0.706-0.58-1.223-1.034-1.551-1.362c-0.076-0.025-0.524-0.139-1.343-0.341
		c-0.82-0.201-1.243-0.302-1.268-0.302c-0.555,0-1.399,0.057-2.535,0.17c-1.135,0.114-1.98,0.17-2.534,0.17h-0.076
		c-0.227-0.101-0.378-0.151-0.454-0.151h-2.913c-0.126,0-0.328,0.101-0.605,0.303l-0.038,0.303l0.038,0.302
		c0.251,0.227,0.542,0.366,0.87,0.417c0.251,0.051,0.58,0.063,0.983,0.038c0.58,0,0.933,0,1.059,0l0.378,0.226v8.17
		c0.076,0.05,0.151,0.113,0.227,0.188v0.301c-0.076,0.076-0.151,0.126-0.227,0.151v5.309c-1.337,0.176-2.333,0.276-2.989,0.301
		c-0.025,0.101-0.069,0.182-0.132,0.245c-0.063,0.063-0.12,0.132-0.17,0.207v0.302c0.176,0.251,0.378,0.452,0.605,0.602h5.939
		c0.756,0,1.374-0.151,1.854-0.454V31c-0.202-0.227-0.404-0.378-0.605-0.454c-1.161,0-2.132-0.099-2.913-0.298
		c0.076-0.05,0.126-0.1,0.151-0.149c0.076-0.423,0.126-0.734,0.151-0.933c0.025-0.049,0.076-0.099,0.151-0.149
		c-0.151-0.024-0.303-0.074-0.454-0.149V28.83c0-0.025,0.076-0.112,0.227-0.261v-0.298c-0.151-0.05-0.227-0.125-0.227-0.224v-0.075
		c0.076-0.074,0.151-0.125,0.227-0.149v-2.611h3.896c0.202-0.025,0.655-0.088,1.362-0.189c0.53-0.076,0.983-0.114,1.362-0.114
		c0.454-0.227,0.706-0.492,0.756-0.794c0.63-0.201,1.06-0.428,1.287-0.681c0.353-0.378,0.693-0.757,1.021-1.135
		c0.076-0.277,0.126-0.479,0.151-0.605l0.151-0.151v-2.308l-0.151-0.151C104.289,18.806,104.238,18.605,104.213,18.478z
		 M102.7,20.483l-0.151,0.151c-0.076,0.227-0.126,0.479-0.151,0.756c-0.303,0.252-0.467,0.404-0.492,0.454
		c-0.126,1.236-1.689,1.854-4.69,1.854h-1.249c-1.009,0-1.564-0.062-1.665-0.188v-0.301c0.076-0.025,0.151-0.075,0.227-0.151v-0.452
		c-0.076-0.025-0.151-0.075-0.227-0.151v-0.752l0.113-0.113l0.114-0.038v-1.355l0.227-0.15v-1.243l-0.227-0.151v-0.301
		c0.038-0.05,0.113-0.101,0.227-0.151l-0.151-0.15c-0.126-0.351-0.227-0.552-0.303-0.603l0.227-0.15
		c-0.284-0.176-0.461-0.339-0.532-0.49c-0.071-0.15-0.121-0.401-0.149-0.753l0.303,0.03c0.05,0.081,0.126,0.121,0.227,0.121h0.076
		c0.126-0.151,0.277-0.252,0.454-0.303h1.778c0.378,0,0.933,0.025,1.665,0.076c0.731,0.051,1.261,0.076,1.589,0.076
		c0.025,0.051,0.076,0.101,0.151,0.151c0.655,0.101,1.059,0.303,1.21,0.605c0.328,0.151,0.58,0.252,0.756,0.302l0.189,0.303
		l0.227,0.151v1.362l0.227,0.151V20.483z"/>
	<path fill="#452F27" d="M122.145,31.454c-0.101-0.428-0.328-0.643-0.681-0.643c-0.227,0-0.454,0.076-0.681,0.227h-2.308
		c-0.252,0-0.757-0.05-1.513-0.152v-1.251c0.05-0.024,0.1-0.076,0.151-0.152v-0.303c-0.051-0.076-0.101-0.126-0.151-0.152v-1.062
		l0.151-0.152v-8.116l-0.121-0.152l-0.03-0.303c0-0.228,0.05-0.379,0.151-0.455V18.18l-0.151-0.152v-1.099l0.151-0.152
		c-0.101-0.127-0.151-0.202-0.151-0.228L117,16.474c0.1-0.076,0.2-0.127,0.3-0.152c-0.076,0,0.375,0.013,1.352,0.038
		c0.8,0.025,1.426,0.025,1.877,0c0.676-0.024,1.063-0.086,1.164-0.185c0.074-0.319,0.175-0.638,0.3-0.958v-0.073
		c-0.53-0.123-1.274-0.185-2.232-0.185c-0.151,0-0.366,0-0.643,0c-0.328,0-0.543,0-0.643,0c-0.252-0.1-0.581-0.151-0.984-0.151
		c-0.202,0-0.492,0.057-0.87,0.17c-0.378,0.113-0.656,0.17-0.832,0.17c-0.252,0-0.65-0.057-1.192-0.17
		c-0.542-0.113-0.952-0.17-1.229-0.17c-1.16,0-2.005,0.104-2.534,0.311c-0.101,0.31-0.404,0.621-0.908,0.93l0.151,0.156v0.155
		l-0.151,0.113h1.4c0.454,0,1.128-0.05,2.024-0.151c0.895-0.1,1.57-0.151,2.024-0.151h0.189c0.126,0.063,0.227,0.126,0.303,0.189
		v2.308l-0.265,0.151v6.09l-0.189,0.151l0.189,0.151v5.826h-4.459c-0.203,0.098-0.407,0.294-0.61,0.588l-0.038,0.367l0.038,0.331
		c0.403,0.101,0.681,0.151,0.832,0.151h1.513c0.958,0,2.421-0.025,4.388-0.076c1.967-0.051,3.443-0.076,4.426-0.076l0.303-0.151
		c0.202-0.353,0.303-0.517,0.303-0.492C122.296,31.581,122.245,31.505,122.145,31.454z"/>
	<path fill="#452F27" d="M142.27,30.522c-0.278-0.275-0.713-0.45-1.305-0.525c-0.593-0.075-1.002-0.213-1.229-0.413v-1.651
		c-0.101-0.024-0.202-0.075-0.303-0.15v-0.15l0.242-0.151l0.061-0.151l-0.043-0.151l-0.259-0.151v-1.21
		c-0.076-0.025-0.151-0.076-0.227-0.151c-0.051-0.479-0.101-0.833-0.151-1.06c-0.051-0.075-0.101-0.125-0.151-0.151
		c-0.025-0.227-0.076-0.441-0.151-0.643l-0.151-0.151c-0.025-0.101-0.076-0.202-0.151-0.303c-0.151-0.176-0.252-0.328-0.302-0.454
		c-0.177-0.303-0.278-0.554-0.303-0.756c-0.126-0.126-0.278-0.227-0.454-0.303c-0.025-0.403-0.076-0.757-0.151-1.06
		c-0.051-0.075-0.101-0.125-0.151-0.151c-0.202-0.63-0.303-0.908-0.303-0.833c0-0.101,0.05-0.176,0.151-0.227v-0.454
		c-0.051-0.076-0.101-0.126-0.151-0.151c-0.075-0.227-0.126-0.492-0.151-0.794c-0.151-0.076-0.252-0.277-0.303-0.605
		c-0.076-0.076-0.151-0.126-0.227-0.151v-1.513l-0.227-0.151c0.076-0.025,0.151-0.076,0.227-0.151v-0.454
		c-0.154-0.076-0.308-0.126-0.462-0.151c-0.461-0.403-0.782-0.605-0.961-0.605l-0.154-0.151h-0.039
		c-0.487,0-0.885,0.252-1.192,0.755c-0.18,0.303-0.282,0.555-0.308,0.755c-0.051,0.025-0.103,0.076-0.154,0.151
		c-0.077,0.479-0.129,0.831-0.154,1.057c-0.051,0.076-0.103,0.126-0.153,0.151c-0.052,0.479-0.103,0.831-0.154,1.057
		c-0.051,0.076-0.103,0.126-0.154,0.151c-0.077,0.478-0.128,0.843-0.154,1.095c-0.18,0.302-0.282,0.554-0.308,0.754
		c-0.077,0.076-0.154,0.126-0.231,0.151v1.662l-0.113,0.037l-0.113,0.114c-0.076,0.227-0.126,0.529-0.151,0.906
		c-0.051,0.076-0.101,0.126-0.151,0.151c-0.076,0.403-0.126,0.705-0.151,0.906l-0.227,0.188v1.208l-0.303,0.151v1.359l-0.255,0.151
		c-0.085,0.151-0.156,0.283-0.213,0.396c-0.057,0.114-0.127,0.183-0.212,0.208v1.359l-0.221,0.151
		c-0.099,0.277-0.16,0.491-0.185,0.642l-0.295,0.151c-1.278,0.151-2.016,0.402-2.213,0.754l-0.037,0.454l0.038,0.453
		c0.05,0.126,0.151,0.227,0.303,0.302c0.353,0.126,0.554,0.213,0.605,0.264h0.454c0.504,0,1.268-0.044,2.289-0.131
		c1.021-0.087,1.784-0.131,2.289-0.131c0.126-0.25,0.227-0.412,0.302-0.487c0.076-0.075,0.126-0.163,0.151-0.263l0.151-0.15
		l0.038-0.338l-0.04-0.263l-0.118-0.112c-0.712-0.15-1.251-0.263-1.621-0.338v-1.388l0.227-0.15l-0.227-0.15v-0.113
		c0,0.05,0.025-0.163,0.077-0.638h5.63l0.383,0.3v1.651l0.227,0.188v0.15c-0.101,0.025-0.202,0.075-0.303,0.149
		c-0.883,0.076-1.438,0.226-1.665,0.451v1.351l0.303,0.15c2.471,0.175,4.325,0.263,5.561,0.263h0.378
		c0.05-0.3,0.151-0.488,0.303-0.562c0.05-0.226,0.151-0.375,0.303-0.451l0.038-0.337l-0.038-0.263
		C142.572,30.598,142.421,30.548,142.27,30.522z M136.936,25.363l-0.302,0.303c-0.252,0-0.65,0.025-1.192,0.076
		c-0.542,0.051-0.965,0.076-1.267,0.076h-0.757c-0.025,0.051-0.076,0.101-0.151,0.151h-0.454c-0.051-0.101-0.126-0.151-0.227-0.151
		c-0.025,0-0.083,0.025-0.17,0.076c-0.089,0.051-0.158,0.088-0.208,0.113v-1.892l0.141-0.151c0.07-0.403,0.117-0.706,0.14-0.908
		c0.07-0.076,0.141-0.126,0.211-0.151v-1.362l0.161-0.076l0.081-0.076c0.081-0.403,0.134-0.706,0.161-0.908
		c0.081-0.076,0.161-0.126,0.241-0.151v-1.21l0.232-0.151c0.078-0.227,0.129-0.492,0.155-0.794c0.052-0.025,0.103-0.076,0.155-0.151
		c0.077-0.227,0.128-0.53,0.155-0.908l0.155-0.151c0.077-0.251,0.129-0.554,0.155-0.908h0.155l0.426,0.303v1.513
		c0.07,0.025,0.14,0.076,0.211,0.151c0.046,0.505,0.14,0.82,0.281,0.946v0.302c-0.126,0.127-0.189,0.202-0.189,0.227
		c0,0.051,0.062,0.126,0.189,0.227c0.025,0.278,0.076,0.53,0.151,0.757c0.05,0.025,0.101,0.076,0.151,0.151
		c0.025,0.353,0.076,0.656,0.151,0.908l0.227,0.151v1.21l0.303,0.151v1.4c0.176,0.126,0.303,0.328,0.378,0.605
		c0.101,0.051,0.151,0.126,0.151,0.227V25.363z M138.146,23.51l-0.076,0.076l-0.076-0.076l0.076-0.076
		c0.05,0,0.076,0.013,0.076,0.038V23.51z"/>
	<path fill="#452F27" d="M178.586,20.143v-1.362l-0.114-0.076l-0.113-0.076c-0.076-0.151-0.126-0.302-0.151-0.454
		c-0.151-0.151-0.303-0.315-0.454-0.492c-0.051-0.076-0.101-0.315-0.151-0.719c-0.127-0.1-0.227-0.251-0.303-0.454l-1.249-1.249
		c-0.378-0.126-0.631-0.227-0.756-0.303c-0.505-0.327-0.959-0.58-1.362-0.756c-0.126,0-0.403-0.025-0.832-0.076
		c-0.328-0.05-0.593-0.076-0.794-0.076h-0.076c-0.202,0.076-0.404,0.126-0.605,0.151c-0.025,0.051-0.076,0.101-0.151,0.151
		l-1.362,0.454c-0.076,0.051-0.126,0.101-0.151,0.151c-0.151,0.076-0.303,0.126-0.454,0.151c-0.707,0.581-1.224,1.047-1.551,1.4
		c-0.076,0.202-0.177,0.354-0.302,0.454c-0.076,0.202-0.177,0.354-0.303,0.454c-0.025,0.227-0.076,0.429-0.151,0.605
		c-0.051,0.025-0.101,0.076-0.151,0.151c-0.025,0.278-0.076,0.529-0.151,0.756c-0.051,0.076-0.101,0.126-0.151,0.151
		c-0.051,0.479-0.101,0.833-0.151,1.059c-0.051,0.076-0.101,0.126-0.151,0.151c-0.025,0.227-0.076,0.442-0.151,0.643
		c-0.177,0.303-0.278,0.555-0.302,0.757c-0.101,0.051-0.151,0.126-0.151,0.227c0,0.076,0.05,0.151,0.151,0.227l-0.151,0.151v3.027
		l0.151,0.189l-0.151,0.151l0.151,0.151c0.076,0.328,0.125,0.58,0.151,0.756c0.151,0.076,0.251,0.278,0.302,0.605
		c0.05,0.025,0.101,0.076,0.151,0.151c0.05,0.252,0.101,0.605,0.151,1.059c0.05,0.076,0.101,0.126,0.151,0.151
		c0.076,0.101,0.126,0.202,0.151,0.303c0.328,0.202,0.53,0.404,0.605,0.605l0.151,0.151c0.076,0.177,0.126,0.34,0.151,0.492
		c0.479,0.354,0.895,0.707,1.249,1.06c0.126,0.051,0.681,0.214,1.665,0.492c0.983,0.278,1.513,0.416,1.589,0.416
		c0.857,0,1.551-0.101,2.081-0.303c0.025-0.05,0.076-0.1,0.151-0.151l0.454-0.151L175.597,31l0.227-0.038L176.051,31
		c0.454-0.277,0.706-0.58,0.757-0.908c0.227-0.277,0.391-0.492,0.492-0.643c0.05-0.251,0.17-0.473,0.359-0.662
		c0.189-0.189,0.372-0.372,0.548-0.548c0.076-0.277,0.126-0.479,0.151-0.605l0.151-0.151c0.05-0.429,0.151-0.681,0.303-0.757v-0.303
		l-0.151-0.151l0.151-0.151c-0.126-0.075-0.189-0.189-0.189-0.34l0.038-0.113c0.126-0.151,0.277-0.265,0.454-0.34v-4.389
		c-0.076-0.05-0.151-0.189-0.227-0.416S178.712,20.168,178.586,20.143z M178.397,25.401l-0.038-0.075l0.038-0.076l0.113,0.076
		L178.397,25.401z M178.51,23.811c-0.051,0.076-0.101,0.126-0.151,0.151c-0.076,0.328-0.126,0.581-0.151,0.756
		c-0.202,0.151-0.354,0.252-0.454,0.303c-0.076,0.227-0.126,0.542-0.151,0.946c-0.151,0.151-0.252,0.404-0.303,0.757l-0.151,0.151
		c-0.076,0.202-0.139,0.391-0.189,0.567c-0.025,0.076-0.177,0.24-0.454,0.492c-0.076,0.328-0.126,0.581-0.151,0.757l-0.151,0.151
		c-0.051,0.227-0.24,0.455-0.567,0.682c-0.278,0.101-0.492,0.177-0.643,0.227l-0.151,0.189c-0.681,0.303-1.186,0.505-1.513,0.605
		h-1.097c-0.151,0-0.857-0.265-2.119-0.794l-0.151-0.303c-0.53-0.428-0.833-0.832-0.908-1.21c-0.354-0.303-0.555-0.655-0.605-1.059
		l-0.151-0.151c-0.051-0.479-0.101-0.833-0.151-1.059c-0.051-0.076-0.114-0.126-0.189-0.151c-0.025-0.303-0.076-0.567-0.151-0.794
		l-0.151-0.151v-4.88c0.227-0.202,0.391-0.353,0.492-0.454c0.076-0.202,0.177-0.353,0.303-0.454
		c0.025-0.151,0.076-0.303,0.151-0.454l0.151-0.151c0.024-0.151,0.075-0.302,0.151-0.454l0.151-0.151
		c0.227-0.454,0.429-0.757,0.605-0.908c0.025-0.201,0.177-0.416,0.455-0.643c0.63-0.227,1.135-0.428,1.514-0.605
		c0.672-0.018,1.032-0.03,1.102-0.035c1.237,0.009,2.108,0.371,2.607,1.091c0.353,0.227,0.542,0.441,0.567,0.642l0.757,0.756
		l-0.155,0.151c0.251,0.177,0.41,0.366,0.473,0.567c0.063,0.202,0.12,0.417,0.17,0.644l0.151,0.151
		c0.025,0.151,0.076,0.302,0.151,0.454l0.151,0.151c0.024,0.202,0.125,0.416,0.302,0.643c0.076,0.48,0.126,0.833,0.151,1.06
		c0.05,0.025,0.101,0.076,0.151,0.151v0.454c-0.101,0.051-0.151,0.127-0.151,0.227c0,0.076,0.05,0.151,0.151,0.227
		c0.05,0.228,0.151,0.379,0.303,0.455V23.811z"/>
	<path fill="#452F27" d="M199.013,14.847H198.9c-0.378,0-0.971-0.057-1.778-0.17c-0.808-0.113-1.413-0.17-1.816-0.17
		c-0.252,0-0.593,0.051-1.021,0.151c-0.505,0.101-0.845,0.164-1.021,0.189c-0.227,0.126-0.34,0.252-0.34,0.378l0.037,0.076
		c0.124,0.151,0.224,0.353,0.299,0.605c0.77-0.101,1.416-0.05,1.938,0.151c0.025,0.378,0.075,0.732,0.149,1.059
		c0.125,0.202,0.187,0.328,0.187,0.378c0,0.177-0.051,0.303-0.151,0.378v0.756l0.151,0.151l-0.151,0.151l0.121,0.151l0.03,0.151
		c0,0.025-0.051,0.139-0.151,0.34v0.303l0.151,0.151v1.362c-0.101,0.051-0.151,0.126-0.151,0.227c0,0.051,0.025,0.107,0.076,0.17
		c0.05,0.063,0.076,0.132,0.076,0.208c0,0.126-0.051,0.227-0.151,0.302v0.908c0.05,0.076,0.101,0.126,0.151,0.151
		c0.076,0.151,0.126,0.303,0.151,0.454l0.151,0.151l0.038,0.151l-0.038,0.151l-0.151,0.151l-0.038,0.227l0.206-0.038
		c0.274-0.176,0.438-0.441,0.494-0.794l0.247-0.151v-1.816l0.194-0.151l0.033-0.151l-0.045-0.151l-0.182-0.151v-0.151l0.227-0.151
		l-0.227-0.151v-4.729c0.202-0.101,0.87-0.151,2.005-0.151c0.303-0.101,0.504-0.202,0.605-0.303l0.038-0.302
		C199.24,14.998,199.165,14.847,199.013,14.847z"/>
	<path fill="#452F27" d="M192.507,23.056l-0.151-0.151c-0.076-0.151-0.126-0.303-0.151-0.454l-0.151-0.151
		c-0.076-0.227-0.126-0.479-0.151-0.756l-0.151-0.151l-0.189-0.454l-0.151-0.151c-0.025-0.151-0.076-0.302-0.151-0.454l-0.151-0.151
		c-0.051-0.504-0.151-0.819-0.303-0.946c-0.025-0.151-0.076-0.303-0.151-0.454l-0.151-0.151c-0.025-0.151-0.075-0.302-0.151-0.454
		c-0.051-0.025-0.101-0.076-0.151-0.151c-0.025-0.277-0.076-0.53-0.151-0.757c-0.051-0.025-0.101-0.076-0.151-0.151
		c-0.051-0.327-0.151-0.529-0.303-0.605c-0.151-0.479-0.252-0.731-0.303-0.757c-0.177-0.529-0.328-0.832-0.454-0.908h-1.476
		c0.05,0.354,0.189,0.605,0.416,0.756c0.151,0.025,0.303,0.076,0.454,0.151l0.151,0.303c0.176,0.303,0.277,0.555,0.303,0.757
		l0.151,0.151c0.076,0.404,0.125,0.707,0.151,0.908c0.05,0.076,0.101,0.126,0.151,0.151c0.101,0.252,0.202,0.404,0.303,0.454
		c0.176,0.53,0.328,0.946,0.454,1.249c0.151,0.101,0.252,0.252,0.303,0.454l0.151,0.151c0.076,0.227,0.125,0.479,0.151,0.756
		c0.151,0.076,0.252,0.227,0.303,0.454c0.277,0.252,0.454,0.467,0.53,0.643c0,0.051,0.025,0.34,0.076,0.87
		c0.227,0.252,0.391,0.454,0.492,0.605c0.05,0.504,0.151,0.82,0.303,0.945c0.025,0.101,0.076,0.202,0.151,0.303h0.151
		c0.1-0.227,0.201-0.391,0.302-0.492v-0.454c-0.051-0.024-0.101-0.076-0.151-0.151C192.583,23.585,192.532,23.333,192.507,23.056z"
		/>
	<path fill="#452F27" d="M196.819,25.477c0-0.076-0.069-0.164-0.208-0.265c-0.028-0.202-0.083-0.403-0.166-0.605l-0.083-0.038
		c-0.028,0-0.055,0.013-0.083,0.038c-0.028,0.101-0.083,0.202-0.166,0.303c-0.194,0.051-0.388,0.089-0.581,0.114v2.913
		c-0.051,0.025-0.101,0.076-0.151,0.151v0.303c0.05,0.076,0.101,0.126,0.151,0.151c0.025,0.126,0.015,0.227-0.028,0.303h-0.085
		c-0.205,0-0.359-0.202-0.461-0.605c-0.051-0.025-0.103-0.076-0.154-0.151c-0.077-0.327-0.128-0.58-0.153-0.756
		c-0.052-0.025-0.103-0.076-0.154-0.151l-0.154-0.454c-0.051-0.076-0.103-0.126-0.154-0.151l-0.153-0.454
		c-0.052-0.075-0.103-0.125-0.154-0.151l-0.154-0.454c-0.18-0.227-0.307-0.34-0.384-0.34c-0.128,0-0.256,0.113-0.384,0.34
		l-0.039,0.34l0.039,0.416c0.051,0.025,0.103,0.076,0.154,0.151c0.026,0.278,0.077,0.53,0.154,0.757
		c0.051,0.076,0.103,0.126,0.154,0.151c0.052,0.328,0.154,0.529,0.31,0.605c0.153,0.479,0.256,0.732,0.308,0.757l0.154,0.454
		c0.051,0.075,0.103,0.126,0.154,0.151l0.154,0.492c0.18,0.302,0.283,0.555,0.309,0.756c0.18,0.303,0.283,0.555,0.309,0.757
		c0.385,0.252,0.592,0.403,0.618,0.454h0.771l0.193-0.151l0.116-0.151v-1.362l-0.227-0.151l0.227-0.151v-1.551l-0.227-0.151
		l0.182-0.151l0.045-0.151l-0.045-0.151l-0.182-0.151v-0.454c0.151-0.076,0.227-0.227,0.227-0.454c0-0.151-0.016-0.252-0.045-0.303
		l-0.182-0.151v-0.454L196.819,25.477z"/>
	<path fill="#452F27" d="M186.378,15.906l0.34-0.151l-0.189-0.151c-0.025-0.176-0.076-0.327-0.151-0.454
		c-0.177-0.126-0.454-0.189-0.833-0.189c-0.328,0-0.706,0.063-1.135,0.189c-0.101,0.051-0.202,0.151-0.303,0.302v0.151
		c0.101,0.126,0.202,0.227,0.303,0.303H186.378z"/>
	<path fill="#452F27" d="M190.237,30.811l-0.189-0.113h-1.967c-0.051-0.706-0.151-1.122-0.303-1.249
		c0.101-0.05,0.151-0.126,0.151-0.227v-0.075l-0.121-0.151l-0.03-0.303l0.03-0.303c0.04-0.025,0.081-0.076,0.121-0.151v-0.454
		c-0.101-0.076-0.151-0.176-0.151-0.302l0.151-0.303v-0.303c-0.101-0.202-0.151-0.328-0.151-0.378l0.03-0.227l0.121-0.151v-0.075
		c0-0.101-0.051-0.176-0.151-0.227v-6.885l0.151-0.151v-0.605c-0.101-0.076-0.151-0.176-0.151-0.303l0.151-0.303v-0.303
		c-0.051-0.025-0.101-0.076-0.151-0.151c-0.076-0.302-0.126-0.655-0.151-1.059L187.4,16.02l-0.227,0.038l-0.189,0.114l-0.113,0.189
		v7.301l0.151,0.151v0.151c-0.051,0.076-0.101,0.126-0.151,0.151v6.431l-1.288,0.189c-0.65,0.076-1.04,0.165-1.17,0.265
		l-0.039,0.378l0.038,0.378c1.059,0.252,2.03,0.366,2.913,0.341l0.908-0.038l0.151-0.151c0.958,0.126,1.614,0.025,1.967-0.303
		l0.038-0.302L190.351,31L190.237,30.811z"/>
</g>
<g>
	<path fill="#452F27" d="M18.839,45.825v-0.5l-0.042-0.028l-0.042-0.028c-0.028-0.056-0.047-0.111-0.056-0.167
		c-0.057-0.056-0.113-0.116-0.169-0.181c-0.019-0.028-0.038-0.116-0.057-0.264c-0.047-0.037-0.084-0.092-0.113-0.167l-0.465-0.458
		c-0.141-0.046-0.235-0.083-0.282-0.111c-0.188-0.12-0.357-0.213-0.507-0.278c-0.047,0-0.15-0.009-0.31-0.028
		c-0.122-0.018-0.221-0.027-0.296-0.027h-0.028c-0.075,0.027-0.15,0.046-0.225,0.055c-0.01,0.019-0.028,0.037-0.057,0.056
		l-0.507,0.167c-0.028,0.019-0.047,0.037-0.057,0.056c-0.056,0.028-0.113,0.046-0.169,0.056c-0.263,0.213-0.456,0.384-0.578,0.514
		c-0.028,0.074-0.066,0.129-0.113,0.167c-0.028,0.074-0.065,0.13-0.112,0.167c-0.01,0.083-0.028,0.158-0.057,0.222
		c-0.019,0.009-0.038,0.028-0.056,0.056c-0.01,0.102-0.028,0.194-0.057,0.278c-0.019,0.027-0.038,0.046-0.056,0.055
		c-0.019,0.176-0.038,0.306-0.057,0.389c-0.019,0.028-0.038,0.047-0.056,0.056c-0.009,0.083-0.028,0.162-0.056,0.236
		c-0.066,0.111-0.104,0.204-0.113,0.277c-0.038,0.019-0.057,0.046-0.057,0.083c0,0.028,0.019,0.056,0.057,0.083l-0.057,0.056v1.111
		l0.057,0.069l-0.057,0.056l0.057,0.056c0.028,0.12,0.047,0.213,0.056,0.277c0.057,0.028,0.094,0.102,0.113,0.222
		c0.019,0.009,0.038,0.028,0.056,0.056c0.019,0.093,0.038,0.222,0.057,0.389c0.019,0.028,0.038,0.046,0.056,0.056
		c0.028,0.037,0.047,0.074,0.057,0.111c0.122,0.074,0.197,0.148,0.225,0.222l0.057,0.056c0.028,0.065,0.047,0.125,0.056,0.181
		c0.178,0.129,0.333,0.259,0.465,0.389c0.047,0.019,0.254,0.079,0.62,0.18c0.366,0.102,0.563,0.153,0.591,0.153
		c0.319,0,0.578-0.037,0.775-0.111c0.009-0.019,0.028-0.037,0.057-0.056l0.169-0.056l0.169-0.167l0.084-0.014l0.084,0.014
		c0.169-0.102,0.263-0.213,0.282-0.333c0.084-0.102,0.146-0.181,0.183-0.236c0.019-0.092,0.063-0.173,0.134-0.243
		c0.07-0.069,0.138-0.137,0.204-0.202c0.028-0.102,0.047-0.175,0.056-0.222l0.057-0.055c0.019-0.157,0.056-0.25,0.113-0.278V48.13
		l-0.057-0.056l0.057-0.056c-0.047-0.028-0.071-0.069-0.071-0.125l0.014-0.042c0.047-0.056,0.104-0.097,0.169-0.125v-1.61
		c-0.028-0.019-0.056-0.07-0.084-0.153C18.924,45.88,18.886,45.834,18.839,45.825z M18.769,47.755l-0.014-0.028l0.014-0.028
		l0.042,0.028L18.769,47.755z M18.812,47.171c-0.019,0.028-0.038,0.046-0.057,0.056c-0.028,0.121-0.047,0.213-0.056,0.278
		c-0.075,0.055-0.132,0.092-0.169,0.111c-0.028,0.083-0.047,0.199-0.057,0.347c-0.056,0.056-0.094,0.148-0.113,0.278l-0.056,0.056
		c-0.028,0.074-0.052,0.144-0.07,0.208c-0.01,0.028-0.066,0.088-0.169,0.181c-0.028,0.121-0.047,0.213-0.057,0.278l-0.056,0.056
		c-0.019,0.083-0.089,0.167-0.211,0.25c-0.104,0.037-0.183,0.065-0.239,0.083l-0.057,0.069c-0.253,0.111-0.441,0.185-0.563,0.222
		h-0.409c-0.056,0-0.319-0.097-0.789-0.292l-0.057-0.111c-0.197-0.157-0.31-0.305-0.338-0.444c-0.132-0.111-0.207-0.24-0.226-0.389
		l-0.056-0.056c-0.019-0.175-0.038-0.305-0.057-0.389c-0.019-0.028-0.042-0.046-0.07-0.055c-0.009-0.111-0.028-0.208-0.056-0.292
		l-0.057-0.055V45.77c0.084-0.074,0.146-0.13,0.183-0.167c0.028-0.074,0.066-0.13,0.113-0.167c0.009-0.055,0.028-0.111,0.056-0.167
		l0.056-0.056c0.009-0.055,0.028-0.111,0.057-0.167l0.056-0.056c0.084-0.167,0.16-0.277,0.226-0.333
		c0.009-0.074,0.066-0.153,0.169-0.236c0.234-0.083,0.422-0.158,0.563-0.222c0.24-0.006,0.37-0.011,0.404-0.013
		c0.464,0.002,0.791,0.135,0.978,0.4c0.131,0.083,0.202,0.162,0.211,0.236l0.282,0.277l-0.058,0.056
		c0.094,0.065,0.152,0.134,0.176,0.208c0.023,0.074,0.044,0.153,0.063,0.236l0.056,0.056c0.009,0.056,0.028,0.111,0.057,0.167
		l0.056,0.056c0.009,0.074,0.047,0.153,0.113,0.236c0.028,0.176,0.047,0.306,0.056,0.389c0.019,0.009,0.038,0.028,0.057,0.056v0.167
		c-0.038,0.019-0.057,0.046-0.057,0.083c0,0.027,0.019,0.055,0.057,0.083c0.019,0.083,0.056,0.139,0.113,0.167V47.171z"/>
	<path fill="#452F27" d="M29.165,49.602l-0.073-0.042h-0.884v-0.736c0.065-0.037,0.099-0.064,0.099-0.083
		c0-0.028-0.033-0.056-0.099-0.083V47.88c0.065-0.028,0.099-0.074,0.099-0.139v-0.055c-0.04-0.037-0.073-0.065-0.099-0.083v-0.68
		l0.084-0.056l-0.084-0.056v-0.5c-0.028-0.009-0.057-0.028-0.085-0.056c-0.028-0.176-0.142-0.306-0.34-0.389
		c-0.104-0.12-0.368-0.181-0.793-0.181h-0.227c-0.321,0.13-0.495,0.208-0.523,0.236c-0.132,0.019-0.219,0.07-0.262,0.153
		c-0.042,0.083-0.125,0.162-0.248,0.236l-0.056,0.111c-0.151,0.148-0.265,0.241-0.34,0.278h-0.057l0.07-0.056l-0.057-0.056
		c-0.028-0.083-0.047-0.176-0.056-0.277c-0.019-0.028-0.038-0.046-0.056-0.056l0.169-0.167v-0.111
		c-0.094-0.111-0.169-0.189-0.226-0.236c-0.329-0.037-0.47-0.056-0.422-0.056c-0.451,0-0.676,0.107-0.676,0.32l0.014,0.14
		l0.113,0.111c0.375-0.046,0.624-0.028,0.747,0.056v0.557l-0.057,0.056l0.057,0.056v0.446c-0.023,0.019-0.038,0.04-0.045,0.063
		c-0.007,0.023-0.011,0.062-0.011,0.118s0.004,0.093,0.011,0.111l0.045,0.056v0.112c-0.028,0.019-0.047,0.037-0.057,0.056v0.892
		c0.019,0.009,0.038,0.028,0.057,0.056v0.334l-0.057,0.056l0.057,0.07l-0.028,0.292c-0.414-0.019-0.69-0.005-0.831,0.041
		l-0.113,0.108V49.9c0.056,0.063,0.099,0.113,0.127,0.149l0.099,0.068c0.037,0,0.112,0.009,0.225,0.027s0.197,0.027,0.253,0.027
		c0.179,0,0.427-0.018,0.747-0.055c0.356-0.028,0.61-0.046,0.761-0.056l0.07-0.056l0.042-0.056l0.014-0.083l-0.014-0.083
		c-0.047-0.083-0.122-0.139-0.225-0.167h-0.62l-0.113-0.056l-0.014-0.125l0.014-0.167c0.009-0.019,0.028-0.037,0.057-0.056
		l-0.07-0.055l0.07-0.056l-0.07-0.056l0.07-0.056v-0.167c-0.047-0.018-0.07-0.046-0.07-0.083c0-0.028,0.023-0.056,0.07-0.083v-0.555
		c-0.047-0.028-0.07-0.056-0.07-0.083c0-0.009,0.013-0.032,0.04-0.069l0.03-0.014v-0.458c0.028-0.009,0.052-0.03,0.071-0.062
		c0.019-0.032,0.042-0.067,0.071-0.104c0.019-0.009,0.036-0.035,0.05-0.076c0.014-0.042,0.042-0.093,0.085-0.153
		c0.042-0.06,0.074-0.113,0.093-0.16c0.171-0.148,0.323-0.278,0.456-0.389c0.209-0.121,0.323-0.194,0.342-0.222
		c0.209-0.083,0.423-0.125,0.642-0.125c0.256,0,0.446,0.116,0.57,0.347v3.082l-0.226,0.111h-0.056
		c-0.094-0.046-0.202-0.069-0.324-0.069l-0.126,0.014l-0.071,0.042L26.87,49.81v0.111c0.019,0.037,0.037,0.064,0.056,0.083
		l0.071,0.056c0.216,0,0.537,0.009,0.965,0.028c0.427,0.019,0.749,0.028,0.965,0.028h0.057c0.103-0.056,0.178-0.111,0.225-0.167
		l0.014-0.139l-0.015-0.139L29.165,49.602z"/>
	<path fill="#452F27" d="M38.537,49.643h-0.056c-0.159,0-0.395,0.009-0.707,0.028s-0.548,0.028-0.707,0.028h-0.056l-0.112-0.111
		v-1.347l0.042-0.056l-0.042-0.055v-0.681l0.042-0.055c-0.057-0.046-0.094-0.102-0.113-0.167c-0.047-0.046-0.07-0.074-0.07-0.083
		c0-0.019,0.023-0.046,0.07-0.083l-0.056-0.056l0.169-0.111v-1.402l-0.042-0.056l0.042-0.055l-0.042-0.056v-0.389l0.042-0.056
		v-0.847c-0.084-0.092-0.16-0.148-0.226-0.167h-1.423c-0.047,0-0.12,0.009-0.218,0.028s-0.171,0.028-0.218,0.028
		c-0.038,0-0.094-0.009-0.169-0.028c-0.076-0.019-0.132-0.028-0.169-0.028h-0.028c-0.038,0.028-0.076,0.046-0.113,0.056
		c-0.019,0.083-0.057,0.139-0.113,0.167v0.278c0.094,0.093,0.17,0.153,0.227,0.18h0.865c0.028,0,0.076-0.011,0.142-0.035
		c0.066-0.023,0.113-0.035,0.142-0.035h0.624l0.113,0.069v1.222l-0.071,0.055v0.167c0.023,0.028,0.047,0.046,0.071,0.055v0.458
		l-0.071,0.055v0.333l0.071,0.056l-0.071,0.055l0.169,0.167c-0.019,0.009-0.038,0.027-0.057,0.055
		c-0.009,0.102-0.028,0.194-0.056,0.278l-0.057,0.056l0.071,0.055v0.569l-0.071,0.056l0.071,0.056v1.402h-1.184
		c-0.104-0.037-0.268-0.056-0.493-0.056c-0.291,0-0.47,0.059-0.535,0.177l-0.014,0.163l0.014,0.163l0.042,0.068l0.07,0.041h0.747
		c0.009,0,0.038-0.009,0.084-0.028s0.08-0.028,0.099-0.028c0.047,0,0.12,0.009,0.218,0.028s0.171,0.028,0.218,0.028h0.733
		c0.019,0,0.051-0.009,0.098-0.028c0.047-0.019,0.08-0.028,0.098-0.028c0.084,0,0.21,0.009,0.378,0.028
		c0.168,0.019,0.295,0.028,0.379,0.028h1.317l0.448-0.111v-0.389h-0.392C38.668,49.708,38.612,49.671,38.537,49.643z"/>
	<path fill="#452F27" d="M45.493,44.714c0.169,0.129,0.282,0.204,0.338,0.222h0.409c0.15-0.083,0.263-0.157,0.338-0.222v-0.181
		c-0.065-0.129-0.104-0.241-0.113-0.333c-0.056-0.056-0.094-0.148-0.112-0.278c-0.038-0.028-0.075-0.046-0.113-0.056h-0.409
		c-0.113,0-0.225,0.074-0.338,0.222c-0.057,0.176-0.094,0.269-0.113,0.278v0.111c0.019,0.028,0.038,0.046,0.056,0.056L45.493,44.714
		z"/>
	<path fill="#452F27" d="M48.578,49.739l-0.07-0.041l-0.479-0.014c-0.132,0-0.324,0.012-0.578,0.035
		c-0.253,0.023-0.437,0.035-0.549,0.035c-0.057,0-0.136,0-0.24,0c-0.103,0-0.183,0-0.239,0l-0.014-0.111v-0.097
		c0.009-0.028,0.028-0.051,0.056-0.07v-3.483l-0.112-0.056c-0.066,0-0.176-0.009-0.331-0.027c-0.155-0.019-0.275-0.028-0.359-0.028
		h-1.648l-0.112,0.042v0.415l0.112,0.057h1.311c0.065,0,0.169-0.009,0.31-0.028c0.141-0.018,0.244-0.027,0.31-0.027
		c0.038,0,0.056,0.006,0.056,0.017v0.052l-0.056,0.055v2.602c0.047,0.028,0.07,0.056,0.07,0.083c0,0.009-0.01,0.027-0.03,0.055
		l-0.04,0.028v0.454l-0.143,0.069h-0.642c-0.133,0-0.331-0.023-0.592-0.069c-0.262-0.046-0.454-0.069-0.578-0.069
		c-0.086,0-0.152,0.023-0.2,0.069c0,0.009-0.014,0.061-0.042,0.153c-0.01,0.056-0.034,0.097-0.071,0.125
		c0.122,0.056,0.197,0.162,0.226,0.319h4.395c0.16,0,0.268-0.05,0.324-0.149l0.014-0.163l-0.014-0.163L48.578,49.739z"/>
	<path fill="#452F27" d="M58.791,49.602l-0.073-0.042h-0.884v-0.736c0.065-0.037,0.099-0.064,0.099-0.083
		c0-0.028-0.033-0.056-0.099-0.083V47.88c0.065-0.028,0.099-0.074,0.099-0.139v-0.055c-0.04-0.037-0.073-0.065-0.099-0.083v-0.68
		l0.084-0.056l-0.084-0.056v-0.5c-0.028-0.009-0.057-0.028-0.085-0.056c-0.028-0.176-0.142-0.306-0.34-0.389
		c-0.104-0.12-0.368-0.181-0.793-0.181H56.39c-0.321,0.13-0.495,0.208-0.523,0.236c-0.132,0.019-0.219,0.07-0.262,0.153
		c-0.042,0.083-0.125,0.162-0.248,0.236L55.3,46.422c-0.151,0.148-0.265,0.241-0.34,0.278h-0.057l0.07-0.056l-0.057-0.056
		c-0.028-0.083-0.047-0.176-0.056-0.277c-0.019-0.028-0.038-0.046-0.056-0.056l0.169-0.167v-0.111
		c-0.094-0.111-0.169-0.189-0.226-0.236c-0.329-0.037-0.47-0.056-0.422-0.056c-0.451,0-0.676,0.107-0.676,0.32l0.014,0.14
		l0.113,0.111c0.375-0.046,0.624-0.028,0.747,0.056v0.557l-0.057,0.056l0.057,0.056v0.446c-0.023,0.019-0.038,0.04-0.045,0.063
		c-0.007,0.023-0.011,0.062-0.011,0.118s0.004,0.093,0.011,0.111l0.045,0.056v0.112c-0.028,0.019-0.047,0.037-0.057,0.056v0.892
		c0.019,0.009,0.038,0.028,0.057,0.056v0.334l-0.057,0.056l0.057,0.07l-0.028,0.292c-0.414-0.019-0.69-0.005-0.831,0.041
		l-0.113,0.108V49.9c0.056,0.063,0.099,0.113,0.127,0.149l0.099,0.068c0.037,0,0.112,0.009,0.225,0.027s0.197,0.027,0.253,0.027
		c0.179,0,0.427-0.018,0.747-0.055c0.356-0.028,0.61-0.046,0.761-0.056l0.07-0.056l0.042-0.056l0.014-0.083l-0.014-0.083
		c-0.047-0.083-0.122-0.139-0.225-0.167h-0.62l-0.113-0.056l-0.014-0.125l0.014-0.167c0.009-0.019,0.028-0.037,0.057-0.056
		l-0.07-0.055l0.07-0.056l-0.07-0.056l0.07-0.056v-0.167c-0.047-0.018-0.07-0.046-0.07-0.083c0-0.028,0.023-0.056,0.07-0.083v-0.555
		c-0.047-0.028-0.07-0.056-0.07-0.083c0-0.009,0.013-0.032,0.04-0.069l0.03-0.014v-0.458c0.028-0.009,0.052-0.03,0.071-0.062
		c0.019-0.032,0.042-0.067,0.071-0.104c0.019-0.009,0.036-0.035,0.05-0.076c0.014-0.042,0.042-0.093,0.085-0.153
		c0.042-0.06,0.074-0.113,0.093-0.16c0.171-0.148,0.323-0.278,0.456-0.389c0.209-0.121,0.323-0.194,0.342-0.222
		c0.209-0.083,0.423-0.125,0.642-0.125c0.256,0,0.446,0.116,0.57,0.347v3.082l-0.226,0.111h-0.056
		c-0.094-0.046-0.202-0.069-0.324-0.069l-0.126,0.014l-0.071,0.042l-0.056,0.097v0.111c0.019,0.037,0.037,0.064,0.056,0.083
		l0.071,0.056c0.216,0,0.537,0.009,0.965,0.028c0.427,0.019,0.749,0.028,0.965,0.028h0.057c0.103-0.056,0.178-0.111,0.225-0.167
		l0.014-0.139l-0.015-0.139L58.791,49.602z"/>
	<path fill="#452F27" d="M67.779,46.86c-0.056-0.037-0.094-0.092-0.113-0.166c-0.131-0.12-0.207-0.23-0.225-0.332l-0.113-0.11
		l-0.169-0.055c-0.028-0.018-0.047-0.037-0.057-0.055l-0.183-0.055c-0.028-0.055-0.104-0.092-0.226-0.11
		c-0.065-0.12-0.329-0.179-0.789-0.179c-0.479,0-0.761,0.079-0.845,0.236c-0.188,0.102-0.362,0.231-0.521,0.389
		c-0.084,0.13-0.16,0.222-0.225,0.278c-0.01,0.037-0.063,0.134-0.162,0.292s-0.167,0.25-0.205,0.278v1.055l-0.042,0.014
		l-0.042,0.042v0.167c0.019,0.027,0.038,0.046,0.057,0.055c0.028,0.121,0.047,0.213,0.056,0.278
		c0.019,0.028,0.038,0.046,0.057,0.056c0.065,0.102,0.103,0.157,0.112,0.167c0.028,0.056,0.047,0.111,0.057,0.167
		c0.065,0.083,0.103,0.144,0.113,0.181c0.094,0.083,0.146,0.134,0.155,0.153s0.033,0.079,0.07,0.18
		c0.207,0.111,0.319,0.186,0.338,0.222c0.234,0.074,0.408,0.13,0.521,0.167c0.009,0.019,0.028,0.037,0.057,0.056
		c0.122,0.019,0.216,0.032,0.282,0.042c0.019,0.037,0.047,0.056,0.084,0.056c0.422,0,0.761-0.06,1.014-0.18
		c0.282-0.158,0.559-0.315,0.831-0.472c0.019-0.074,0.057-0.129,0.113-0.167c0.009-0.074,0.047-0.153,0.113-0.236v-0.111
		c-0.038-0.056-0.075-0.093-0.113-0.111h-0.395c-0.028,0.038-0.047,0.076-0.056,0.113c-0.057,0.047-0.094,0.108-0.113,0.184
		c-0.179,0.066-0.315,0.123-0.409,0.17c-0.188,0.189-0.479,0.283-0.874,0.283c0.057,0-0.141-0.038-0.591-0.112
		c-0.197-0.158-0.353-0.271-0.465-0.336c-0.094-0.14-0.169-0.238-0.226-0.294c-0.009-0.056-0.028-0.112-0.056-0.168l-0.057-0.056
		c-0.009-0.084-0.028-0.159-0.056-0.224l-0.057-0.056v-0.448h2.109c0.028,0,0.075-0.009,0.141-0.028
		c0.066-0.019,0.113-0.028,0.142-0.028h0.75c0.037,0,0.107,0.009,0.211,0.028c0.105,0.019,0.18,0.028,0.226,0.028v-0.911
		c-0.066-0.055-0.104-0.11-0.113-0.166C67.835,46.989,67.798,46.934,67.779,46.86z M67.554,47.658c-0.094,0-0.247,0.009-0.458,0.028
		c-0.211,0.019-0.378,0.028-0.5,0.028c-0.038,0-0.089-0.009-0.155-0.028c-0.066-0.019-0.113-0.028-0.141-0.028h-1.761l-0.113-0.111
		c0.047-0.028,0.071-0.064,0.071-0.111l-0.014-0.056l-0.057-0.056l0.113-0.125c0.131-0.055,0.207-0.129,0.226-0.222l0.183-0.167
		c0.113-0.148,0.197-0.231,0.253-0.25l0.028-0.083c0.479-0.148,0.751-0.222,0.817-0.222c0.291,0,0.47,0.056,0.536,0.167
		c0.056,0.028,0.112,0.046,0.169,0.056c0.263,0.241,0.456,0.426,0.578,0.555c0.009,0.056,0.047,0.111,0.113,0.167
		c0.009,0.065,0.028,0.125,0.056,0.181c0.019,0.009,0.038,0.028,0.056,0.056V47.658z"/>
	<path fill="#452F27" d="M88.15,46.2c-0.084,0-0.209,0.021-0.374,0.062c-0.164,0.042-0.289,0.062-0.373,0.062
		c-0.104,0-0.207-0.023-0.31-0.069h-0.07c-0.084,0-0.193,0.009-0.324,0.028c-0.16,0.019-0.272,0.028-0.338,0.028l-0.014,0.028
		c0,0.055,0.061,0.102,0.183,0.139l-0.282,0.181c0.038,0.027,0.075,0.046,0.113,0.055c0.291-0.009,0.46,0.009,0.507,0.056
		l0.014,0.042c0-0.028-0.042,0.088-0.126,0.347l-0.028,0.028l-0.057,0.028v0.5l-0.084,0.055c-0.047,0.093-0.084,0.148-0.112,0.167
		c-0.057,0.213-0.094,0.324-0.113,0.333c-0.028,0.056-0.047,0.116-0.057,0.181c-0.019,0.009-0.038,0.027-0.056,0.055
		c-0.028,0.176-0.047,0.306-0.056,0.389c-0.066,0.111-0.104,0.204-0.113,0.278c-0.066,0.111-0.104,0.204-0.113,0.278l-0.084,0.014
		l-0.084-0.014c-0.057-0.074-0.099-0.129-0.127-0.167c-0.019-0.102-0.038-0.176-0.056-0.222l-0.057-0.056
		c-0.019-0.12-0.056-0.194-0.113-0.222c-0.028-0.111-0.047-0.241-0.056-0.389c-0.056-0.037-0.113-0.079-0.169-0.125
		c-0.028-0.102-0.047-0.176-0.057-0.222c-0.065-0.111-0.104-0.204-0.112-0.278c-0.057-0.064-0.094-0.12-0.113-0.167
		c-0.019-0.009-0.038-0.028-0.057-0.056c-0.028-0.12-0.047-0.213-0.056-0.277c-0.019-0.028-0.038-0.046-0.056-0.056
		c-0.028-0.056-0.047-0.111-0.057-0.167c-0.019-0.028-0.038-0.046-0.056-0.056v-0.222c0.385-0.056,0.591-0.092,0.62-0.111
		l0.014-0.153l-0.014-0.139l-0.042-0.069l-0.071-0.042H83.29c-0.094,0.038-0.169,0.095-0.226,0.171v0.115
		c0.009,0.029,0.028,0.052,0.057,0.071l-0.057,0.057v0.058l0.113,0.097h0.254c0.056,0,0.136-0.012,0.239-0.035
		s0.178-0.035,0.226-0.035l0.014,0.014c0.075,0.009,0.155,0.065,0.239,0.167c0.009,0.056,0.028,0.111,0.056,0.167l0.057,0.056
		c0.009,0.083,0.028,0.158,0.056,0.222c0.019,0.009,0.038,0.028,0.057,0.056c0.019,0.157,0.056,0.25,0.112,0.278
		c0.019,0.12,0.057,0.194,0.113,0.222c0.019,0.158,0.057,0.25,0.113,0.278c0.009,0.046,0.028,0.088,0.057,0.125
		c0.065,0.13,0.103,0.241,0.112,0.333c0.057,0.028,0.094,0.102,0.113,0.222c0.057,0.028,0.094,0.102,0.113,0.222
		c0.056,0.028,0.094,0.102,0.113,0.222c0.019,0.028,0.037,0.046,0.056,0.056c0.028,0.056,0.047,0.111,0.057,0.167
		c0.15,0.148,0.225,0.259,0.225,0.333l0.169,0.18l-0.056,0.056c-0.009,0.046-0.028,0.097-0.056,0.153l-0.057,0.056
		c-0.009,0.102-0.028,0.194-0.056,0.277l-0.057,0.056c-0.009,0.102-0.028,0.194-0.056,0.278c-0.019,0.028-0.038,0.046-0.056,0.055
		c-0.019,0.158-0.057,0.25-0.113,0.278c-0.01,0.139-0.028,0.25-0.057,0.333c-0.019,0.027-0.038,0.046-0.056,0.055
		c-0.009,0.065-0.028,0.125-0.056,0.181c-0.057,0.074-0.165,0.148-0.324,0.222c-0.16,0.074-0.287,0.111-0.38,0.111h-0.028
		c-0.207-0.074-0.399-0.129-0.578-0.167c-0.028-0.037-0.065-0.074-0.112-0.111v-0.056l0.408-0.236
		c0.009-0.056,0.028-0.111,0.057-0.167l0.056-0.055v-0.111l-0.056-0.056c-0.028-0.055-0.047-0.111-0.057-0.167
		c-0.056-0.037-0.117-0.074-0.183-0.111c-0.009-0.019-0.028-0.037-0.056-0.056H83.67c-0.15,0-0.277,0.019-0.38,0.056
		c-0.038,0.028-0.075,0.064-0.113,0.111c-0.028,0.102-0.047,0.176-0.056,0.222l-0.057,0.056v0.569l0.057,0.055l0.056,0.167
		c0.169,0.157,0.319,0.287,0.451,0.389c0.188,0.111,0.446,0.167,0.774,0.167c0.441,0,0.714-0.093,0.817-0.278
		c0.122-0.074,0.197-0.148,0.225-0.222l0.057-0.055c0.028-0.056,0.047-0.111,0.056-0.167l0.057-0.055
		c0.028-0.083,0.047-0.181,0.056-0.292c0.075-0.121,0.117-0.213,0.127-0.278l0.056-0.056c0.009-0.13,0.028-0.241,0.056-0.333
		l0.057-0.056c0.019-0.121,0.056-0.194,0.113-0.222c0.009-0.13,0.028-0.241,0.056-0.333c0.019-0.028,0.038-0.046,0.057-0.056
		c0.009-0.111,0.047-0.204,0.112-0.278c0.009-0.111,0.028-0.204,0.057-0.278c0.019-0.009,0.037-0.027,0.056-0.055
		c0.019-0.093,0.065-0.148,0.141-0.167v-0.556c0.084-0.056,0.15-0.111,0.197-0.167c0.056-0.176,0.094-0.269,0.112-0.278
		c0.028-0.157,0.047-0.273,0.057-0.347c0.028-0.027,0.056-0.046,0.084-0.055v-0.5l0.056-0.028c0.038-0.028,0.066-0.074,0.084-0.139
		l0.057-0.056c0.019-0.176,0.037-0.305,0.056-0.389c0.019-0.028,0.04-0.053,0.063-0.076c0.023-0.023,0.04-0.053,0.049-0.09h0.972
		v-0.569L88.234,46.2H88.15z"/>
	<path fill="#452F27" d="M107.21,46.86c-0.056-0.037-0.094-0.092-0.113-0.166c-0.131-0.12-0.207-0.23-0.225-0.332l-0.113-0.11
		l-0.169-0.055c-0.028-0.018-0.047-0.037-0.057-0.055l-0.183-0.055c-0.028-0.055-0.104-0.092-0.226-0.11
		c-0.065-0.12-0.329-0.179-0.789-0.179c-0.479,0-0.761,0.079-0.845,0.236c-0.188,0.102-0.362,0.231-0.521,0.389
		c-0.084,0.13-0.16,0.222-0.225,0.278c-0.01,0.037-0.063,0.134-0.162,0.292s-0.167,0.25-0.205,0.278v1.055l-0.042,0.014
		l-0.042,0.042v0.167c0.019,0.027,0.038,0.046,0.057,0.055c0.028,0.121,0.047,0.213,0.056,0.278
		c0.019,0.028,0.038,0.046,0.057,0.056c0.065,0.102,0.103,0.157,0.112,0.167c0.028,0.056,0.047,0.111,0.057,0.167
		c0.065,0.083,0.103,0.144,0.113,0.181c0.094,0.083,0.146,0.134,0.155,0.153s0.033,0.079,0.07,0.18
		c0.207,0.111,0.319,0.186,0.338,0.222c0.234,0.074,0.408,0.13,0.521,0.167c0.009,0.019,0.028,0.037,0.057,0.056
		c0.122,0.019,0.216,0.032,0.282,0.042c0.019,0.037,0.047,0.056,0.084,0.056c0.422,0,0.761-0.06,1.014-0.18
		c0.282-0.158,0.559-0.315,0.831-0.472c0.019-0.074,0.057-0.129,0.113-0.167c0.009-0.074,0.047-0.153,0.113-0.236v-0.111
		c-0.038-0.056-0.075-0.093-0.113-0.111h-0.395c-0.028,0.038-0.047,0.076-0.056,0.113c-0.057,0.047-0.094,0.108-0.113,0.184
		c-0.179,0.066-0.315,0.123-0.409,0.17c-0.188,0.189-0.479,0.283-0.874,0.283c0.057,0-0.141-0.038-0.591-0.112
		c-0.197-0.158-0.353-0.271-0.465-0.336c-0.094-0.14-0.169-0.238-0.226-0.294c-0.009-0.056-0.028-0.112-0.056-0.168l-0.057-0.056
		c-0.009-0.084-0.028-0.159-0.056-0.224l-0.057-0.056v-0.448h2.109c0.028,0,0.075-0.009,0.141-0.028
		c0.066-0.019,0.113-0.028,0.142-0.028h0.75c0.037,0,0.107,0.009,0.211,0.028c0.105,0.019,0.18,0.028,0.226,0.028v-0.911
		c-0.066-0.055-0.104-0.11-0.113-0.166C107.267,46.989,107.229,46.934,107.21,46.86z M106.985,47.658
		c-0.094,0-0.247,0.009-0.458,0.028c-0.211,0.019-0.378,0.028-0.5,0.028c-0.038,0-0.089-0.009-0.155-0.028
		c-0.066-0.019-0.113-0.028-0.141-0.028h-1.761l-0.113-0.111c0.047-0.028,0.071-0.064,0.071-0.111l-0.014-0.056l-0.057-0.056
		l0.113-0.125c0.131-0.055,0.207-0.129,0.226-0.222l0.183-0.167c0.113-0.148,0.197-0.231,0.253-0.25l0.028-0.083
		c0.479-0.148,0.751-0.222,0.817-0.222c0.291,0,0.47,0.056,0.536,0.167c0.056,0.028,0.112,0.046,0.169,0.056
		c0.263,0.241,0.456,0.426,0.578,0.555c0.009,0.056,0.047,0.111,0.113,0.167c0.009,0.065,0.028,0.125,0.056,0.181
		c0.019,0.009,0.038,0.028,0.056,0.056V47.658z"/>
	<path fill="#452F27" d="M117.93,49.602l-0.073-0.042h-0.884v-0.736c0.065-0.037,0.099-0.064,0.099-0.083
		c0-0.028-0.033-0.056-0.099-0.083V47.88c0.065-0.028,0.099-0.074,0.099-0.139v-0.055c-0.04-0.037-0.073-0.065-0.099-0.083v-0.68
		l0.084-0.056l-0.084-0.056v-0.5c-0.028-0.009-0.057-0.028-0.085-0.056c-0.028-0.176-0.142-0.306-0.34-0.389
		c-0.104-0.12-0.368-0.181-0.793-0.181h-0.227c-0.321,0.13-0.495,0.208-0.523,0.236c-0.132,0.019-0.219,0.07-0.262,0.153
		c-0.042,0.083-0.125,0.162-0.248,0.236l-0.056,0.111c-0.151,0.148-0.265,0.241-0.34,0.278h-0.057l0.07-0.056l-0.057-0.056
		c-0.028-0.083-0.047-0.176-0.056-0.277c-0.019-0.028-0.038-0.046-0.056-0.056l0.169-0.167v-0.111
		c-0.094-0.111-0.169-0.189-0.226-0.236c-0.329-0.037-0.47-0.056-0.422-0.056c-0.451,0-0.676,0.107-0.676,0.32l0.014,0.14
		l0.113,0.111c0.375-0.046,0.624-0.028,0.747,0.056v0.557l-0.057,0.056l0.057,0.056v0.446c-0.023,0.019-0.038,0.04-0.045,0.063
		c-0.007,0.023-0.011,0.062-0.011,0.118s0.004,0.093,0.011,0.111l0.045,0.056v0.112c-0.028,0.019-0.047,0.037-0.057,0.056v0.892
		c0.019,0.009,0.038,0.028,0.057,0.056v0.334l-0.057,0.056l0.057,0.07l-0.028,0.292c-0.414-0.019-0.69-0.005-0.831,0.041
		l-0.113,0.108V49.9c0.056,0.063,0.099,0.113,0.127,0.149l0.099,0.068c0.037,0,0.112,0.009,0.225,0.027s0.197,0.027,0.253,0.027
		c0.179,0,0.427-0.018,0.747-0.055c0.356-0.028,0.61-0.046,0.761-0.056l0.07-0.056l0.042-0.056l0.014-0.083l-0.014-0.083
		c-0.047-0.083-0.122-0.139-0.225-0.167h-0.62l-0.113-0.056l-0.014-0.125l0.014-0.167c0.009-0.019,0.028-0.037,0.057-0.056
		l-0.07-0.055l0.07-0.056l-0.07-0.056l0.07-0.056v-0.167c-0.047-0.018-0.07-0.046-0.07-0.083c0-0.028,0.023-0.056,0.07-0.083v-0.555
		c-0.047-0.028-0.07-0.056-0.07-0.083c0-0.009,0.013-0.032,0.04-0.069l0.03-0.014v-0.458c0.028-0.009,0.052-0.03,0.071-0.062
		c0.019-0.032,0.042-0.067,0.071-0.104c0.019-0.009,0.036-0.035,0.05-0.076c0.014-0.042,0.042-0.093,0.085-0.153
		c0.042-0.06,0.074-0.113,0.093-0.16c0.171-0.148,0.323-0.278,0.456-0.389c0.209-0.121,0.323-0.194,0.342-0.222
		c0.209-0.083,0.423-0.125,0.642-0.125c0.256,0,0.446,0.116,0.57,0.347v3.082l-0.226,0.111h-0.056
		c-0.094-0.046-0.202-0.069-0.324-0.069l-0.126,0.014l-0.071,0.042l-0.056,0.097v0.111c0.019,0.037,0.037,0.064,0.056,0.083
		l0.071,0.056c0.216,0,0.537,0.009,0.965,0.028c0.427,0.019,0.749,0.028,0.965,0.028h0.057c0.103-0.056,0.178-0.111,0.225-0.167
		l0.014-0.139l-0.015-0.139L117.93,49.602z"/>
	<path fill="#452F27" d="M136.78,46.86c-0.056-0.037-0.094-0.092-0.113-0.166c-0.131-0.12-0.207-0.23-0.225-0.332l-0.113-0.11
		l-0.169-0.055c-0.028-0.018-0.047-0.037-0.057-0.055l-0.183-0.055c-0.028-0.055-0.104-0.092-0.226-0.11
		c-0.065-0.12-0.329-0.179-0.789-0.179c-0.479,0-0.761,0.079-0.845,0.236c-0.188,0.102-0.362,0.231-0.521,0.389
		c-0.084,0.13-0.16,0.222-0.225,0.278c-0.01,0.037-0.063,0.134-0.162,0.292s-0.167,0.25-0.205,0.278v1.055l-0.042,0.014
		l-0.042,0.042v0.167c0.019,0.027,0.038,0.046,0.057,0.055c0.028,0.121,0.047,0.213,0.056,0.278
		c0.019,0.028,0.038,0.046,0.057,0.056c0.065,0.102,0.103,0.157,0.112,0.167c0.028,0.056,0.047,0.111,0.057,0.167
		c0.065,0.083,0.103,0.144,0.113,0.181c0.094,0.083,0.146,0.134,0.155,0.153s0.033,0.079,0.07,0.18
		c0.207,0.111,0.319,0.186,0.338,0.222c0.234,0.074,0.408,0.13,0.521,0.167c0.009,0.019,0.028,0.037,0.057,0.056
		c0.122,0.019,0.216,0.032,0.282,0.042c0.019,0.037,0.047,0.056,0.084,0.056c0.422,0,0.761-0.06,1.014-0.18
		c0.282-0.158,0.559-0.315,0.831-0.472c0.019-0.074,0.057-0.129,0.113-0.167c0.009-0.074,0.047-0.153,0.113-0.236v-0.111
		c-0.038-0.056-0.075-0.093-0.113-0.111h-0.395c-0.028,0.038-0.047,0.076-0.056,0.113c-0.057,0.047-0.094,0.108-0.113,0.184
		c-0.179,0.066-0.315,0.123-0.409,0.17c-0.188,0.189-0.479,0.283-0.874,0.283c0.057,0-0.141-0.038-0.591-0.112
		c-0.197-0.158-0.353-0.271-0.465-0.336c-0.094-0.14-0.169-0.238-0.226-0.294c-0.009-0.056-0.028-0.112-0.056-0.168l-0.057-0.056
		c-0.009-0.084-0.028-0.159-0.056-0.224l-0.057-0.056v-0.448h2.109c0.028,0,0.075-0.009,0.141-0.028
		c0.066-0.019,0.113-0.028,0.142-0.028h0.75c0.037,0,0.107,0.009,0.211,0.028c0.105,0.019,0.18,0.028,0.226,0.028v-0.911
		c-0.066-0.055-0.104-0.11-0.113-0.166C136.836,46.989,136.798,46.934,136.78,46.86z M136.554,47.658
		c-0.094,0-0.247,0.009-0.458,0.028c-0.211,0.019-0.378,0.028-0.5,0.028c-0.038,0-0.089-0.009-0.155-0.028
		c-0.066-0.019-0.113-0.028-0.141-0.028h-1.761l-0.113-0.111c0.047-0.028,0.071-0.064,0.071-0.111l-0.014-0.056l-0.057-0.056
		l0.113-0.125c0.131-0.055,0.207-0.129,0.226-0.222l0.183-0.167c0.113-0.148,0.197-0.231,0.253-0.25l0.028-0.083
		c0.479-0.148,0.751-0.222,0.817-0.222c0.291,0,0.47,0.056,0.536,0.167c0.056,0.028,0.112,0.046,0.169,0.056
		c0.263,0.241,0.456,0.426,0.578,0.555c0.009,0.056,0.047,0.111,0.113,0.167c0.009,0.065,0.028,0.125,0.056,0.181
		c0.019,0.009,0.038,0.028,0.056,0.056V47.658z"/>
	<path fill="#452F27" d="M146.965,48.164c-0.028-0.037-0.047-0.074-0.056-0.11c-0.047-0.037-0.084-0.092-0.113-0.167
		c-0.375-0.221-0.827-0.369-1.353-0.443c-0.263-0.037-0.742-0.06-1.437-0.069l-0.056-0.056c-0.16-0.027-0.291-0.12-0.395-0.276
		v-0.498l0.057-0.055c0.009-0.065,0.028-0.125,0.056-0.18c0.056-0.009,0.113-0.028,0.169-0.055l0.057-0.056
		c0.789-0.074,1.141-0.11,1.057-0.11c0.103,0,0.246,0.016,0.43,0.048c0.183,0.032,0.312,0.052,0.387,0.061l0.056,0.055
		c0.122,0.027,0.216,0.045,0.282,0.055l0.353,0.341c0.037,0.109,0.091,0.177,0.162,0.205c0.071,0.027,0.167,0.046,0.289,0.055
		v-1.222l-0.042-0.042c-0.028-0.009-0.08-0.014-0.155-0.014s-0.127,0.005-0.155,0.014l-0.042,0.042
		c-0.028,0.056-0.047,0.111-0.056,0.167c-0.047,0.037-0.099,0.056-0.155,0.056c-0.075-0.035-0.141-0.071-0.197-0.106
		c-0.3-0.142-0.563-0.213-0.789-0.213h-0.972c-0.028,0.009-0.155,0.033-0.38,0.069c-0.188,0.028-0.305,0.079-0.352,0.153
		l-0.169,0.056c-0.141,0.157-0.258,0.269-0.352,0.333c-0.009,0.083-0.028,0.16-0.056,0.233c-0.019,0.009-0.038,0.027-0.057,0.055
		v0.11l0.057,0.055l-0.057,0.055l0.057,0.055c-0.019,0.009-0.038,0.028-0.057,0.055v0.109c0.066,0.11,0.104,0.202,0.113,0.274
		c0.047,0.037,0.084,0.092,0.113,0.165c0.178,0.129,0.314,0.231,0.409,0.305c0.197,0.102,0.709,0.167,1.535,0.194
		c0.705,0.019,1.179,0.171,1.423,0.458c0.009,0.055,0.028,0.111,0.057,0.167l0.056,0.056l-0.056,0.055l-0.014,0.056l0.014,0.056
		l0.056,0.056l-0.056,0.055l-0.014,0.056l0.014,0.056l0.056,0.055c-0.047,0.037-0.084,0.093-0.113,0.167
		c-0.075,0.055-0.136,0.092-0.183,0.111c-0.056,0.065-0.199,0.13-0.43,0.194c-0.23,0.065-0.406,0.097-0.528,0.097h-0.747
		c-0.16,0-0.385-0.055-0.676-0.167c-0.028-0.019-0.047-0.042-0.056-0.069c-0.263-0.046-0.456-0.231-0.578-0.555l-0.084-0.056v-0.5
		c-0.132-0.12-0.31-0.185-0.535-0.194v0.583l0.056,0.056v0.5l-0.056,0.055c-0.028,0.102-0.047,0.181-0.057,0.236
		c-0.019,0.009-0.038,0.028-0.056,0.056v0.277c0.056,0.028,0.094,0.083,0.113,0.167l0.141,0.014l0.141-0.014
		c0.075-0.074,0.12-0.129,0.134-0.167c0.014-0.037,0.026-0.111,0.035-0.222l0.028-0.014c0.009,0,0.019,0.005,0.028,0.014
		c0.094,0.046,0.155,0.083,0.183,0.111c0.601,0.296,1.141,0.444,1.62,0.444c0.648,0,1.226-0.166,1.733-0.498
		c0.019-0.074,0.056-0.129,0.113-0.166c0.019-0.212,0.094-0.364,0.226-0.457v-0.498l-0.057-0.055
		C147.012,48.256,146.974,48.164,146.965,48.164z"/>
	<path fill="#452F27" d="M157.418,46.88l-0.042-0.027l-0.042-0.028c-0.019-0.046-0.038-0.12-0.056-0.222
		c-0.019-0.028-0.038-0.046-0.057-0.056c-0.028-0.056-0.047-0.111-0.056-0.167c-0.019-0.028-0.04-0.053-0.063-0.077
		c-0.023-0.023-0.04-0.053-0.049-0.09c-0.047-0.037-0.084-0.093-0.113-0.167c-0.141-0.111-0.277-0.222-0.408-0.333
		c-0.104-0.074-0.273-0.153-0.507-0.236h-0.197c-0.291,0-0.625,0.111-1,0.333l-0.282,0.347l-0.057,0.056
		c-0.009,0.037-0.026,0.067-0.049,0.09c-0.023,0.023-0.044,0.049-0.063,0.077c-0.009,0.056-0.028,0.111-0.056,0.167
		c-0.066-0.009-0.132-0.028-0.197-0.056v-0.902h-1.439c-0.075,0-0.149,0.038-0.224,0.114l-0.014,0.171l0.014,0.186l0.112,0.057h0.39
		c0.056-0.033,0.111-0.056,0.167-0.067l0.014-0.017c0.046,0,0.121,0.023,0.223,0.069c0.167-0.009,0.283-0.004,0.348,0.014
		l0.042,0.042V46.6l-0.045,0.055l-0.011,0.166l0.011,0.166l0.045,0.055l-0.057,0.055v0.442c0.028,0.019,0.047,0.037,0.057,0.056
		v0.179c-0.01,0.019-0.028,0.037-0.057,0.055v0.718l0.057,0.055l-0.045,0.055l-0.011,0.056l0.011,0.055l0.045,0.055v0.566
		l-0.057,0.055l0.057,0.055v0.553l-0.057,0.055l0.057,0.055v1.202l-0.169,0.014c-0.094,0.009-0.23,0.002-0.409-0.021
		c-0.179-0.023-0.305-0.035-0.38-0.035c-0.132,0-0.235,0.015-0.31,0.043l-0.042,0.029v0.4l0.112,0.056h0.634
		c0.103,0,0.261-0.009,0.472-0.028c0.211-0.019,0.369-0.028,0.472-0.028c0.065,0,0.162,0.009,0.289,0.028
		c0.127,0.019,0.223,0.028,0.289,0.028h0.634c0.065-0.019,0.141-0.074,0.226-0.167v-0.167c-0.039-0.056-0.077-0.102-0.115-0.139
		h-1.221c-0.038-0.037-0.077-0.083-0.115-0.139v-0.111c0.038-0.028,0.075-0.046,0.113-0.055v-0.125l-0.113-0.056v-0.764l0.113-0.056
		l-0.113-0.055l0.113-0.056l-0.113-0.056l0.113-0.056v-0.222c-0.038-0.027-0.075-0.046-0.113-0.055v-0.167
		c0.038-0.028,0.075-0.046,0.113-0.056v-0.236c-0.036-0.031-0.063-0.051-0.082-0.06c0.013-0.004,0.018-0.009,0.054-0.009
		l0.085,0.014c0.028,0.055,0.05,0.104,0.064,0.146c0.014,0.042,0.031,0.067,0.05,0.077c0.028,0.037,0.054,0.074,0.078,0.111
		c0.023,0.037,0.054,0.079,0.092,0.125c0.189,0.111,0.386,0.222,0.589,0.333c0.204,0.111,0.419,0.167,0.646,0.167
		c0.085,0,0.265-0.037,0.54-0.111c0.028-0.019,0.047-0.037,0.057-0.056c0.18-0.102,0.317-0.175,0.412-0.222
		c0.009-0.046,0.028-0.083,0.057-0.111l0.17-0.111c0.009-0.046,0.028-0.088,0.057-0.125c0.019-0.009,0.035-0.035,0.05-0.077
		c0.014-0.042,0.035-0.09,0.063-0.146c0.019-0.009,0.036-0.035,0.05-0.077c0.014-0.042,0.036-0.09,0.064-0.146
		c0.019-0.009,0.038-0.028,0.057-0.056c0.028-0.12,0.047-0.213,0.057-0.278l0.057-0.055V47.38l-0.084-0.056V46.88z M157.052,47.838
		v0.111c-0.047,0.028-0.07,0.056-0.07,0.083c0,0.019,0.023,0.046,0.07,0.083v0.056l-0.056,0.056
		c-0.028,0.083-0.047,0.176-0.057,0.277c-0.066,0.13-0.104,0.241-0.113,0.333l-0.056,0.055l-0.07,0.167
		c-0.338,0.342-0.724,0.514-1.155,0.514h-0.028l-0.056-0.056c-0.235-0.111-0.409-0.189-0.521-0.236
		c-0.028-0.074-0.104-0.148-0.225-0.222c-0.01-0.037-0.028-0.074-0.057-0.111c-0.019-0.009-0.038-0.028-0.056-0.056
		c-0.009-0.102-0.028-0.194-0.056-0.277l-0.057-0.056c-0.009-0.037-0.028-0.074-0.056-0.111c-0.066-0.046-0.132-0.083-0.197-0.111
		v-0.444l-0.113-0.056v-0.027c0-0.037,0.038-0.065,0.113-0.083v-0.125l-0.113-0.056l0.057-0.055
		c0.028-0.176,0.047-0.306,0.057-0.389c0.275-0.268,0.427-0.435,0.455-0.5c0.124-0.102,0.199-0.194,0.228-0.278
		c0.076-0.056,0.138-0.092,0.185-0.111c0.124-0.121,0.256-0.181,0.398-0.181h0.37c0.057,0,0.1,0.005,0.128,0.014
		c0.028,0.01,0.052,0.028,0.071,0.056c0.123,0.019,0.256,0.074,0.398,0.167c0.028,0.028,0.047,0.065,0.057,0.111
		c0.142,0.157,0.223,0.269,0.242,0.333l0.057,0.056c0.009,0.13,0.028,0.241,0.057,0.333l0.057,0.056
		c0.019,0.176,0.038,0.306,0.057,0.389l0.057,0.056c-0.047,0.037-0.07,0.079-0.07,0.125L157.052,47.838z"/>
	<path fill="#452F27" d="M167.02,49.518l-0.202,0.125h-0.058c-0.029-0.046-0.086-0.083-0.173-0.111l-0.086-0.014l-0.101,0.014
		c-0.077-0.027-0.154-0.046-0.23-0.055c-0.01-0.12-0.029-0.236-0.058-0.347c-0.019-0.009-0.039-0.028-0.058-0.056v-0.111
		c0.057-0.028,0.084-0.074,0.084-0.139l-0.017-0.083l-0.068-0.056v-0.5l0.084-0.055v-0.444l-0.084-0.056l0.084-0.056v-0.458
		c-0.028-0.009-0.056-0.028-0.084-0.056V46.95c0.028-0.028,0.057-0.046,0.084-0.056l-0.084-0.056v-0.444
		c-0.028-0.009-0.056-0.028-0.084-0.055c-0.019-0.102-0.089-0.208-0.211-0.319c-0.094-0.083-0.192-0.167-0.295-0.25
		c-0.123-0.009-0.385-0.051-0.789-0.125c-0.319-0.065-0.583-0.097-0.789-0.097h-0.07c-0.028,0.019-0.047,0.037-0.057,0.056
		c-0.517,0.167-0.878,0.301-1.084,0.402c-0.028,0.074-0.066,0.13-0.113,0.167c-0.009,0.056-0.028,0.111-0.056,0.167
		c-0.019,0.009-0.038,0.027-0.057,0.055v0.222c0.019,0.028,0.038,0.046,0.057,0.056c0.028,0.037,0.047,0.074,0.056,0.111
		c0.141,0.093,0.216,0.148,0.226,0.167l0.155,0.014c0.131,0,0.253-0.042,0.366-0.125c0.009-0.037,0.028-0.074,0.057-0.111
		c0.019-0.009,0.037-0.028,0.056-0.056v-0.278c-0.047-0.074-0.07-0.102-0.07-0.083c0-0.139,0.338-0.208,1.014-0.208
		c0.61,0,1.014,0.153,1.211,0.458v0.611c-0.094,0.083-0.225,0.139-0.395,0.167l-0.056,0.056c-0.986,0.139-1.728,0.236-2.226,0.292
		c-0.123,0.019-0.266,0.104-0.43,0.257c-0.165,0.152-0.266,0.289-0.303,0.409l-0.056,0.056v0.902l0.056,0.056l0.057,0.167
		c0.188,0.231,0.38,0.384,0.578,0.458c0.159,0.065,0.394,0.097,0.704,0.097c0.113,0,0.249-0.014,0.409-0.042
		c0.207-0.037,0.343-0.06,0.409-0.069c0.019-0.028,0.037-0.046,0.056-0.055c0.329-0.121,0.54-0.213,0.634-0.278l0.057-0.056
		c0.056-0.028,0.112-0.046,0.169-0.056l0.282-0.277l0.084-0.028l0.084,0.028c0.028,0.102,0.047,0.176,0.057,0.222
		c0.019,0.009,0.037,0.028,0.056,0.055c0.019,0.102,0.068,0.181,0.148,0.236c0.08,0.056,0.125,0.088,0.134,0.097
		c0.056,0.009,0.113,0.028,0.169,0.056l0.057,0.055h0.747l0.113-0.111c0.019-0.065,0.056-0.12,0.112-0.167
		C167.203,49.578,167.116,49.518,167.02,49.518z M165.575,48.574c-0.16,0.139-0.292,0.232-0.396,0.278
		c-0.104,0.167-0.217,0.278-0.34,0.333c-0.028,0.019-0.047,0.042-0.057,0.069c-0.519,0.222-0.873,0.333-1.062,0.333
		c0.019,0-0.26-0.056-0.835-0.167c-0.18-0.139-0.292-0.254-0.34-0.347v-0.555c0.057-0.046,0.094-0.102,0.113-0.167
		c0.142-0.092,0.217-0.148,0.227-0.167c0.264-0.12,0.415-0.18,0.453-0.18c0.235,0,0.587-0.044,1.054-0.132s0.814-0.132,1.04-0.132
		c0.028,0,0.062,0.005,0.099,0.014l0.042,0.042V48.574z"/>
	<path fill="#452F27" d="M177.125,49.602l-0.073-0.042h-0.884v-0.736c0.065-0.037,0.099-0.064,0.099-0.083
		c0-0.028-0.033-0.056-0.099-0.083V47.88c0.065-0.028,0.099-0.074,0.099-0.139v-0.055c-0.04-0.037-0.073-0.065-0.099-0.083v-0.68
		l0.084-0.056l-0.084-0.056v-0.5c-0.028-0.009-0.057-0.028-0.085-0.056c-0.028-0.176-0.142-0.306-0.34-0.389
		c-0.104-0.12-0.368-0.181-0.793-0.181h-0.227c-0.321,0.13-0.495,0.208-0.523,0.236c-0.132,0.019-0.219,0.07-0.262,0.153
		c-0.042,0.083-0.125,0.162-0.248,0.236l-0.056,0.111c-0.151,0.148-0.265,0.241-0.34,0.278h-0.057l0.07-0.056l-0.057-0.056
		c-0.028-0.083-0.047-0.176-0.056-0.277c-0.019-0.028-0.038-0.046-0.056-0.056l0.169-0.167v-0.111
		c-0.094-0.111-0.169-0.189-0.226-0.236c-0.329-0.037-0.47-0.056-0.422-0.056c-0.451,0-0.676,0.107-0.676,0.32l0.014,0.14
		l0.113,0.111c0.375-0.046,0.624-0.028,0.747,0.056v0.557l-0.057,0.056l0.057,0.056v0.446c-0.023,0.019-0.038,0.04-0.045,0.063
		c-0.007,0.023-0.011,0.062-0.011,0.118s0.004,0.093,0.011,0.111l0.045,0.056v0.112c-0.028,0.019-0.047,0.037-0.057,0.056v0.892
		c0.019,0.009,0.038,0.028,0.057,0.056v0.334l-0.057,0.056l0.057,0.07l-0.028,0.292c-0.414-0.019-0.69-0.005-0.831,0.041
		l-0.113,0.108V49.9c0.056,0.063,0.099,0.113,0.127,0.149l0.099,0.068c0.037,0,0.112,0.009,0.225,0.027s0.197,0.027,0.253,0.027
		c0.179,0,0.427-0.018,0.747-0.055c0.356-0.028,0.61-0.046,0.761-0.056l0.07-0.056l0.042-0.056l0.014-0.083l-0.014-0.083
		c-0.047-0.083-0.122-0.139-0.225-0.167h-0.62l-0.113-0.056l-0.014-0.125l0.014-0.167c0.009-0.019,0.028-0.037,0.057-0.056
		l-0.07-0.055l0.07-0.056l-0.07-0.056l0.07-0.056v-0.167c-0.047-0.018-0.07-0.046-0.07-0.083c0-0.028,0.023-0.056,0.07-0.083v-0.555
		c-0.047-0.028-0.07-0.056-0.07-0.083c0-0.009,0.013-0.032,0.04-0.069l0.03-0.014v-0.458c0.028-0.009,0.052-0.03,0.071-0.062
		c0.019-0.032,0.042-0.067,0.071-0.104c0.019-0.009,0.036-0.035,0.05-0.076c0.014-0.042,0.042-0.093,0.085-0.153
		c0.042-0.06,0.074-0.113,0.093-0.16c0.171-0.148,0.323-0.278,0.456-0.389c0.209-0.121,0.323-0.194,0.342-0.222
		c0.209-0.083,0.423-0.125,0.642-0.125c0.256,0,0.446,0.116,0.57,0.347v3.082l-0.226,0.111h-0.056
		c-0.094-0.046-0.202-0.069-0.324-0.069l-0.126,0.014l-0.071,0.042l-0.056,0.097v0.111c0.019,0.037,0.037,0.064,0.056,0.083
		l0.071,0.056c0.216,0,0.537,0.009,0.965,0.028c0.427,0.019,0.749,0.028,0.965,0.028h0.057c0.103-0.056,0.178-0.111,0.225-0.167
		l0.014-0.139l-0.015-0.139L177.125,49.602z"/>
	<path fill="#452F27" d="M186.466,47.236l-0.042-0.027l-0.042-0.028c-0.028-0.129-0.047-0.226-0.056-0.291
		c-0.057-0.037-0.094-0.092-0.113-0.166c-0.141-0.129-0.216-0.222-0.226-0.277c-0.056-0.046-0.094-0.102-0.112-0.166
		c-0.066-0.028-0.23-0.125-0.493-0.291c-0.216-0.138-0.395-0.208-0.536-0.208h-0.845c-0.15,0-0.418,0.092-0.803,0.277
		c-0.094,0.102-0.207,0.194-0.338,0.277c-0.019,0.064-0.056,0.12-0.112,0.166c-0.019,0.074-0.057,0.129-0.113,0.166
		c-0.019,0.12-0.057,0.194-0.113,0.222c-0.066,0.175-0.122,0.328-0.169,0.457c-0.019,0.01-0.038,0.028-0.057,0.056
		c-0.028,0.175-0.047,0.305-0.056,0.387l-0.057,0.056v0.664c0.028,0.019,0.047,0.037,0.057,0.056
		c0.028,0.102,0.075,0.175,0.141,0.221v0.457c0.075,0.028,0.122,0.083,0.141,0.166c0.347,0.258,0.573,0.443,0.676,0.554
		c0.178,0.074,0.314,0.129,0.408,0.166c0.009,0.019,0.033,0.035,0.071,0.048c0.037,0.014,0.136,0.035,0.296,0.062
		c0.131,0.027,0.234,0.042,0.31,0.042c0.16,0,0.375-0.028,0.648-0.083c0.31-0.074,0.488-0.152,0.536-0.235
		c0.234-0.147,0.409-0.258,0.521-0.333c0.019-0.074,0.057-0.129,0.113-0.166c0.065-0.185,0.122-0.318,0.169-0.402
		c0.019-0.009,0.038-0.027,0.057-0.055c0.019-0.092,0.065-0.147,0.141-0.166v-0.443l0.084-0.055V47.79l-0.084-0.055V47.236z
		 M185.987,47.514c-0.056,0.046-0.084,0.074-0.084,0.083c0,0.028,0.028,0.056,0.084,0.083v0.608l-0.084,0.056v0.553l-0.084,0.055
		c-0.028,0.037-0.047,0.074-0.056,0.111c-0.057,0.028-0.113,0.046-0.169,0.055c-0.094,0.102-0.155,0.18-0.184,0.235
		c-0.216,0.139-0.329,0.231-0.338,0.277c-0.132,0.037-0.244,0.055-0.338,0.055h-0.733c-0.047,0-0.122-0.019-0.225-0.055
		l-0.057-0.055c-0.319-0.157-0.493-0.249-0.521-0.277c-0.019-0.073-0.049-0.14-0.092-0.2c-0.042-0.06-0.087-0.108-0.134-0.146
		c-0.009-0.055-0.028-0.11-0.056-0.166l-0.028-0.042l-0.056-0.014v-0.498l-0.084-0.055v-0.332l0.084-0.055v-0.442l0.084-0.056
		c0.028-0.037,0.047-0.074,0.056-0.11l0.057-0.055c0.028-0.064,0.047-0.125,0.056-0.18c0.517-0.405,0.859-0.608,1.028-0.608h0.62
		c-0.01,0,0.141,0.055,0.451,0.166c0.234,0.222,0.427,0.387,0.578,0.498c0.028,0.129,0.047,0.226,0.056,0.29
		c0.075,0.074,0.131,0.129,0.169,0.166V47.514z"/>
	<path fill="#452F27" d="M196.542,49.754c-0.037-0.046-0.093-0.083-0.168-0.111h-0.056c-0.159,0-0.395,0.009-0.707,0.028
		s-0.548,0.028-0.707,0.028h-0.056l-0.112-0.111v-1.347l0.042-0.056l-0.042-0.055v-0.681l0.042-0.055
		c-0.057-0.046-0.094-0.102-0.113-0.167c-0.047-0.046-0.07-0.074-0.07-0.083c0-0.019,0.023-0.046,0.07-0.083l-0.056-0.056
		l0.169-0.111v-1.402l-0.042-0.056l0.042-0.055l-0.042-0.056v-0.389l0.042-0.056v-0.847c-0.084-0.092-0.16-0.148-0.226-0.167h-1.423
		c-0.047,0-0.12,0.009-0.218,0.028s-0.171,0.028-0.218,0.028c-0.038,0-0.094-0.009-0.169-0.028
		c-0.076-0.019-0.132-0.028-0.169-0.028h-0.028c-0.038,0.028-0.076,0.046-0.113,0.056c-0.019,0.083-0.057,0.139-0.113,0.167v0.278
		c0.094,0.093,0.17,0.153,0.227,0.18h0.865c0.028,0,0.076-0.011,0.142-0.035c0.066-0.023,0.113-0.035,0.142-0.035h0.624l0.113,0.069
		v1.222l-0.071,0.055v0.167c0.023,0.028,0.047,0.046,0.071,0.055v0.458l-0.071,0.055v0.333l0.071,0.056l-0.071,0.055l0.169,0.167
		c-0.019,0.009-0.038,0.027-0.057,0.055c-0.009,0.102-0.028,0.194-0.056,0.278l-0.057,0.056l0.071,0.055v0.569l-0.071,0.056
		l0.071,0.056v1.402h-1.184c-0.104-0.037-0.268-0.056-0.493-0.056c-0.291,0-0.47,0.059-0.535,0.177l-0.014,0.163l0.014,0.163
		l0.042,0.068l0.07,0.041h0.747c0.009,0,0.038-0.009,0.084-0.028s0.08-0.028,0.099-0.028c0.047,0,0.12,0.009,0.218,0.028
		s0.171,0.028,0.218,0.028h0.733c0.019,0,0.051-0.009,0.098-0.028c0.047-0.019,0.08-0.028,0.098-0.028
		c0.084,0,0.21,0.009,0.378,0.028c0.168,0.019,0.295,0.028,0.379,0.028h1.317l0.448-0.111v-0.389H196.542z"/>
	<path fill="#452F27" d="M173.4,44.82c0.041,0,0.121,0.011,0.242,0.029c0.12,0.02,0.211,0.03,0.272,0.03
		c0.192,0,0.459-0.02,0.8-0.06c0.382-0.03,0.655-0.05,0.816-0.06l0.075-0.06l0.045-0.06l0.015-0.091l-0.015-0.091
		c-0.05-0.091-0.13-0.151-0.242-0.181h-0.664l-0.252,0.003l-0.323,0.027c-0.444-0.02-0.74-0.005-0.891,0.044l-0.12,0.118v0.118
		c0.06,0.069,0.106,0.123,0.135,0.162L173.4,44.82z"/>
</g>
</svg>
