<?xml version="1.0" encoding="utf-8"?>
<!-- Generator: Adobe Illustrator 17.0.0, SVG Export Plug-In . SVG Version: 6.00 Build 0)  -->
<!DOCTYPE svg PUBLIC "-//W3C//DTD SVG 1.1//EN" "http://www.w3.org/Graphics/SVG/1.1/DTD/svg11.dtd">
<svg version="1.1" id="Capa_1" xmlns="http://www.w3.org/2000/svg" xmlns:xlink="http://www.w3.org/1999/xlink" x="0px" y="0px"
	 width="200px" height="200px" viewBox="197.64 320.945 200 200" enable-background="new 197.64 320.945 200 200"
	 xml:space="preserve">
<path d="M297.665,320.945h-0.05l0,0c-55.138,0-99.975,44.85-99.975,100c0,21.875,7.05,42.15,19.038,58.612l-12.463,37.15
	l38.438-12.288c15.813,10.475,34.675,16.525,55.012,16.525c55.138,0,99.975-44.862,99.975-100S352.803,320.945,297.665,320.945z"/>
<path fill="#FAFAFA" d="M355.853,462.158c-2.413,6.812-11.987,12.462-19.625,14.112c-5.225,1.113-12.05,2-35.025-7.525
	c-29.388-12.175-48.312-42.037-49.788-43.975c-1.412-1.938-11.875-15.812-11.875-30.163s7.288-21.337,10.225-24.338
	c2.413-2.462,6.4-3.587,10.225-3.587c1.237,0,2.35,0.062,3.35,0.113c2.938,0.125,4.412,0.3,6.35,4.938
	c2.413,5.812,8.288,20.162,8.988,21.637c0.712,1.475,1.425,3.475,0.425,5.413c-0.938,2-1.762,2.888-3.237,4.587
	c-1.475,1.7-2.875,3-4.35,4.825c-1.35,1.587-2.875,3.288-1.175,6.225c1.7,2.875,7.575,12.462,16.225,20.163
	c11.163,9.938,20.213,13.112,23.45,14.462c2.413,1,5.288,0.762,7.05-1.112c2.238-2.413,5-6.413,7.812-10.35
	c2-2.825,4.525-3.175,7.175-2.175c2.7,0.938,16.987,8,19.925,9.463c2.938,1.475,4.875,2.175,5.587,3.412
	C358.265,449.52,358.265,455.333,355.853,462.158z"/>
</svg>
